<svg width="509" height="335" viewBox="0 0 509 335" fill="none" xmlns="http://www.w3.org/2000/svg">
<path d="M2.4 46H24.6L39 154.6H39.4L53.8 46H74L52.8 186H23.6L2.4 46ZM84.5672 46H106.567V186H84.5672V46ZM154.044 188C143.51 188 135.444 185 129.844 179C124.377 173 121.644 164.533 121.644 153.6V78.4C121.644 67.4667 124.377 59 129.844 53C135.444 47 143.51 44 154.044 44C164.577 44 172.577 47 178.044 53C183.644 59 186.444 67.4667 186.444 78.4V93.2H165.644V77C165.644 68.3333 161.977 64 154.644 64C147.31 64 143.644 68.3333 143.644 77V155.2C143.644 163.733 147.31 168 154.644 168C161.977 168 165.644 163.733 165.644 155.2V133.8H186.444V153.6C186.444 164.533 183.644 173 178.044 179C172.577 185 164.577 188 154.044 188ZM199.606 46H221.606V105L249.606 46H271.606L245.406 97.4L272.006 186H249.006L230.406 123.6L221.606 141.4V186H199.606V46ZM302.619 126.4L276.019 46H299.419L314.419 97.4H314.819L329.819 46H351.219L324.619 126.4V186H302.619V126.4ZM393.161 46H415.161V166H451.361V186H393.161V46ZM461.911 46H483.911V186H461.911V46Z" fill="#B3473B"/>
<path d="M14.4 40H36.6L51 148.6H51.4L65.8 40H86L64.8 180H35.6L14.4 40ZM96.5672 40H118.567V180H96.5672V40ZM166.044 182C155.51 182 147.444 179 141.844 173C136.377 167 133.644 158.533 133.644 147.6V72.4C133.644 61.4667 136.377 53 141.844 47C147.444 41 155.51 38 166.044 38C176.577 38 184.577 41 190.044 47C195.644 53 198.444 61.4667 198.444 72.4V87.2H177.644V71C177.644 62.3333 173.977 58 166.644 58C159.31 58 155.644 62.3333 155.644 71V149.2C155.644 157.733 159.31 162 166.644 162C173.977 162 177.644 157.733 177.644 149.2V127.8H198.444V147.6C198.444 158.533 195.644 167 190.044 173C184.577 179 176.577 182 166.044 182ZM211.606 40H233.606V99L261.606 40H283.606L257.406 91.4L284.006 180H261.006L242.406 117.6L233.606 135.4V180H211.606V40ZM314.619 120.4L288.019 40H311.419L326.419 91.4H326.819L341.819 40H363.219L336.619 120.4V180H314.619V120.4ZM405.161 40H427.161V160H463.361V180H405.161V40ZM473.911 40H495.911V180H473.911V40Z" fill="#F0782E"/>
<path d="M18.4 40H40.6L55 148.6H55.4L69.8 40H90L68.8 180H39.6L18.4 40ZM100.567 40H122.567V180H100.567V40ZM170.044 182C159.51 182 151.444 179 145.844 173C140.377 167 137.644 158.533 137.644 147.6V72.4C137.644 61.4667 140.377 53 145.844 47C151.444 41 159.51 38 170.044 38C180.577 38 188.577 41 194.044 47C199.644 53 202.444 61.4667 202.444 72.4V87.2H181.644V71C181.644 62.3333 177.977 58 170.644 58C163.31 58 159.644 62.3333 159.644 71V149.2C159.644 157.733 163.31 162 170.644 162C177.977 162 181.644 157.733 181.644 149.2V127.8H202.444V147.6C202.444 158.533 199.644 167 194.044 173C188.577 179 180.577 182 170.044 182ZM215.606 40H237.606V99L265.606 40H287.606L261.406 91.4L288.006 180H265.006L246.406 117.6L237.606 135.4V180H215.606V40ZM318.619 120.4L292.019 40H315.419L330.419 91.4H330.819L345.819 40H367.219L340.619 120.4V180H318.619V120.4ZM409.161 40H431.161V160H467.361V180H409.161V40ZM477.911 40H499.911V180H477.911V40Z" fill="#FDBB63"/>
<path d="M27.72 235.88C30.8933 235.88 33.48 236.48 35.48 237.68C37.5067 238.853 39 240.533 39.96 242.72C40.9467 244.88 41.44 247.453 41.44 250.44C41.44 255.453 40.36 259.133 38.2 261.48C36.04 263.827 32.7333 265 28.28 265H26.52C25.2133 265 24 264.867 22.88 264.6C21.76 264.333 20.7733 263.853 19.92 263.16C19.0667 262.44 18.4 261.44 17.92 260.16C17.44 258.88 17.2 257.227 17.2 255.2C17.2 253.307 17.4533 251.667 17.96 250.28C18.4933 248.893 19.12 247.787 19.84 246.96C20.56 246.133 21.2133 245.627 21.8 245.44L21.6 244.68H20.92C19.6933 244.68 18.72 244.293 18 243.52C17.3067 242.72 16.9467 241.653 16.92 240.32C16.8933 238.987 17.24 237.92 17.96 237.12C18.7067 236.293 19.6933 235.88 20.92 235.88H27.72ZM24.84 254.68C24.84 255.24 24.96 255.627 25.2 255.84C25.4667 256.053 25.8533 256.16 26.36 256.16H28.52C29.88 256.16 30.9333 255.867 31.68 255.28C32.4267 254.693 32.9467 253.947 33.24 253.04C33.56 252.107 33.72 251.12 33.72 250.08C33.72 249.04 33.56 248.04 33.24 247.08C32.9467 246.12 32.4267 245.333 31.68 244.72C30.9333 244.107 29.88 243.8 28.52 243.8H26.36C25.8533 243.8 25.4667 243.92 25.2 244.16C24.96 244.373 24.84 244.773 24.84 245.36V254.68ZM53.4853 264.92C52.1786 264.92 50.9253 264.8 49.7253 264.56C48.552 264.32 47.512 263.867 46.6053 263.2C45.7253 262.507 45.0186 261.52 44.4853 260.24C43.9786 258.933 43.7253 257.227 43.7253 255.12C43.7253 253.227 43.9786 251.6 44.4853 250.24C44.992 248.88 45.592 247.8 46.2853 247C47.0053 246.2 47.6586 245.707 48.2453 245.52L48.0453 244.76H47.3653C46.1386 244.76 45.1653 244.373 44.4453 243.6C43.752 242.8 43.392 241.72 43.3653 240.36C43.3386 239.027 43.6853 237.96 44.4053 237.16C45.152 236.36 46.1386 235.96 47.3653 235.96H61.7253C64.5786 235.96 66.0053 237.293 66.0053 239.96C66.0053 241.16 65.6586 242.12 64.9653 242.84C64.272 243.56 63.192 243.92 61.7253 243.92H53.4453C52.4586 243.92 51.9653 244.493 51.9653 245.64V248.64C53.2986 248.347 54.6853 248 56.1253 247.6C57.592 247.2 58.9786 247 60.2853 247C61.5386 247 62.472 247.28 63.0853 247.84C63.7253 248.373 64.0453 249.107 64.0453 250.04C64.0453 251 63.7253 251.76 63.0853 252.32C62.472 252.853 61.5386 253.133 60.2853 253.16C58.9786 253.187 57.592 253 56.1253 252.6C54.6586 252.2 53.2586 251.853 51.9253 251.56V256.8C51.9253 257.307 52.0586 257.667 52.3253 257.88C52.6186 258.067 53.072 257.987 53.6853 257.64C55.0186 256.867 56.3253 256.253 57.6053 255.8C58.8853 255.32 60.1386 255.08 61.3653 255.08C63.0986 255.08 64.4053 255.533 65.2853 256.44C66.192 257.347 66.6453 258.533 66.6453 260C66.6453 261.573 66.1653 262.787 65.2053 263.64C64.272 264.493 62.752 264.92 60.6453 264.92H53.4853ZM80.6156 265.12C79.1223 265.12 77.6156 264.973 76.0956 264.68C74.6023 264.36 73.2156 263.907 71.9356 263.32C70.6823 262.707 69.669 261.973 68.8956 261.12C68.1223 260.24 67.7356 259.227 67.7356 258.08C67.7356 256.613 68.2023 255.44 69.1356 254.56C70.069 253.68 71.1623 253.267 72.4156 253.32C73.4023 253.347 74.389 253.56 75.3756 253.96C76.3623 254.333 77.3623 254.707 78.3756 255.08C79.4156 255.453 80.4556 255.64 81.4956 255.64C82.5356 255.64 83.2556 255.507 83.6556 255.24C84.0556 254.973 84.2556 254.613 84.2556 254.16C84.2556 253.627 83.9756 253.187 83.4156 252.84C82.8556 252.493 82.149 252.227 81.2956 252.04L79.3356 251.56C77.309 251.08 75.4956 250.547 73.8956 249.96C72.2956 249.347 71.029 248.547 70.0956 247.56C69.189 246.547 68.7356 245.2 68.7356 243.52C68.7356 241.68 69.2423 240.187 70.2556 239.04C71.269 237.867 72.6423 237.013 74.3756 236.48C76.109 235.947 78.0423 235.68 80.1756 235.68C82.3623 235.68 84.2823 235.907 85.9356 236.36C87.589 236.813 88.869 237.467 89.7756 238.32C90.709 239.173 91.1756 240.213 91.1756 241.44C91.1756 242.747 90.8156 243.773 90.0956 244.52C89.4023 245.24 88.469 245.6 87.2956 245.6C86.5223 245.6 85.709 245.467 84.8556 245.2C84.029 244.933 83.149 244.68 82.2156 244.44C81.309 244.173 80.3356 244.04 79.2956 244.04C78.3623 244.04 77.6556 244.187 77.1756 244.48C76.6956 244.747 76.4556 245.107 76.4556 245.56C76.4556 246.12 76.7756 246.533 77.4156 246.8C78.0556 247.067 79.109 247.387 80.5756 247.76L82.8156 248.28C84.6556 248.733 86.269 249.28 87.6556 249.92C89.0423 250.56 90.1223 251.4 90.8956 252.44C91.669 253.48 92.0556 254.84 92.0556 256.52C92.0556 258.547 91.5756 260.2 90.6156 261.48C89.6556 262.733 88.3223 263.653 86.6156 264.24C84.909 264.827 82.909 265.12 80.6156 265.12ZM112.745 265.08C111.439 265.08 110.425 264.68 109.705 263.88C108.985 263.08 108.625 262.093 108.625 260.92V246.6H107.825C107.639 247.213 107.239 247.76 106.625 248.24C106.012 248.72 105.239 248.96 104.305 248.96C103.292 248.96 102.399 248.627 101.625 247.96C100.879 247.267 100.505 246.307 100.505 245.08C100.505 244.147 100.719 243.36 101.145 242.72C101.572 242.08 102.119 241.453 102.785 240.84L105.705 238.24C106.719 237.333 107.665 236.68 108.545 236.28C109.425 235.853 110.439 235.64 111.585 235.64C112.519 235.64 113.385 235.84 114.185 236.24C114.985 236.64 115.625 237.267 116.105 238.12C116.612 238.947 116.865 240.04 116.865 241.4V260.92C116.865 262.093 116.519 263.08 115.825 263.88C115.132 264.68 114.105 265.08 112.745 265.08ZM133.736 247.64C135.336 247.64 136.75 247.88 137.976 248.36C139.23 248.84 140.203 249.667 140.896 250.84C141.616 251.987 141.976 253.613 141.976 255.72C141.976 257.56 141.643 259.093 140.976 260.32C140.336 261.52 139.456 262.467 138.336 263.16C137.243 263.827 136.003 264.307 134.616 264.6C133.23 264.867 131.79 265 130.296 265C126.91 265 124.283 264.587 122.416 263.76C120.55 262.907 119.616 261.453 119.616 259.4C119.616 257.96 120.096 256.853 121.056 256.08C122.016 255.28 123.256 254.973 124.776 255.16C125.95 255.293 127.23 255.44 128.616 255.6C130.003 255.76 131.47 255.827 133.016 255.8C134.056 255.8 134.803 255.64 135.256 255.32C135.736 254.973 135.976 254.48 135.976 253.84C135.976 253.067 135.736 252.48 135.256 252.08C134.803 251.653 134.056 251.44 133.016 251.44H124.976C123.536 251.44 122.43 251.173 121.656 250.64C120.883 250.107 120.496 249.147 120.496 247.76V241.16C120.496 239.773 120.71 238.707 121.136 237.96C121.59 237.213 122.203 236.693 122.976 236.4C123.776 236.107 124.683 235.96 125.696 235.96H136.536C138.27 235.96 139.483 236.347 140.176 237.12C140.87 237.893 141.216 238.907 141.216 240.16C141.216 241.413 140.87 242.453 140.176 243.28C139.483 244.08 138.27 244.48 136.536 244.48C135.15 244.48 133.763 244.173 132.376 243.56C131.016 242.947 129.87 242.107 128.936 241.04H128.136V247.64H133.736ZM160.152 241.96C159.406 242.413 158.486 242.92 157.392 243.48C156.326 244.013 155.059 244.48 153.592 244.88C152.126 245.28 150.432 245.48 148.512 245.48C146.912 245.48 145.712 245.04 144.912 244.16C144.112 243.253 143.712 242.12 143.712 240.76C143.712 239.373 144.112 238.227 144.912 237.32C145.712 236.413 146.912 235.96 148.512 235.96H160.272C162.246 235.96 163.752 236.427 164.792 237.36C165.859 238.293 166.392 239.733 166.392 241.68C166.392 242.667 166.232 243.533 165.912 244.28C165.592 245.027 165.166 245.733 164.632 246.4C164.099 247.067 163.526 247.76 162.912 248.48C162.326 249.2 161.752 250 161.192 250.88C160.366 252.187 159.699 253.707 159.192 255.44C158.686 257.173 158.326 258.973 158.112 260.84C157.952 262.253 157.499 263.333 156.752 264.08C156.032 264.8 154.966 265.173 153.552 265.2C152.112 265.227 150.939 264.827 150.032 264C149.126 263.173 148.686 262.013 148.712 260.52C148.766 257.933 149.166 255.56 149.912 253.4C150.686 251.24 151.726 249.493 153.032 248.16C153.806 247.36 154.632 246.64 155.512 246C156.419 245.36 157.272 244.813 158.072 244.36C158.872 243.88 159.526 243.52 160.032 243.28C160.539 243.04 160.792 242.92 160.792 242.92L160.152 241.96ZM177.014 264.96C175.787 264.907 174.64 264.733 173.574 264.44C172.534 264.147 171.614 263.653 170.814 262.96C170.014 262.24 169.387 261.253 168.934 260C168.507 258.747 168.294 257.147 168.294 255.2C168.294 253.307 168.547 251.667 169.054 250.28C169.587 248.893 170.214 247.787 170.934 246.96C171.654 246.133 172.307 245.627 172.894 245.44L172.694 244.68H172.014C170.787 244.68 169.814 244.293 169.094 243.52C168.4 242.72 168.04 241.653 168.014 240.32C167.987 238.987 168.334 237.92 169.054 237.12C169.8 236.293 170.787 235.88 172.014 235.88H183.014C185.894 235.88 187.974 236.573 189.254 237.96C190.534 239.32 191.174 241.093 191.174 243.28C191.174 245.04 190.76 246.507 189.934 247.68C189.134 248.853 187.92 249.56 186.294 249.8V250.4C188.054 250.48 189.48 251.093 190.574 252.24C191.694 253.36 192.254 255.027 192.254 257.24C192.254 259.64 191.56 261.547 190.174 262.96C188.787 264.347 186.507 265.027 183.334 265L177.014 264.96ZM175.934 247C175.934 247.587 176.04 247.973 176.254 248.16C176.467 248.347 176.867 248.44 177.454 248.44H181.134C182.147 248.44 182.92 248.293 183.454 248C183.987 247.68 184.254 247.067 184.254 246.16C184.254 245.227 183.987 244.613 183.454 244.32C182.92 244.027 182.147 243.88 181.134 243.88H177.454C176.867 243.88 176.467 243.96 176.254 244.12C176.04 244.28 175.934 244.667 175.934 245.28V247ZM175.934 255.04C175.934 255.627 176.04 256.027 176.254 256.24C176.494 256.453 176.92 256.56 177.534 256.56H181.654C182.694 256.56 183.494 256.373 184.054 256C184.614 255.627 184.894 254.96 184.894 254C184.894 253.04 184.614 252.387 184.054 252.04C183.494 251.667 182.694 251.48 181.654 251.48H177.534C176.92 251.48 176.494 251.573 176.254 251.76C176.04 251.947 175.934 252.333 175.934 252.92V255.04ZM205.903 254.16C204.943 254.16 204.117 253.827 203.423 253.16C202.73 252.467 202.383 251.547 202.383 250.4C202.383 249.307 202.73 248.427 203.423 247.76C204.117 247.093 204.957 246.76 205.943 246.76H215.143C216.157 246.76 216.983 247.107 217.623 247.8C218.263 248.467 218.583 249.333 218.583 250.4C218.583 251.467 218.263 252.36 217.623 253.08C216.983 253.8 216.157 254.16 215.143 254.16H205.903ZM241.709 265.12C240.216 265.12 238.709 264.973 237.189 264.68C235.696 264.36 234.309 263.907 233.029 263.32C231.776 262.707 230.763 261.973 229.989 261.12C229.216 260.24 228.829 259.227 228.829 258.08C228.829 256.613 229.296 255.44 230.229 254.56C231.163 253.68 232.256 253.267 233.509 253.32C234.496 253.347 235.483 253.56 236.469 253.96C237.456 254.333 238.456 254.707 239.469 255.08C240.509 255.453 241.549 255.64 242.589 255.64C243.629 255.64 244.349 255.507 244.749 255.24C245.149 254.973 245.349 254.613 245.349 254.16C245.349 253.627 245.069 253.187 244.509 252.84C243.949 252.493 243.243 252.227 242.389 252.04L240.429 251.56C238.403 251.08 236.589 250.547 234.989 249.96C233.389 249.347 232.123 248.547 231.189 247.56C230.283 246.547 229.829 245.2 229.829 243.52C229.829 241.68 230.336 240.187 231.349 239.04C232.363 237.867 233.736 237.013 235.469 236.48C237.203 235.947 239.136 235.68 241.269 235.68C243.456 235.68 245.376 235.907 247.029 236.36C248.683 236.813 249.963 237.467 250.869 238.32C251.803 239.173 252.269 240.213 252.269 241.44C252.269 242.747 251.909 243.773 251.189 244.52C250.496 245.24 249.563 245.6 248.389 245.6C247.616 245.6 246.803 245.467 245.949 245.2C245.123 244.933 244.243 244.68 243.309 244.44C242.403 244.173 241.429 244.04 240.389 244.04C239.456 244.04 238.749 244.187 238.269 244.48C237.789 244.747 237.549 245.107 237.549 245.56C237.549 246.12 237.869 246.533 238.509 246.8C239.149 247.067 240.203 247.387 241.669 247.76L243.909 248.28C245.749 248.733 247.363 249.28 248.749 249.92C250.136 250.56 251.216 251.4 251.989 252.44C252.763 253.48 253.149 254.84 253.149 256.52C253.149 258.547 252.669 260.2 251.709 261.48C250.749 262.733 249.416 263.653 247.709 264.24C246.003 264.827 244.003 265.12 241.709 265.12ZM268.857 265C267.391 265 266.164 264.547 265.177 263.64C264.217 262.733 263.604 261.56 263.337 260.12H262.617V269.32C262.617 270.413 262.311 271.333 261.697 272.08C261.084 272.853 260.151 273.24 258.897 273.24C257.697 273.24 256.764 272.853 256.097 272.08C255.457 271.333 255.137 270.387 255.137 269.24V254.28C255.137 252.947 255.084 251.827 254.977 250.92C254.897 249.987 254.817 249.147 254.737 248.4C254.631 247.28 254.857 246.333 255.417 245.56C255.977 244.76 256.884 244.28 258.137 244.12C259.764 243.907 260.911 244.2 261.577 245C262.271 245.773 262.617 246.987 262.617 248.64V250.56L262.777 250.6C262.911 249.56 263.217 248.547 263.697 247.56C264.204 246.547 264.911 245.72 265.817 245.08C266.724 244.413 267.871 244.08 269.257 244.08C271.577 244.08 273.297 245.013 274.417 246.88C275.564 248.72 276.137 251.187 276.137 254.28C276.137 261.427 273.711 265 268.857 265ZM262.457 254.2C262.457 254.627 262.511 254.96 262.617 255.2C262.777 255.707 263.111 256.08 263.617 256.32C264.151 256.533 264.937 256.64 265.977 256.64C267.311 256.64 268.217 256.44 268.697 256.04C269.204 255.64 269.457 255.027 269.457 254.2C269.457 253.347 269.217 252.733 268.737 252.36C268.257 251.96 267.351 251.76 266.017 251.76C264.951 251.76 264.151 251.88 263.617 252.12C263.111 252.333 262.777 252.693 262.617 253.2C262.511 253.44 262.457 253.773 262.457 254.2ZM282.095 265C280.841 265 279.868 264.64 279.175 263.92C278.481 263.2 278.135 262.293 278.135 261.2V248.08C278.135 246.933 278.481 245.987 279.175 245.24C279.868 244.467 280.841 244.08 282.095 244.08C283.348 244.08 284.308 244.467 284.975 245.24C285.641 245.987 285.975 246.907 285.975 248V248.84H286.735C286.841 247.427 287.375 246.267 288.335 245.36C289.295 244.453 290.428 244 291.735 244C293.041 244 294.068 244.4 294.815 245.2C295.588 246 295.975 247.067 295.975 248.4C295.975 249.653 295.615 250.693 294.895 251.52C294.175 252.347 293.255 252.76 292.135 252.76C291.201 252.76 290.415 252.547 289.775 252.12C289.161 251.667 288.708 251.147 288.415 250.56C287.561 250.453 286.935 250.547 286.535 250.84C286.161 251.107 285.975 251.653 285.975 252.48V261.2C285.975 262.293 285.641 263.2 284.975 263.92C284.308 264.64 283.348 265 282.095 265ZM297.272 239.44C297.272 238.293 297.618 237.373 298.312 236.68C299.032 235.96 300.018 235.6 301.272 235.6C302.605 235.6 303.592 235.947 304.232 236.64C304.898 237.333 305.232 238.253 305.232 239.4C305.232 240.52 304.898 241.427 304.232 242.12C303.592 242.787 302.605 243.12 301.272 243.12C299.965 243.12 298.965 242.787 298.272 242.12C297.605 241.427 297.272 240.533 297.272 239.44ZM301.272 265C300.018 265 299.085 264.653 298.472 263.96C297.858 263.267 297.552 262.4 297.552 261.36V247.68C297.552 246.533 297.858 245.627 298.472 244.96C299.085 244.293 300.018 243.96 301.272 243.96C302.525 243.96 303.458 244.293 304.072 244.96C304.712 245.627 305.032 246.507 305.032 247.6V261.36C305.032 262.4 304.698 263.267 304.032 263.96C303.392 264.653 302.472 265 301.272 265ZM311.116 265C309.943 265 308.996 264.653 308.276 263.96C307.583 263.24 307.236 262.36 307.236 261.32V248.08C307.236 246.96 307.57 246.013 308.236 245.24C308.903 244.467 309.863 244.08 311.116 244.08C312.343 244.08 313.276 244.467 313.916 245.24C314.556 246.013 314.876 246.987 314.876 248.16V250.16H315.596C315.596 248.64 315.863 247.44 316.396 246.56C316.956 245.68 317.663 245.053 318.516 244.68C319.37 244.28 320.223 244.08 321.076 244.08C323.13 244.08 324.636 244.827 325.596 246.32C326.556 247.787 327.036 249.88 327.036 252.6V261.32C327.036 262.36 326.69 263.24 325.996 263.96C325.303 264.653 324.37 265 323.196 265C321.996 265 321.036 264.653 320.316 263.96C319.623 263.24 319.276 262.36 319.276 261.32V254.24C319.276 253.28 319.09 252.533 318.716 252C318.37 251.467 317.85 251.2 317.156 251.2C316.356 251.2 315.77 251.493 315.396 252.08C315.05 252.667 314.876 253.413 314.876 254.32V261.32C314.876 262.36 314.543 263.24 313.876 263.96C313.21 264.653 312.29 265 311.116 265ZM338.431 273.24C336.805 273.24 335.418 273.067 334.271 272.72C333.151 272.373 332.071 271.84 331.031 271.12C330.125 270.48 329.485 269.587 329.111 268.44C328.738 267.293 328.925 266.133 329.671 264.96C330.151 264.24 330.685 263.747 331.271 263.48C331.885 263.213 332.471 263.107 333.031 263.16C333.618 263.187 334.125 263.307 334.551 263.52C335.485 263.973 336.205 264.307 336.711 264.52C337.245 264.707 337.845 264.8 338.511 264.8C339.498 264.8 340.325 264.453 340.991 263.76C341.685 263.067 342.031 262.093 342.031 260.84V257.6H341.311C341.125 259.013 340.578 260.133 339.671 260.96C338.791 261.76 337.578 262.16 336.031 262.16C334.858 262.16 333.711 261.867 332.591 261.28C331.471 260.693 330.551 259.76 329.831 258.48C329.111 257.2 328.751 255.507 328.751 253.4C328.751 250.307 329.431 248 330.791 246.48C332.151 244.96 333.911 244.2 336.071 244.2C337.565 244.2 338.845 244.707 339.911 245.72C340.978 246.707 341.511 248.093 341.511 249.88L341.631 249.84V247.6C341.631 246.667 341.925 245.853 342.511 245.16C343.125 244.44 344.071 244.08 345.351 244.08C346.711 244.08 347.685 244.44 348.271 245.16C348.885 245.853 349.191 246.667 349.191 247.6L349.231 260.2C349.258 262.973 348.911 265.333 348.191 267.28C347.498 269.227 346.351 270.707 344.751 271.72C343.178 272.733 341.071 273.24 338.431 273.24ZM335.471 252.72C335.471 254.16 336.431 254.88 338.351 254.88C339.605 254.88 340.485 254.707 340.991 254.36C341.498 254.013 341.751 253.467 341.751 252.72C341.751 251.947 341.485 251.413 340.951 251.12C340.445 250.827 339.565 250.68 338.311 250.68C337.405 250.68 336.698 250.827 336.191 251.12C335.711 251.413 335.471 251.947 335.471 252.72ZM365.167 265C363.967 265 362.847 264.867 361.807 264.6C360.794 264.333 359.967 263.827 359.327 263.08C358.687 262.333 358.367 261.227 358.367 259.76C358.367 258.533 358.647 257.507 359.207 256.68C359.767 255.853 360.461 255.147 361.287 254.56C362.114 253.973 362.914 253.44 363.687 252.96L369.887 249.08C370.901 248.44 371.567 247.907 371.887 247.48C372.207 247.053 372.367 246.587 372.367 246.08C372.367 245.627 372.221 245.24 371.927 244.92C371.661 244.6 371.021 244.44 370.007 244.44C369.021 244.44 367.981 244.547 366.887 244.76C365.794 244.973 364.741 245.08 363.727 245.08C362.261 245.08 361.061 244.733 360.127 244.04C359.221 243.32 358.767 242.267 358.767 240.88C358.767 239.547 359.247 238.507 360.207 237.76C361.167 236.987 362.461 236.44 364.087 236.12C365.741 235.8 367.581 235.64 369.607 235.64C372.887 235.64 375.421 236.253 377.207 237.48C379.021 238.707 379.927 240.613 379.927 243.2C379.927 244.987 379.407 246.507 378.367 247.76C377.354 249.013 375.941 250.24 374.127 251.44L366.727 256.32H375.887C377.381 256.32 378.554 256.693 379.407 257.44C380.287 258.16 380.727 259.24 380.727 260.68C380.727 262.12 380.287 263.2 379.407 263.92C378.554 264.64 377.381 265 375.887 265H365.167ZM394.611 265.12C391.944 265.12 389.771 264.52 388.091 263.32C386.411 262.12 385.171 260.413 384.371 258.2C383.598 255.987 383.211 253.387 383.211 250.4C383.211 247.413 383.624 244.827 384.451 242.64C385.304 240.427 386.571 238.707 388.251 237.48C389.931 236.253 392.051 235.64 394.611 235.64C397.171 235.64 399.291 236.253 400.971 237.48C402.678 238.707 403.944 240.427 404.771 242.64C405.624 244.827 406.051 247.413 406.051 250.4C406.051 253.387 405.651 255.987 404.851 258.2C404.078 260.413 402.851 262.12 401.171 263.32C399.491 264.52 397.304 265.12 394.611 265.12ZM387.691 249.84C387.691 250.667 387.864 251.453 388.211 252.2C388.584 252.92 389.264 253.507 390.251 253.96C391.264 254.387 392.718 254.6 394.611 254.6C396.531 254.6 397.984 254.387 398.971 253.96C399.984 253.507 400.664 252.92 401.011 252.2C401.384 251.453 401.571 250.667 401.571 249.84C401.571 248.987 401.384 248.227 401.011 247.56C400.664 246.867 399.984 246.32 398.971 245.92C397.984 245.493 396.531 245.28 394.611 245.28C392.718 245.28 391.264 245.493 390.251 245.92C389.264 246.32 388.584 246.867 388.211 247.56C387.864 248.227 387.691 248.987 387.691 249.84ZM414.855 265C413.655 265 412.535 264.867 411.495 264.6C410.481 264.333 409.655 263.827 409.015 263.08C408.375 262.333 408.055 261.227 408.055 259.76C408.055 258.533 408.335 257.507 408.895 256.68C409.455 255.853 410.148 255.147 410.975 254.56C411.801 253.973 412.601 253.44 413.375 252.96L419.575 249.08C420.588 248.44 421.255 247.907 421.575 247.48C421.895 247.053 422.055 246.587 422.055 246.08C422.055 245.627 421.908 245.24 421.615 244.92C421.348 244.6 420.708 244.44 419.695 244.44C418.708 244.44 417.668 244.547 416.575 244.76C415.481 244.973 414.428 245.08 413.415 245.08C411.948 245.08 410.748 244.733 409.815 244.04C408.908 243.32 408.455 242.267 408.455 240.88C408.455 239.547 408.935 238.507 409.895 237.76C410.855 236.987 412.148 236.44 413.775 236.12C415.428 235.8 417.268 235.64 419.295 235.64C422.575 235.64 425.108 236.253 426.895 237.48C428.708 238.707 429.615 240.613 429.615 243.2C429.615 244.987 429.095 246.507 428.055 247.76C427.041 249.013 425.628 250.24 423.815 251.44L416.415 256.32H425.575C427.068 256.32 428.241 256.693 429.095 257.44C429.975 258.16 430.415 259.24 430.415 260.68C430.415 262.12 429.975 263.2 429.095 263.92C428.241 264.64 427.068 265 425.575 265H414.855ZM438.538 248.76C438.538 248.76 439.072 248.613 440.138 248.32C441.232 248.027 442.672 247.88 444.458 247.88C446.378 247.88 448.098 248.08 449.618 248.48C451.165 248.853 452.392 249.587 453.298 250.68C454.205 251.773 454.658 253.36 454.658 255.44C454.658 258.373 453.845 260.707 452.218 262.44C450.592 264.147 447.978 265 444.378 265C441.978 265 439.898 264.56 438.138 263.68C436.405 262.8 435.058 261.387 434.098 259.44C433.165 257.467 432.698 254.867 432.698 251.64C432.698 248.467 433.138 245.68 434.018 243.28C434.898 240.88 436.245 239.013 438.058 237.68C439.872 236.32 442.178 235.64 444.978 235.64C448.072 235.64 450.325 236.08 451.738 236.96C453.178 237.813 453.898 239.027 453.898 240.6C453.898 241.853 453.565 242.853 452.898 243.6C452.258 244.347 451.405 244.72 450.338 244.72C449.432 244.72 448.472 244.6 447.458 244.36C446.445 244.12 445.392 244 444.298 244C442.965 244 441.872 244.24 441.018 244.72C440.165 245.2 439.538 245.8 439.138 246.52C438.738 247.24 438.538 247.987 438.538 248.76ZM438.978 253.64C438.978 254.387 439.338 254.92 440.058 255.24C440.805 255.56 442.192 255.72 444.218 255.72C446.272 255.72 447.645 255.56 448.338 255.24C449.058 254.92 449.418 254.387 449.418 253.64C449.418 252.92 449.058 252.413 448.338 252.12C447.645 251.827 446.272 251.68 444.218 251.68C442.192 251.68 440.805 251.827 440.058 252.12C439.338 252.413 438.978 252.92 438.978 253.64ZM21.44 323.08C20.2133 323.08 19.2133 322.707 18.44 321.96C17.6667 321.213 17.28 320.267 17.28 319.12V297.96C17.28 296.787 17.6533 295.8 18.4 295C19.1733 294.2 20.1867 293.8 21.44 293.8C22.7733 293.8 23.8133 294.2 24.56 295C25.3333 295.773 25.72 296.733 25.72 297.88V319.12C25.72 320.267 25.3067 321.213 24.48 321.96C23.68 322.707 22.6667 323.08 21.44 323.08ZM31.9756 323C30.8023 323 29.8556 322.653 29.1356 321.96C28.4423 321.24 28.0956 320.36 28.0956 319.32V306.08C28.0956 304.96 28.429 304.013 29.0956 303.24C29.7623 302.467 30.7223 302.08 31.9756 302.08C33.2023 302.08 34.1356 302.467 34.7756 303.24C35.4156 304.013 35.7356 304.987 35.7356 306.16V308.16H36.4556C36.4556 306.64 36.7223 305.44 37.2556 304.56C37.8156 303.68 38.5223 303.053 39.3756 302.68C40.229 302.28 41.0823 302.08 41.9356 302.08C43.989 302.08 45.4956 302.827 46.4556 304.32C47.4156 305.787 47.8956 307.88 47.8956 310.6V319.32C47.8956 320.36 47.549 321.24 46.8556 321.96C46.1623 322.653 45.229 323 44.0556 323C42.8556 323 41.8956 322.653 41.1756 321.96C40.4823 321.24 40.1356 320.36 40.1356 319.32V312.24C40.1356 311.28 39.949 310.533 39.5756 310C39.229 309.467 38.709 309.2 38.0156 309.2C37.2156 309.2 36.629 309.493 36.2556 310.08C35.909 310.667 35.7356 311.413 35.7356 312.32V319.32C35.7356 320.36 35.4023 321.24 34.7356 321.96C34.069 322.653 33.149 323 31.9756 323ZM60.7894 323.12C59.376 323.12 58.096 322.8 56.9494 322.16C55.8294 321.52 54.9494 320.613 54.3094 319.44C53.6694 318.24 53.3494 316.84 53.3494 315.24V308.2L51.8694 308.4C51.0694 308.507 50.3627 308.227 49.7494 307.56C49.136 306.893 48.8294 306.053 48.8294 305.04C48.8294 304.027 49.136 303.2 49.7494 302.56C50.3627 301.893 51.0694 301.613 51.8694 301.72L53.3494 301.92L53.3094 299.2C53.2827 298.133 53.5894 297.293 54.2294 296.68C54.8694 296.04 55.8027 295.72 57.0294 295.72C58.256 295.72 59.2027 296.04 59.8694 296.68C60.536 297.293 60.8427 298.133 60.7894 299.2L60.7094 301.92L62.8294 301.64C64.2694 301.427 65.3627 301.693 66.1094 302.44C66.856 303.16 67.2294 304.027 67.2294 305.04C67.2294 306.053 66.856 306.933 66.1094 307.68C65.3894 308.4 64.336 308.667 62.9494 308.48L60.7094 308.2V314.16C60.7094 314.507 60.8294 314.827 61.0694 315.12C61.3094 315.387 61.6027 315.467 61.9494 315.36C62.3494 315.253 62.7627 315.027 63.1894 314.68C63.6427 314.333 64.216 314.16 64.9094 314.16C65.9494 314.16 66.7494 314.533 67.3094 315.28C67.8694 316.027 68.1494 316.947 68.1494 318.04C68.1494 318.893 67.8427 319.72 67.2294 320.52C66.6427 321.293 65.8027 321.92 64.7094 322.4C63.616 322.88 62.3094 323.12 60.7894 323.12ZM68.8731 312.6C68.8731 310.493 69.2865 308.64 70.1131 307.04C70.9665 305.44 72.1665 304.187 73.7131 303.28C75.2865 302.373 77.1531 301.92 79.3131 301.92C80.9931 301.92 82.4998 302.227 83.8331 302.84C85.1931 303.453 86.2598 304.28 87.0331 305.32C87.8065 306.333 88.1931 307.453 88.1931 308.68C88.1931 309.96 87.8198 310.867 87.0731 311.4C86.3265 311.933 85.2198 312.2 83.7531 312.2H75.3531C75.3531 312.893 75.6198 313.467 76.1531 313.92C76.7131 314.373 77.6465 314.6 78.9531 314.6C79.6198 314.6 80.2331 314.533 80.7931 314.4C81.3798 314.267 81.9665 314.147 82.5531 314.04C83.1665 313.907 83.8465 313.84 84.5931 313.84C85.6598 313.84 86.5398 314.227 87.2331 315C87.9265 315.747 88.2731 316.787 88.2731 318.12C88.2731 319.693 87.4598 320.92 85.8331 321.8C84.2331 322.68 82.1265 323.12 79.5131 323.12C77.6731 323.12 75.9398 322.76 74.3131 322.04C72.7131 321.32 71.4065 320.187 70.3931 318.64C69.3798 317.067 68.8731 315.053 68.8731 312.6ZM81.8331 310.88C82.2331 310.88 82.3665 310.693 82.2331 310.32C82.1265 309.947 81.8065 309.56 81.2731 309.16C80.7398 308.76 79.9665 308.56 78.9531 308.56C77.7798 308.56 76.8998 308.813 76.3131 309.32C75.7531 309.827 75.4731 310.347 75.4731 310.88H81.8331ZM94.3994 323C93.146 323 92.1727 322.64 91.4794 321.92C90.786 321.2 90.4394 320.293 90.4394 319.2V306.08C90.4394 304.933 90.786 303.987 91.4794 303.24C92.1727 302.467 93.146 302.08 94.3994 302.08C95.6527 302.08 96.6127 302.467 97.2794 303.24C97.946 303.987 98.2794 304.907 98.2794 306V306.84H99.0394C99.146 305.427 99.6794 304.267 100.639 303.36C101.599 302.453 102.733 302 104.039 302C105.346 302 106.373 302.4 107.119 303.2C107.893 304 108.279 305.067 108.279 306.4C108.279 307.653 107.919 308.693 107.199 309.52C106.479 310.347 105.559 310.76 104.439 310.76C103.506 310.76 102.719 310.547 102.079 310.12C101.466 309.667 101.013 309.147 100.719 308.56C99.866 308.453 99.2394 308.547 98.8394 308.84C98.466 309.107 98.2794 309.653 98.2794 310.48V319.2C98.2794 320.293 97.946 321.2 97.2794 321.92C96.6127 322.64 95.6527 323 94.3994 323ZM114.445 323C112.472 323 110.925 322.467 109.805 321.4C108.712 320.333 108.165 318.84 108.165 316.92C108.165 315 108.805 313.613 110.085 312.76C111.365 311.88 113.005 311.44 115.005 311.44C116.179 311.44 117.245 311.52 118.205 311.68C119.165 311.84 120.032 312.067 120.805 312.36H120.925V311.76C120.925 311.147 120.699 310.667 120.245 310.32C119.792 309.947 119.219 309.773 118.525 309.8C117.859 309.8 117.285 309.84 116.805 309.92C116.352 310 115.779 310.133 115.085 310.32C113.805 310.64 112.699 310.613 111.765 310.24C110.832 309.867 110.192 309.133 109.845 308.04C109.525 306.893 109.592 305.933 110.045 305.16C110.525 304.387 111.245 303.787 112.205 303.36C113.032 302.96 113.952 302.627 114.965 302.36C116.005 302.093 117.125 301.96 118.325 301.96C121.819 301.96 124.379 302.813 126.005 304.52C127.659 306.2 128.485 309.027 128.485 313V319.2C128.485 320.293 128.152 321.2 127.485 321.92C126.819 322.64 125.899 323 124.725 323C123.445 323 122.485 322.64 121.845 321.92C121.232 321.2 120.925 320.32 120.925 319.28V318.36H120.125C120.125 319.053 119.992 319.76 119.725 320.48C119.485 321.2 118.965 321.8 118.165 322.28C117.392 322.76 116.152 323 114.445 323ZM114.845 314.24C114.845 314.693 115.005 315.013 115.325 315.2C115.672 315.387 116.405 315.48 117.525 315.48C118.539 315.48 119.245 315.387 119.645 315.2C120.045 315.013 120.245 314.693 120.245 314.24C120.245 313.813 120.045 313.52 119.645 313.36C119.245 313.173 118.539 313.08 117.525 313.08C116.405 313.08 115.672 313.173 115.325 313.36C115.005 313.52 114.845 313.813 114.845 314.24ZM140.446 323.12C138.366 323.12 136.526 322.693 134.926 321.84C133.326 320.96 132.073 319.72 131.166 318.12C130.259 316.52 129.806 314.64 129.806 312.48C129.806 310.32 130.259 308.44 131.166 306.84C132.073 305.24 133.326 304 134.926 303.12C136.553 302.24 138.419 301.8 140.526 301.8C142.179 301.8 143.633 301.973 144.886 302.32C146.166 302.667 147.166 303.187 147.886 303.88C148.633 304.573 149.006 305.44 149.006 306.48C149.006 307.733 148.686 308.72 148.046 309.44C147.406 310.133 146.486 310.48 145.286 310.48C144.486 310.48 143.686 310.36 142.886 310.12C142.113 309.88 141.113 309.76 139.886 309.76C138.873 309.76 138.019 309.92 137.326 310.24C136.633 310.56 136.286 311.147 136.286 312C136.286 312.88 136.633 313.52 137.326 313.92C138.019 314.293 138.873 314.48 139.886 314.48C140.713 314.48 141.406 314.4 141.966 314.24C142.526 314.08 143.059 313.92 143.566 313.76C144.073 313.6 144.646 313.52 145.286 313.52C146.646 313.52 147.646 313.92 148.286 314.72C148.953 315.493 149.286 316.493 149.286 317.72C149.286 318.76 148.899 319.693 148.126 320.52C147.353 321.32 146.299 321.96 144.966 322.44C143.633 322.893 142.126 323.12 140.446 323.12ZM162.078 323.12C160.665 323.12 159.385 322.8 158.238 322.16C157.118 321.52 156.238 320.613 155.598 319.44C154.958 318.24 154.638 316.84 154.638 315.24V308.2L153.158 308.4C152.358 308.507 151.652 308.227 151.038 307.56C150.425 306.893 150.118 306.053 150.118 305.04C150.118 304.027 150.425 303.2 151.038 302.56C151.652 301.893 152.358 301.613 153.158 301.72L154.638 301.92L154.598 299.2C154.572 298.133 154.878 297.293 155.518 296.68C156.158 296.04 157.092 295.72 158.318 295.72C159.545 295.72 160.492 296.04 161.158 296.68C161.825 297.293 162.132 298.133 162.078 299.2L161.998 301.92L164.118 301.64C165.558 301.427 166.652 301.693 167.398 302.44C168.145 303.16 168.518 304.027 168.518 305.04C168.518 306.053 168.145 306.933 167.398 307.68C166.678 308.4 165.625 308.667 164.238 308.48L161.998 308.2V314.16C161.998 314.507 162.118 314.827 162.358 315.12C162.598 315.387 162.892 315.467 163.238 315.36C163.638 315.253 164.052 315.027 164.478 314.68C164.932 314.333 165.505 314.16 166.198 314.16C167.238 314.16 168.038 314.533 168.598 315.28C169.158 316.027 169.438 316.947 169.438 318.04C169.438 318.893 169.132 319.72 168.518 320.52C167.932 321.293 167.092 321.92 165.998 322.4C164.905 322.88 163.598 323.12 162.078 323.12ZM170.67 297.44C170.67 296.293 171.017 295.373 171.71 294.68C172.43 293.96 173.417 293.6 174.67 293.6C176.003 293.6 176.99 293.947 177.63 294.64C178.297 295.333 178.63 296.253 178.63 297.4C178.63 298.52 178.297 299.427 177.63 300.12C176.99 300.787 176.003 301.12 174.67 301.12C173.363 301.12 172.363 300.787 171.67 300.12C171.003 299.427 170.67 298.533 170.67 297.44ZM174.67 323C173.417 323 172.483 322.653 171.87 321.96C171.257 321.267 170.95 320.4 170.95 319.36V305.68C170.95 304.533 171.257 303.627 171.87 302.96C172.483 302.293 173.417 301.96 174.67 301.96C175.923 301.96 176.857 302.293 177.47 302.96C178.11 303.627 178.43 304.507 178.43 305.6V319.36C178.43 320.4 178.097 321.267 177.43 321.96C176.79 322.653 175.87 323 174.67 323ZM191.035 323C189.301 323 187.821 322.493 186.595 321.48C185.368 320.467 184.355 318.787 183.555 316.44L180.395 307.32C179.968 306.12 179.968 305.013 180.395 304C180.848 302.987 181.675 302.347 182.875 302.08C183.941 301.84 184.875 301.947 185.675 302.4C186.501 302.853 187.088 303.613 187.435 304.68L190.555 313.84C190.928 314.907 191.381 315.693 191.915 316.2C192.475 316.707 193.155 316.827 193.955 316.56C194.701 316.267 195.101 315.787 195.155 315.12C195.235 314.427 195.088 313.627 194.715 312.72C194.395 311.893 193.968 311.187 193.435 310.6C192.901 310.013 192.421 309.4 191.995 308.76C191.568 308.12 191.355 307.32 191.355 306.36C191.355 304.973 191.795 303.893 192.675 303.12C193.581 302.32 194.768 301.947 196.235 302C197.488 302.027 198.515 302.467 199.315 303.32C200.115 304.173 200.515 305.253 200.515 306.56C200.515 307.28 200.395 308.053 200.155 308.88C199.915 309.707 199.648 310.573 199.355 311.48L197.755 316.52C197.328 317.853 196.848 319.013 196.315 320C195.808 320.96 195.141 321.707 194.315 322.24C193.515 322.747 192.421 323 191.035 323ZM201.178 312.6C201.178 310.493 201.591 308.64 202.418 307.04C203.271 305.44 204.471 304.187 206.018 303.28C207.591 302.373 209.458 301.92 211.618 301.92C213.298 301.92 214.804 302.227 216.138 302.84C217.498 303.453 218.564 304.28 219.338 305.32C220.111 306.333 220.498 307.453 220.498 308.68C220.498 309.96 220.124 310.867 219.378 311.4C218.631 311.933 217.524 312.2 216.058 312.2H207.658C207.658 312.893 207.924 313.467 208.458 313.92C209.018 314.373 209.951 314.6 211.258 314.6C211.924 314.6 212.538 314.533 213.098 314.4C213.684 314.267 214.271 314.147 214.858 314.04C215.471 313.907 216.151 313.84 216.898 313.84C217.964 313.84 218.844 314.227 219.538 315C220.231 315.747 220.578 316.787 220.578 318.12C220.578 319.693 219.764 320.92 218.138 321.8C216.538 322.68 214.431 323.12 211.818 323.12C209.978 323.12 208.244 322.76 206.618 322.04C205.018 321.32 203.711 320.187 202.698 318.64C201.684 317.067 201.178 315.053 201.178 312.6ZM214.138 310.88C214.538 310.88 214.671 310.693 214.538 310.32C214.431 309.947 214.111 309.56 213.578 309.16C213.044 308.76 212.271 308.56 211.258 308.56C210.084 308.56 209.204 308.813 208.618 309.32C208.058 309.827 207.778 310.347 207.778 310.88H214.138ZM233.86 323C232.473 323 231.447 322.587 230.78 321.76C230.113 320.933 229.78 319.827 229.78 318.44V299.8C229.78 297.773 230.327 296.28 231.42 295.32C232.54 294.36 233.873 293.88 235.42 293.88C236.887 293.88 238.127 294.36 239.14 295.32C240.18 296.28 240.94 297.8 241.42 299.88L244.54 313.44H245.58L248.7 299.88C249.18 297.8 249.94 296.28 250.98 295.32C252.047 294.36 253.313 293.88 254.78 293.88C256.327 293.88 257.647 294.36 258.74 295.32C259.86 296.28 260.42 297.773 260.42 299.8V318.44C260.42 319.827 260.073 320.933 259.38 321.76C258.713 322.587 257.687 323 256.3 323C254.967 323 253.94 322.587 253.22 321.76C252.5 320.933 252.14 319.827 252.14 318.44V307.68C252.14 307.413 252.1 307.173 252.02 306.96C251.967 306.72 251.793 306.6 251.5 306.6C251.26 306.6 251.087 306.72 250.98 306.96C250.873 307.173 250.793 307.413 250.74 307.68L249.22 317.76C249.033 318.853 248.807 319.8 248.54 320.6C248.3 321.373 247.913 321.973 247.38 322.4C246.847 322.8 246.073 323 245.06 323C244.073 323 243.3 322.8 242.74 322.4C242.207 321.973 241.807 321.373 241.54 320.6C241.3 319.8 241.1 318.853 240.94 317.76L239.38 307.68C239.353 307.413 239.287 307.173 239.18 306.96C239.073 306.72 238.887 306.6 238.62 306.6C238.353 306.6 238.18 306.72 238.1 306.96C238.02 307.173 237.98 307.413 237.98 307.68V318.44C237.98 319.827 237.62 320.933 236.9 321.76C236.207 322.587 235.193 323 233.86 323ZM262.623 312.6C262.623 310.493 263.036 308.64 263.863 307.04C264.716 305.44 265.916 304.187 267.463 303.28C269.036 302.373 270.903 301.92 273.063 301.92C274.743 301.92 276.25 302.227 277.583 302.84C278.943 303.453 280.01 304.28 280.783 305.32C281.556 306.333 281.943 307.453 281.943 308.68C281.943 309.96 281.57 310.867 280.823 311.4C280.076 311.933 278.97 312.2 277.503 312.2H269.103C269.103 312.893 269.37 313.467 269.903 313.92C270.463 314.373 271.396 314.6 272.703 314.6C273.37 314.6 273.983 314.533 274.543 314.4C275.13 314.267 275.716 314.147 276.303 314.04C276.916 313.907 277.596 313.84 278.343 313.84C279.41 313.84 280.29 314.227 280.983 315C281.676 315.747 282.023 316.787 282.023 318.12C282.023 319.693 281.21 320.92 279.583 321.8C277.983 322.68 275.876 323.12 273.263 323.12C271.423 323.12 269.69 322.76 268.063 322.04C266.463 321.32 265.156 320.187 264.143 318.64C263.13 317.067 262.623 315.053 262.623 312.6ZM275.583 310.88C275.983 310.88 276.116 310.693 275.983 310.32C275.876 309.947 275.556 309.56 275.023 309.16C274.49 308.76 273.716 308.56 272.703 308.56C271.53 308.56 270.65 308.813 270.063 309.32C269.503 309.827 269.223 310.347 269.223 310.88H275.583ZM290.958 323C286.104 323 283.678 319.427 283.678 312.28C283.678 309.187 284.278 306.72 285.478 304.88C286.678 303.013 288.478 302.08 290.878 302.08C292.184 302.08 293.238 302.347 294.038 302.88C294.864 303.413 295.504 304.147 295.958 305.08C296.438 305.987 296.784 307.04 296.998 308.24L297.118 308.2V296.08C297.118 294.987 297.438 294.067 298.078 293.32C298.744 292.547 299.704 292.16 300.958 292.16C302.184 292.16 303.091 292.547 303.678 293.32C304.291 294.067 304.598 295.013 304.598 296.16V314.16C304.598 315.067 304.664 315.907 304.798 316.68C304.958 317.427 305.078 318.173 305.158 318.92C305.238 319.933 305.024 320.813 304.518 321.56C304.038 322.28 303.171 322.747 301.918 322.96C300.291 323.227 299.078 322.947 298.278 322.12C297.504 321.293 297.118 320.067 297.118 318.44V316.96H296.358C296.358 318.907 295.864 320.4 294.878 321.44C293.918 322.48 292.611 323 290.958 323ZM290.358 311.92C290.358 312.747 290.611 313.36 291.118 313.76C291.624 314.16 292.531 314.36 293.838 314.36C295.171 314.36 296.091 314.16 296.598 313.76C297.104 313.36 297.358 312.747 297.358 311.92C297.358 311.067 297.104 310.453 296.598 310.08C296.118 309.68 295.211 309.48 293.878 309.48C292.544 309.48 291.624 309.68 291.118 310.08C290.611 310.453 290.358 311.067 290.358 311.92ZM306.92 297.44C306.92 296.293 307.267 295.373 307.96 294.68C308.68 293.96 309.667 293.6 310.92 293.6C312.253 293.6 313.24 293.947 313.88 294.64C314.547 295.333 314.88 296.253 314.88 297.4C314.88 298.52 314.547 299.427 313.88 300.12C313.24 300.787 312.253 301.12 310.92 301.12C309.613 301.12 308.613 300.787 307.92 300.12C307.253 299.427 306.92 298.533 306.92 297.44ZM310.92 323C309.667 323 308.733 322.653 308.12 321.96C307.507 321.267 307.2 320.4 307.2 319.36V305.68C307.2 304.533 307.507 303.627 308.12 302.96C308.733 302.293 309.667 301.96 310.92 301.96C312.173 301.96 313.107 302.293 313.72 302.96C314.36 303.627 314.68 304.507 314.68 305.6V319.36C314.68 320.4 314.347 321.267 313.68 321.96C313.04 322.653 312.12 323 310.92 323ZM322.805 323C320.831 323 319.285 322.467 318.165 321.4C317.071 320.333 316.525 318.84 316.525 316.92C316.525 315 317.165 313.613 318.445 312.76C319.725 311.88 321.365 311.44 323.365 311.44C324.538 311.44 325.605 311.52 326.565 311.68C327.525 311.84 328.391 312.067 329.165 312.36H329.285V311.76C329.285 311.147 329.058 310.667 328.605 310.32C328.151 309.947 327.578 309.773 326.885 309.8C326.218 309.8 325.645 309.84 325.165 309.92C324.711 310 324.138 310.133 323.445 310.32C322.165 310.64 321.058 310.613 320.125 310.24C319.191 309.867 318.551 309.133 318.205 308.04C317.885 306.893 317.951 305.933 318.405 305.16C318.885 304.387 319.605 303.787 320.565 303.36C321.391 302.96 322.311 302.627 323.325 302.36C324.365 302.093 325.485 301.96 326.685 301.96C330.178 301.96 332.738 302.813 334.365 304.52C336.018 306.2 336.845 309.027 336.845 313V319.2C336.845 320.293 336.511 321.2 335.845 321.92C335.178 322.64 334.258 323 333.085 323C331.805 323 330.845 322.64 330.205 321.92C329.591 321.2 329.285 320.32 329.285 319.28V318.36H328.485C328.485 319.053 328.351 319.76 328.085 320.48C327.845 321.2 327.325 321.8 326.525 322.28C325.751 322.76 324.511 323 322.805 323ZM323.205 314.24C323.205 314.693 323.365 315.013 323.685 315.2C324.031 315.387 324.765 315.48 325.885 315.48C326.898 315.48 327.605 315.387 328.005 315.2C328.405 315.013 328.605 314.693 328.605 314.24C328.605 313.813 328.405 313.52 328.005 313.36C327.605 313.173 326.898 313.08 325.885 313.08C324.765 313.08 324.031 313.173 323.685 313.36C323.365 313.52 323.205 313.813 323.205 314.24ZM350.463 323.08C349.237 323.08 348.237 322.707 347.463 321.96C346.69 321.213 346.303 320.267 346.303 319.12V297.96C346.303 296.787 346.677 295.8 347.423 295C348.197 294.2 349.21 293.8 350.463 293.8C351.797 293.8 352.837 294.2 353.583 295C354.357 295.773 354.743 296.733 354.743 297.88V319.12C354.743 320.267 354.33 321.213 353.503 321.96C352.703 322.707 351.69 323.08 350.463 323.08ZM361.479 323.08C360.252 323.08 359.252 322.707 358.479 321.96C357.706 321.213 357.319 320.267 357.319 319.12V297.96C357.319 296.787 357.692 295.8 358.439 295C359.212 294.2 360.226 293.8 361.479 293.8C362.812 293.8 363.852 294.2 364.599 295C365.372 295.773 365.759 296.733 365.759 297.88V319.12C365.759 320.267 365.346 321.213 364.519 321.96C363.719 322.707 362.706 323.08 361.479 323.08ZM372.495 323.08C371.268 323.08 370.268 322.707 369.495 321.96C368.721 321.213 368.335 320.267 368.335 319.12V297.96C368.335 296.787 368.708 295.8 369.455 295C370.228 294.2 371.241 293.8 372.495 293.8C373.828 293.8 374.868 294.2 375.615 295C376.388 295.773 376.775 296.733 376.775 297.88V319.12C376.775 320.267 376.361 321.213 375.535 321.96C374.735 322.707 373.721 323.08 372.495 323.08Z" fill="#D55C10"/>
<path d="M30.72 233.88C33.8933 233.88 36.48 234.48 38.48 235.68C40.5067 236.853 42 238.533 42.96 240.72C43.9467 242.88 44.44 245.453 44.44 248.44C44.44 253.453 43.36 257.133 41.2 259.48C39.04 261.827 35.7333 263 31.28 263H29.52C28.2133 263 27 262.867 25.88 262.6C24.76 262.333 23.7733 261.853 22.92 261.16C22.0667 260.44 21.4 259.44 20.92 258.16C20.44 256.88 20.2 255.227 20.2 253.2C20.2 251.307 20.4533 249.667 20.96 248.28C21.4933 246.893 22.12 245.787 22.84 244.96C23.56 244.133 24.2133 243.627 24.8 243.44L24.6 242.68H23.92C22.6933 242.68 21.72 242.293 21 241.52C20.3067 240.72 19.9467 239.653 19.92 238.32C19.8933 236.987 20.24 235.92 20.96 235.12C21.7067 234.293 22.6933 233.88 23.92 233.88H30.72ZM27.84 252.68C27.84 253.24 27.96 253.627 28.2 253.84C28.4667 254.053 28.8533 254.16 29.36 254.16H31.52C32.88 254.16 33.9333 253.867 34.68 253.28C35.4267 252.693 35.9467 251.947 36.24 251.04C36.56 250.107 36.72 249.12 36.72 248.08C36.72 247.04 36.56 246.04 36.24 245.08C35.9467 244.12 35.4267 243.333 34.68 242.72C33.9333 242.107 32.88 241.8 31.52 241.8H29.36C28.8533 241.8 28.4667 241.92 28.2 242.16C27.96 242.373 27.84 242.773 27.84 243.36V252.68ZM56.4853 262.92C55.1786 262.92 53.9253 262.8 52.7253 262.56C51.552 262.32 50.512 261.867 49.6053 261.2C48.7253 260.507 48.0186 259.52 47.4853 258.24C46.9786 256.933 46.7253 255.227 46.7253 253.12C46.7253 251.227 46.9786 249.6 47.4853 248.24C47.992 246.88 48.592 245.8 49.2853 245C50.0053 244.2 50.6586 243.707 51.2453 243.52L51.0453 242.76H50.3653C49.1386 242.76 48.1653 242.373 47.4453 241.6C46.752 240.8 46.392 239.72 46.3653 238.36C46.3386 237.027 46.6853 235.96 47.4053 235.16C48.152 234.36 49.1386 233.96 50.3653 233.96H64.7253C67.5786 233.96 69.0053 235.293 69.0053 237.96C69.0053 239.16 68.6586 240.12 67.9653 240.84C67.272 241.56 66.192 241.92 64.7253 241.92H56.4453C55.4586 241.92 54.9653 242.493 54.9653 243.64V246.64C56.2986 246.347 57.6853 246 59.1253 245.6C60.592 245.2 61.9786 245 63.2853 245C64.5386 245 65.472 245.28 66.0853 245.84C66.7253 246.373 67.0453 247.107 67.0453 248.04C67.0453 249 66.7253 249.76 66.0853 250.32C65.472 250.853 64.5386 251.133 63.2853 251.16C61.9786 251.187 60.592 251 59.1253 250.6C57.6586 250.2 56.2586 249.853 54.9253 249.56V254.8C54.9253 255.307 55.0586 255.667 55.3253 255.88C55.6186 256.067 56.072 255.987 56.6853 255.64C58.0186 254.867 59.3253 254.253 60.6053 253.8C61.8853 253.32 63.1386 253.08 64.3653 253.08C66.0986 253.08 67.4053 253.533 68.2853 254.44C69.192 255.347 69.6453 256.533 69.6453 258C69.6453 259.573 69.1653 260.787 68.2053 261.64C67.272 262.493 65.752 262.92 63.6453 262.92H56.4853ZM83.6156 263.12C82.1223 263.12 80.6156 262.973 79.0956 262.68C77.6023 262.36 76.2156 261.907 74.9356 261.32C73.6823 260.707 72.669 259.973 71.8956 259.12C71.1223 258.24 70.7356 257.227 70.7356 256.08C70.7356 254.613 71.2023 253.44 72.1356 252.56C73.069 251.68 74.1623 251.267 75.4156 251.32C76.4023 251.347 77.389 251.56 78.3756 251.96C79.3623 252.333 80.3623 252.707 81.3756 253.08C82.4156 253.453 83.4556 253.64 84.4956 253.64C85.5356 253.64 86.2556 253.507 86.6556 253.24C87.0556 252.973 87.2556 252.613 87.2556 252.16C87.2556 251.627 86.9756 251.187 86.4156 250.84C85.8556 250.493 85.149 250.227 84.2956 250.04L82.3356 249.56C80.309 249.08 78.4956 248.547 76.8956 247.96C75.2956 247.347 74.029 246.547 73.0956 245.56C72.189 244.547 71.7356 243.2 71.7356 241.52C71.7356 239.68 72.2423 238.187 73.2556 237.04C74.269 235.867 75.6423 235.013 77.3756 234.48C79.109 233.947 81.0423 233.68 83.1756 233.68C85.3623 233.68 87.2823 233.907 88.9356 234.36C90.589 234.813 91.869 235.467 92.7756 236.32C93.709 237.173 94.1756 238.213 94.1756 239.44C94.1756 240.747 93.8156 241.773 93.0956 242.52C92.4023 243.24 91.469 243.6 90.2956 243.6C89.5223 243.6 88.709 243.467 87.8556 243.2C87.029 242.933 86.149 242.68 85.2156 242.44C84.309 242.173 83.3356 242.04 82.2956 242.04C81.3623 242.04 80.6556 242.187 80.1756 242.48C79.6956 242.747 79.4556 243.107 79.4556 243.56C79.4556 244.12 79.7756 244.533 80.4156 244.8C81.0556 245.067 82.109 245.387 83.5756 245.76L85.8156 246.28C87.6556 246.733 89.269 247.28 90.6556 247.92C92.0423 248.56 93.1223 249.4 93.8956 250.44C94.669 251.48 95.0556 252.84 95.0556 254.52C95.0556 256.547 94.5756 258.2 93.6156 259.48C92.6556 260.733 91.3223 261.653 89.6156 262.24C87.909 262.827 85.909 263.12 83.6156 263.12ZM115.745 263.08C114.439 263.08 113.425 262.68 112.705 261.88C111.985 261.08 111.625 260.093 111.625 258.92V244.6H110.825C110.639 245.213 110.239 245.76 109.625 246.24C109.012 246.72 108.239 246.96 107.305 246.96C106.292 246.96 105.399 246.627 104.625 245.96C103.879 245.267 103.505 244.307 103.505 243.08C103.505 242.147 103.719 241.36 104.145 240.72C104.572 240.08 105.119 239.453 105.785 238.84L108.705 236.24C109.719 235.333 110.665 234.68 111.545 234.28C112.425 233.853 113.439 233.64 114.585 233.64C115.519 233.64 116.385 233.84 117.185 234.24C117.985 234.64 118.625 235.267 119.105 236.12C119.612 236.947 119.865 238.04 119.865 239.4V258.92C119.865 260.093 119.519 261.08 118.825 261.88C118.132 262.68 117.105 263.08 115.745 263.08ZM136.736 245.64C138.336 245.64 139.75 245.88 140.976 246.36C142.23 246.84 143.203 247.667 143.896 248.84C144.616 249.987 144.976 251.613 144.976 253.72C144.976 255.56 144.643 257.093 143.976 258.32C143.336 259.52 142.456 260.467 141.336 261.16C140.243 261.827 139.003 262.307 137.616 262.6C136.23 262.867 134.79 263 133.296 263C129.91 263 127.283 262.587 125.416 261.76C123.55 260.907 122.616 259.453 122.616 257.4C122.616 255.96 123.096 254.853 124.056 254.08C125.016 253.28 126.256 252.973 127.776 253.16C128.95 253.293 130.23 253.44 131.616 253.6C133.003 253.76 134.47 253.827 136.016 253.8C137.056 253.8 137.803 253.64 138.256 253.32C138.736 252.973 138.976 252.48 138.976 251.84C138.976 251.067 138.736 250.48 138.256 250.08C137.803 249.653 137.056 249.44 136.016 249.44H127.976C126.536 249.44 125.43 249.173 124.656 248.64C123.883 248.107 123.496 247.147 123.496 245.76V239.16C123.496 237.773 123.71 236.707 124.136 235.96C124.59 235.213 125.203 234.693 125.976 234.4C126.776 234.107 127.683 233.96 128.696 233.96H139.536C141.27 233.96 142.483 234.347 143.176 235.12C143.87 235.893 144.216 236.907 144.216 238.16C144.216 239.413 143.87 240.453 143.176 241.28C142.483 242.08 141.27 242.48 139.536 242.48C138.15 242.48 136.763 242.173 135.376 241.56C134.016 240.947 132.87 240.107 131.936 239.04H131.136V245.64H136.736ZM163.152 239.96C162.406 240.413 161.486 240.92 160.392 241.48C159.326 242.013 158.059 242.48 156.592 242.88C155.126 243.28 153.432 243.48 151.512 243.48C149.912 243.48 148.712 243.04 147.912 242.16C147.112 241.253 146.712 240.12 146.712 238.76C146.712 237.373 147.112 236.227 147.912 235.32C148.712 234.413 149.912 233.96 151.512 233.96H163.272C165.246 233.96 166.752 234.427 167.792 235.36C168.859 236.293 169.392 237.733 169.392 239.68C169.392 240.667 169.232 241.533 168.912 242.28C168.592 243.027 168.166 243.733 167.632 244.4C167.099 245.067 166.526 245.76 165.912 246.48C165.326 247.2 164.752 248 164.192 248.88C163.366 250.187 162.699 251.707 162.192 253.44C161.686 255.173 161.326 256.973 161.112 258.84C160.952 260.253 160.499 261.333 159.752 262.08C159.032 262.8 157.966 263.173 156.552 263.2C155.112 263.227 153.939 262.827 153.032 262C152.126 261.173 151.686 260.013 151.712 258.52C151.766 255.933 152.166 253.56 152.912 251.4C153.686 249.24 154.726 247.493 156.032 246.16C156.806 245.36 157.632 244.64 158.512 244C159.419 243.36 160.272 242.813 161.072 242.36C161.872 241.88 162.526 241.52 163.032 241.28C163.539 241.04 163.792 240.92 163.792 240.92L163.152 239.96ZM180.014 262.96C178.787 262.907 177.64 262.733 176.574 262.44C175.534 262.147 174.614 261.653 173.814 260.96C173.014 260.24 172.387 259.253 171.934 258C171.507 256.747 171.294 255.147 171.294 253.2C171.294 251.307 171.547 249.667 172.054 248.28C172.587 246.893 173.214 245.787 173.934 244.96C174.654 244.133 175.307 243.627 175.894 243.44L175.694 242.68H175.014C173.787 242.68 172.814 242.293 172.094 241.52C171.4 240.72 171.04 239.653 171.014 238.32C170.987 236.987 171.334 235.92 172.054 235.12C172.8 234.293 173.787 233.88 175.014 233.88H186.014C188.894 233.88 190.974 234.573 192.254 235.96C193.534 237.32 194.174 239.093 194.174 241.28C194.174 243.04 193.76 244.507 192.934 245.68C192.134 246.853 190.92 247.56 189.294 247.8V248.4C191.054 248.48 192.48 249.093 193.574 250.24C194.694 251.36 195.254 253.027 195.254 255.24C195.254 257.64 194.56 259.547 193.174 260.96C191.787 262.347 189.507 263.027 186.334 263L180.014 262.96ZM178.934 245C178.934 245.587 179.04 245.973 179.254 246.16C179.467 246.347 179.867 246.44 180.454 246.44H184.134C185.147 246.44 185.92 246.293 186.454 246C186.987 245.68 187.254 245.067 187.254 244.16C187.254 243.227 186.987 242.613 186.454 242.32C185.92 242.027 185.147 241.88 184.134 241.88H180.454C179.867 241.88 179.467 241.96 179.254 242.12C179.04 242.28 178.934 242.667 178.934 243.28V245ZM178.934 253.04C178.934 253.627 179.04 254.027 179.254 254.24C179.494 254.453 179.92 254.56 180.534 254.56H184.654C185.694 254.56 186.494 254.373 187.054 254C187.614 253.627 187.894 252.96 187.894 252C187.894 251.04 187.614 250.387 187.054 250.04C186.494 249.667 185.694 249.48 184.654 249.48H180.534C179.92 249.48 179.494 249.573 179.254 249.76C179.04 249.947 178.934 250.333 178.934 250.92V253.04ZM208.903 252.16C207.943 252.16 207.117 251.827 206.423 251.16C205.73 250.467 205.383 249.547 205.383 248.4C205.383 247.307 205.73 246.427 206.423 245.76C207.117 245.093 207.957 244.76 208.943 244.76H218.143C219.157 244.76 219.983 245.107 220.623 245.8C221.263 246.467 221.583 247.333 221.583 248.4C221.583 249.467 221.263 250.36 220.623 251.08C219.983 251.8 219.157 252.16 218.143 252.16H208.903ZM244.709 263.12C243.216 263.12 241.709 262.973 240.189 262.68C238.696 262.36 237.309 261.907 236.029 261.32C234.776 260.707 233.763 259.973 232.989 259.12C232.216 258.24 231.829 257.227 231.829 256.08C231.829 254.613 232.296 253.44 233.229 252.56C234.163 251.68 235.256 251.267 236.509 251.32C237.496 251.347 238.483 251.56 239.469 251.96C240.456 252.333 241.456 252.707 242.469 253.08C243.509 253.453 244.549 253.64 245.589 253.64C246.629 253.64 247.349 253.507 247.749 253.24C248.149 252.973 248.349 252.613 248.349 252.16C248.349 251.627 248.069 251.187 247.509 250.84C246.949 250.493 246.243 250.227 245.389 250.04L243.429 249.56C241.403 249.08 239.589 248.547 237.989 247.96C236.389 247.347 235.123 246.547 234.189 245.56C233.283 244.547 232.829 243.2 232.829 241.52C232.829 239.68 233.336 238.187 234.349 237.04C235.363 235.867 236.736 235.013 238.469 234.48C240.203 233.947 242.136 233.68 244.269 233.68C246.456 233.68 248.376 233.907 250.029 234.36C251.683 234.813 252.963 235.467 253.869 236.32C254.803 237.173 255.269 238.213 255.269 239.44C255.269 240.747 254.909 241.773 254.189 242.52C253.496 243.24 252.563 243.6 251.389 243.6C250.616 243.6 249.803 243.467 248.949 243.2C248.123 242.933 247.243 242.68 246.309 242.44C245.403 242.173 244.429 242.04 243.389 242.04C242.456 242.04 241.749 242.187 241.269 242.48C240.789 242.747 240.549 243.107 240.549 243.56C240.549 244.12 240.869 244.533 241.509 244.8C242.149 245.067 243.203 245.387 244.669 245.76L246.909 246.28C248.749 246.733 250.363 247.28 251.749 247.92C253.136 248.56 254.216 249.4 254.989 250.44C255.763 251.48 256.149 252.84 256.149 254.52C256.149 256.547 255.669 258.2 254.709 259.48C253.749 260.733 252.416 261.653 250.709 262.24C249.003 262.827 247.003 263.12 244.709 263.12ZM271.857 263C270.391 263 269.164 262.547 268.177 261.64C267.217 260.733 266.604 259.56 266.337 258.12H265.617V267.32C265.617 268.413 265.311 269.333 264.697 270.08C264.084 270.853 263.151 271.24 261.897 271.24C260.697 271.24 259.764 270.853 259.097 270.08C258.457 269.333 258.137 268.387 258.137 267.24V252.28C258.137 250.947 258.084 249.827 257.977 248.92C257.897 247.987 257.817 247.147 257.737 246.4C257.631 245.28 257.857 244.333 258.417 243.56C258.977 242.76 259.884 242.28 261.137 242.12C262.764 241.907 263.911 242.2 264.577 243C265.271 243.773 265.617 244.987 265.617 246.64V248.56L265.777 248.6C265.911 247.56 266.217 246.547 266.697 245.56C267.204 244.547 267.911 243.72 268.817 243.08C269.724 242.413 270.871 242.08 272.257 242.08C274.577 242.08 276.297 243.013 277.417 244.88C278.564 246.72 279.137 249.187 279.137 252.28C279.137 259.427 276.711 263 271.857 263ZM265.457 252.2C265.457 252.627 265.511 252.96 265.617 253.2C265.777 253.707 266.111 254.08 266.617 254.32C267.151 254.533 267.937 254.64 268.977 254.64C270.311 254.64 271.217 254.44 271.697 254.04C272.204 253.64 272.457 253.027 272.457 252.2C272.457 251.347 272.217 250.733 271.737 250.36C271.257 249.96 270.351 249.76 269.017 249.76C267.951 249.76 267.151 249.88 266.617 250.12C266.111 250.333 265.777 250.693 265.617 251.2C265.511 251.44 265.457 251.773 265.457 252.2ZM285.095 263C283.841 263 282.868 262.64 282.175 261.92C281.481 261.2 281.135 260.293 281.135 259.2V246.08C281.135 244.933 281.481 243.987 282.175 243.24C282.868 242.467 283.841 242.08 285.095 242.08C286.348 242.08 287.308 242.467 287.975 243.24C288.641 243.987 288.975 244.907 288.975 246V246.84H289.735C289.841 245.427 290.375 244.267 291.335 243.36C292.295 242.453 293.428 242 294.735 242C296.041 242 297.068 242.4 297.815 243.2C298.588 244 298.975 245.067 298.975 246.4C298.975 247.653 298.615 248.693 297.895 249.52C297.175 250.347 296.255 250.76 295.135 250.76C294.201 250.76 293.415 250.547 292.775 250.12C292.161 249.667 291.708 249.147 291.415 248.56C290.561 248.453 289.935 248.547 289.535 248.84C289.161 249.107 288.975 249.653 288.975 250.48V259.2C288.975 260.293 288.641 261.2 287.975 261.92C287.308 262.64 286.348 263 285.095 263ZM300.272 237.44C300.272 236.293 300.618 235.373 301.312 234.68C302.032 233.96 303.018 233.6 304.272 233.6C305.605 233.6 306.592 233.947 307.232 234.64C307.898 235.333 308.232 236.253 308.232 237.4C308.232 238.52 307.898 239.427 307.232 240.12C306.592 240.787 305.605 241.12 304.272 241.12C302.965 241.12 301.965 240.787 301.272 240.12C300.605 239.427 300.272 238.533 300.272 237.44ZM304.272 263C303.018 263 302.085 262.653 301.472 261.96C300.858 261.267 300.552 260.4 300.552 259.36V245.68C300.552 244.533 300.858 243.627 301.472 242.96C302.085 242.293 303.018 241.96 304.272 241.96C305.525 241.96 306.458 242.293 307.072 242.96C307.712 243.627 308.032 244.507 308.032 245.6V259.36C308.032 260.4 307.698 261.267 307.032 261.96C306.392 262.653 305.472 263 304.272 263ZM314.116 263C312.943 263 311.996 262.653 311.276 261.96C310.583 261.24 310.236 260.36 310.236 259.32V246.08C310.236 244.96 310.57 244.013 311.236 243.24C311.903 242.467 312.863 242.08 314.116 242.08C315.343 242.08 316.276 242.467 316.916 243.24C317.556 244.013 317.876 244.987 317.876 246.16V248.16H318.596C318.596 246.64 318.863 245.44 319.396 244.56C319.956 243.68 320.663 243.053 321.516 242.68C322.37 242.28 323.223 242.08 324.076 242.08C326.13 242.08 327.636 242.827 328.596 244.32C329.556 245.787 330.036 247.88 330.036 250.6V259.32C330.036 260.36 329.69 261.24 328.996 261.96C328.303 262.653 327.37 263 326.196 263C324.996 263 324.036 262.653 323.316 261.96C322.623 261.24 322.276 260.36 322.276 259.32V252.24C322.276 251.28 322.09 250.533 321.716 250C321.37 249.467 320.85 249.2 320.156 249.2C319.356 249.2 318.77 249.493 318.396 250.08C318.05 250.667 317.876 251.413 317.876 252.32V259.32C317.876 260.36 317.543 261.24 316.876 261.96C316.21 262.653 315.29 263 314.116 263ZM341.431 271.24C339.805 271.24 338.418 271.067 337.271 270.72C336.151 270.373 335.071 269.84 334.031 269.12C333.125 268.48 332.485 267.587 332.111 266.44C331.738 265.293 331.925 264.133 332.671 262.96C333.151 262.24 333.685 261.747 334.271 261.48C334.885 261.213 335.471 261.107 336.031 261.16C336.618 261.187 337.125 261.307 337.551 261.52C338.485 261.973 339.205 262.307 339.711 262.52C340.245 262.707 340.845 262.8 341.511 262.8C342.498 262.8 343.325 262.453 343.991 261.76C344.685 261.067 345.031 260.093 345.031 258.84V255.6H344.311C344.125 257.013 343.578 258.133 342.671 258.96C341.791 259.76 340.578 260.16 339.031 260.16C337.858 260.16 336.711 259.867 335.591 259.28C334.471 258.693 333.551 257.76 332.831 256.48C332.111 255.2 331.751 253.507 331.751 251.4C331.751 248.307 332.431 246 333.791 244.48C335.151 242.96 336.911 242.2 339.071 242.2C340.565 242.2 341.845 242.707 342.911 243.72C343.978 244.707 344.511 246.093 344.511 247.88L344.631 247.84V245.6C344.631 244.667 344.925 243.853 345.511 243.16C346.125 242.44 347.071 242.08 348.351 242.08C349.711 242.08 350.685 242.44 351.271 243.16C351.885 243.853 352.191 244.667 352.191 245.6L352.231 258.2C352.258 260.973 351.911 263.333 351.191 265.28C350.498 267.227 349.351 268.707 347.751 269.72C346.178 270.733 344.071 271.24 341.431 271.24ZM338.471 250.72C338.471 252.16 339.431 252.88 341.351 252.88C342.605 252.88 343.485 252.707 343.991 252.36C344.498 252.013 344.751 251.467 344.751 250.72C344.751 249.947 344.485 249.413 343.951 249.12C343.445 248.827 342.565 248.68 341.311 248.68C340.405 248.68 339.698 248.827 339.191 249.12C338.711 249.413 338.471 249.947 338.471 250.72ZM368.167 263C366.967 263 365.847 262.867 364.807 262.6C363.794 262.333 362.967 261.827 362.327 261.08C361.687 260.333 361.367 259.227 361.367 257.76C361.367 256.533 361.647 255.507 362.207 254.68C362.767 253.853 363.461 253.147 364.287 252.56C365.114 251.973 365.914 251.44 366.687 250.96L372.887 247.08C373.901 246.44 374.567 245.907 374.887 245.48C375.207 245.053 375.367 244.587 375.367 244.08C375.367 243.627 375.221 243.24 374.927 242.92C374.661 242.6 374.021 242.44 373.007 242.44C372.021 242.44 370.981 242.547 369.887 242.76C368.794 242.973 367.741 243.08 366.727 243.08C365.261 243.08 364.061 242.733 363.127 242.04C362.221 241.32 361.767 240.267 361.767 238.88C361.767 237.547 362.247 236.507 363.207 235.76C364.167 234.987 365.461 234.44 367.087 234.12C368.741 233.8 370.581 233.64 372.607 233.64C375.887 233.64 378.421 234.253 380.207 235.48C382.021 236.707 382.927 238.613 382.927 241.2C382.927 242.987 382.407 244.507 381.367 245.76C380.354 247.013 378.941 248.24 377.127 249.44L369.727 254.32H378.887C380.381 254.32 381.554 254.693 382.407 255.44C383.287 256.16 383.727 257.24 383.727 258.68C383.727 260.12 383.287 261.2 382.407 261.92C381.554 262.64 380.381 263 378.887 263H368.167ZM397.611 263.12C394.944 263.12 392.771 262.52 391.091 261.32C389.411 260.12 388.171 258.413 387.371 256.2C386.598 253.987 386.211 251.387 386.211 248.4C386.211 245.413 386.624 242.827 387.451 240.64C388.304 238.427 389.571 236.707 391.251 235.48C392.931 234.253 395.051 233.64 397.611 233.64C400.171 233.64 402.291 234.253 403.971 235.48C405.678 236.707 406.944 238.427 407.771 240.64C408.624 242.827 409.051 245.413 409.051 248.4C409.051 251.387 408.651 253.987 407.851 256.2C407.078 258.413 405.851 260.12 404.171 261.32C402.491 262.52 400.304 263.12 397.611 263.12ZM390.691 247.84C390.691 248.667 390.864 249.453 391.211 250.2C391.584 250.92 392.264 251.507 393.251 251.96C394.264 252.387 395.718 252.6 397.611 252.6C399.531 252.6 400.984 252.387 401.971 251.96C402.984 251.507 403.664 250.92 404.011 250.2C404.384 249.453 404.571 248.667 404.571 247.84C404.571 246.987 404.384 246.227 404.011 245.56C403.664 244.867 402.984 244.32 401.971 243.92C400.984 243.493 399.531 243.28 397.611 243.28C395.718 243.28 394.264 243.493 393.251 243.92C392.264 244.32 391.584 244.867 391.211 245.56C390.864 246.227 390.691 246.987 390.691 247.84ZM417.855 263C416.655 263 415.535 262.867 414.495 262.6C413.481 262.333 412.655 261.827 412.015 261.08C411.375 260.333 411.055 259.227 411.055 257.76C411.055 256.533 411.335 255.507 411.895 254.68C412.455 253.853 413.148 253.147 413.975 252.56C414.801 251.973 415.601 251.44 416.375 250.96L422.575 247.08C423.588 246.44 424.255 245.907 424.575 245.48C424.895 245.053 425.055 244.587 425.055 244.08C425.055 243.627 424.908 243.24 424.615 242.92C424.348 242.6 423.708 242.44 422.695 242.44C421.708 242.44 420.668 242.547 419.575 242.76C418.481 242.973 417.428 243.08 416.415 243.08C414.948 243.08 413.748 242.733 412.815 242.04C411.908 241.32 411.455 240.267 411.455 238.88C411.455 237.547 411.935 236.507 412.895 235.76C413.855 234.987 415.148 234.44 416.775 234.12C418.428 233.8 420.268 233.64 422.295 233.64C425.575 233.64 428.108 234.253 429.895 235.48C431.708 236.707 432.615 238.613 432.615 241.2C432.615 242.987 432.095 244.507 431.055 245.76C430.041 247.013 428.628 248.24 426.815 249.44L419.415 254.32H428.575C430.068 254.32 431.241 254.693 432.095 255.44C432.975 256.16 433.415 257.24 433.415 258.68C433.415 260.12 432.975 261.2 432.095 261.92C431.241 262.64 430.068 263 428.575 263H417.855ZM441.538 246.76C441.538 246.76 442.072 246.613 443.138 246.32C444.232 246.027 445.672 245.88 447.458 245.88C449.378 245.88 451.098 246.08 452.618 246.48C454.165 246.853 455.392 247.587 456.298 248.68C457.205 249.773 457.658 251.36 457.658 253.44C457.658 256.373 456.845 258.707 455.218 260.44C453.592 262.147 450.978 263 447.378 263C444.978 263 442.898 262.56 441.138 261.68C439.405 260.8 438.058 259.387 437.098 257.44C436.165 255.467 435.698 252.867 435.698 249.64C435.698 246.467 436.138 243.68 437.018 241.28C437.898 238.88 439.245 237.013 441.058 235.68C442.872 234.32 445.178 233.64 447.978 233.64C451.072 233.64 453.325 234.08 454.738 234.96C456.178 235.813 456.898 237.027 456.898 238.6C456.898 239.853 456.565 240.853 455.898 241.6C455.258 242.347 454.405 242.72 453.338 242.72C452.432 242.72 451.472 242.6 450.458 242.36C449.445 242.12 448.392 242 447.298 242C445.965 242 444.872 242.24 444.018 242.72C443.165 243.2 442.538 243.8 442.138 244.52C441.738 245.24 441.538 245.987 441.538 246.76ZM441.978 251.64C441.978 252.387 442.338 252.92 443.058 253.24C443.805 253.56 445.192 253.72 447.218 253.72C449.272 253.72 450.645 253.56 451.338 253.24C452.058 252.92 452.418 252.387 452.418 251.64C452.418 250.92 452.058 250.413 451.338 250.12C450.645 249.827 449.272 249.68 447.218 249.68C445.192 249.68 443.805 249.827 443.058 250.12C442.338 250.413 441.978 250.92 441.978 251.64ZM24.44 321.08C23.2133 321.08 22.2133 320.707 21.44 319.96C20.6667 319.213 20.28 318.267 20.28 317.12V295.96C20.28 294.787 20.6533 293.8 21.4 293C22.1733 292.2 23.1867 291.8 24.44 291.8C25.7733 291.8 26.8133 292.2 27.56 293C28.3333 293.773 28.72 294.733 28.72 295.88V317.12C28.72 318.267 28.3067 319.213 27.48 319.96C26.68 320.707 25.6667 321.08 24.44 321.08ZM34.9756 321C33.8023 321 32.8556 320.653 32.1356 319.96C31.4423 319.24 31.0956 318.36 31.0956 317.32V304.08C31.0956 302.96 31.429 302.013 32.0956 301.24C32.7623 300.467 33.7223 300.08 34.9756 300.08C36.2023 300.08 37.1356 300.467 37.7756 301.24C38.4156 302.013 38.7356 302.987 38.7356 304.16V306.16H39.4556C39.4556 304.64 39.7223 303.44 40.2556 302.56C40.8156 301.68 41.5223 301.053 42.3756 300.68C43.229 300.28 44.0823 300.08 44.9356 300.08C46.989 300.08 48.4956 300.827 49.4556 302.32C50.4156 303.787 50.8956 305.88 50.8956 308.6V317.32C50.8956 318.36 50.549 319.24 49.8556 319.96C49.1623 320.653 48.229 321 47.0556 321C45.8556 321 44.8956 320.653 44.1756 319.96C43.4823 319.24 43.1356 318.36 43.1356 317.32V310.24C43.1356 309.28 42.949 308.533 42.5756 308C42.229 307.467 41.709 307.2 41.0156 307.2C40.2156 307.2 39.629 307.493 39.2556 308.08C38.909 308.667 38.7356 309.413 38.7356 310.32V317.32C38.7356 318.36 38.4023 319.24 37.7356 319.96C37.069 320.653 36.149 321 34.9756 321ZM63.7894 321.12C62.376 321.12 61.096 320.8 59.9494 320.16C58.8294 319.52 57.9494 318.613 57.3094 317.44C56.6694 316.24 56.3494 314.84 56.3494 313.24V306.2L54.8694 306.4C54.0694 306.507 53.3627 306.227 52.7494 305.56C52.136 304.893 51.8294 304.053 51.8294 303.04C51.8294 302.027 52.136 301.2 52.7494 300.56C53.3627 299.893 54.0694 299.613 54.8694 299.72L56.3494 299.92L56.3094 297.2C56.2827 296.133 56.5894 295.293 57.2294 294.68C57.8694 294.04 58.8027 293.72 60.0294 293.72C61.256 293.72 62.2027 294.04 62.8694 294.68C63.536 295.293 63.8427 296.133 63.7894 297.2L63.7094 299.92L65.8294 299.64C67.2694 299.427 68.3627 299.693 69.1094 300.44C69.856 301.16 70.2294 302.027 70.2294 303.04C70.2294 304.053 69.856 304.933 69.1094 305.68C68.3894 306.4 67.336 306.667 65.9494 306.48L63.7094 306.2V312.16C63.7094 312.507 63.8294 312.827 64.0694 313.12C64.3094 313.387 64.6027 313.467 64.9494 313.36C65.3494 313.253 65.7627 313.027 66.1894 312.68C66.6427 312.333 67.216 312.16 67.9094 312.16C68.9494 312.16 69.7494 312.533 70.3094 313.28C70.8694 314.027 71.1494 314.947 71.1494 316.04C71.1494 316.893 70.8427 317.72 70.2294 318.52C69.6427 319.293 68.8027 319.92 67.7094 320.4C66.616 320.88 65.3094 321.12 63.7894 321.12ZM71.8731 310.6C71.8731 308.493 72.2865 306.64 73.1131 305.04C73.9665 303.44 75.1665 302.187 76.7131 301.28C78.2865 300.373 80.1531 299.92 82.3131 299.92C83.9931 299.92 85.4998 300.227 86.8331 300.84C88.1931 301.453 89.2598 302.28 90.0331 303.32C90.8065 304.333 91.1931 305.453 91.1931 306.68C91.1931 307.96 90.8198 308.867 90.0731 309.4C89.3265 309.933 88.2198 310.2 86.7531 310.2H78.3531C78.3531 310.893 78.6198 311.467 79.1531 311.92C79.7131 312.373 80.6465 312.6 81.9531 312.6C82.6198 312.6 83.2331 312.533 83.7931 312.4C84.3798 312.267 84.9665 312.147 85.5531 312.04C86.1665 311.907 86.8465 311.84 87.5931 311.84C88.6598 311.84 89.5398 312.227 90.2331 313C90.9265 313.747 91.2731 314.787 91.2731 316.12C91.2731 317.693 90.4598 318.92 88.8331 319.8C87.2331 320.68 85.1265 321.12 82.5131 321.12C80.6731 321.12 78.9398 320.76 77.3131 320.04C75.7131 319.32 74.4065 318.187 73.3931 316.64C72.3798 315.067 71.8731 313.053 71.8731 310.6ZM84.8331 308.88C85.2331 308.88 85.3665 308.693 85.2331 308.32C85.1265 307.947 84.8065 307.56 84.2731 307.16C83.7398 306.76 82.9665 306.56 81.9531 306.56C80.7798 306.56 79.8998 306.813 79.3131 307.32C78.7531 307.827 78.4731 308.347 78.4731 308.88H84.8331ZM97.3994 321C96.146 321 95.1727 320.64 94.4794 319.92C93.786 319.2 93.4394 318.293 93.4394 317.2V304.08C93.4394 302.933 93.786 301.987 94.4794 301.24C95.1727 300.467 96.146 300.08 97.3994 300.08C98.6527 300.08 99.6127 300.467 100.279 301.24C100.946 301.987 101.279 302.907 101.279 304V304.84H102.039C102.146 303.427 102.679 302.267 103.639 301.36C104.599 300.453 105.733 300 107.039 300C108.346 300 109.373 300.4 110.119 301.2C110.893 302 111.279 303.067 111.279 304.4C111.279 305.653 110.919 306.693 110.199 307.52C109.479 308.347 108.559 308.76 107.439 308.76C106.506 308.76 105.719 308.547 105.079 308.12C104.466 307.667 104.013 307.147 103.719 306.56C102.866 306.453 102.239 306.547 101.839 306.84C101.466 307.107 101.279 307.653 101.279 308.48V317.2C101.279 318.293 100.946 319.2 100.279 319.92C99.6127 320.64 98.6527 321 97.3994 321ZM117.445 321C115.472 321 113.925 320.467 112.805 319.4C111.712 318.333 111.165 316.84 111.165 314.92C111.165 313 111.805 311.613 113.085 310.76C114.365 309.88 116.005 309.44 118.005 309.44C119.179 309.44 120.245 309.52 121.205 309.68C122.165 309.84 123.032 310.067 123.805 310.36H123.925V309.76C123.925 309.147 123.699 308.667 123.245 308.32C122.792 307.947 122.219 307.773 121.525 307.8C120.859 307.8 120.285 307.84 119.805 307.92C119.352 308 118.779 308.133 118.085 308.32C116.805 308.64 115.699 308.613 114.765 308.24C113.832 307.867 113.192 307.133 112.845 306.04C112.525 304.893 112.592 303.933 113.045 303.16C113.525 302.387 114.245 301.787 115.205 301.36C116.032 300.96 116.952 300.627 117.965 300.36C119.005 300.093 120.125 299.96 121.325 299.96C124.819 299.96 127.379 300.813 129.005 302.52C130.659 304.2 131.485 307.027 131.485 311V317.2C131.485 318.293 131.152 319.2 130.485 319.92C129.819 320.64 128.899 321 127.725 321C126.445 321 125.485 320.64 124.845 319.92C124.232 319.2 123.925 318.32 123.925 317.28V316.36H123.125C123.125 317.053 122.992 317.76 122.725 318.48C122.485 319.2 121.965 319.8 121.165 320.28C120.392 320.76 119.152 321 117.445 321ZM117.845 312.24C117.845 312.693 118.005 313.013 118.325 313.2C118.672 313.387 119.405 313.48 120.525 313.48C121.539 313.48 122.245 313.387 122.645 313.2C123.045 313.013 123.245 312.693 123.245 312.24C123.245 311.813 123.045 311.52 122.645 311.36C122.245 311.173 121.539 311.08 120.525 311.08C119.405 311.08 118.672 311.173 118.325 311.36C118.005 311.52 117.845 311.813 117.845 312.24ZM143.446 321.12C141.366 321.12 139.526 320.693 137.926 319.84C136.326 318.96 135.073 317.72 134.166 316.12C133.259 314.52 132.806 312.64 132.806 310.48C132.806 308.32 133.259 306.44 134.166 304.84C135.073 303.24 136.326 302 137.926 301.12C139.553 300.24 141.419 299.8 143.526 299.8C145.179 299.8 146.633 299.973 147.886 300.32C149.166 300.667 150.166 301.187 150.886 301.88C151.633 302.573 152.006 303.44 152.006 304.48C152.006 305.733 151.686 306.72 151.046 307.44C150.406 308.133 149.486 308.48 148.286 308.48C147.486 308.48 146.686 308.36 145.886 308.12C145.113 307.88 144.113 307.76 142.886 307.76C141.873 307.76 141.019 307.92 140.326 308.24C139.633 308.56 139.286 309.147 139.286 310C139.286 310.88 139.633 311.52 140.326 311.92C141.019 312.293 141.873 312.48 142.886 312.48C143.713 312.48 144.406 312.4 144.966 312.24C145.526 312.08 146.059 311.92 146.566 311.76C147.073 311.6 147.646 311.52 148.286 311.52C149.646 311.52 150.646 311.92 151.286 312.72C151.953 313.493 152.286 314.493 152.286 315.72C152.286 316.76 151.899 317.693 151.126 318.52C150.353 319.32 149.299 319.96 147.966 320.44C146.633 320.893 145.126 321.12 143.446 321.12ZM165.078 321.12C163.665 321.12 162.385 320.8 161.238 320.16C160.118 319.52 159.238 318.613 158.598 317.44C157.958 316.24 157.638 314.84 157.638 313.24V306.2L156.158 306.4C155.358 306.507 154.652 306.227 154.038 305.56C153.425 304.893 153.118 304.053 153.118 303.04C153.118 302.027 153.425 301.2 154.038 300.56C154.652 299.893 155.358 299.613 156.158 299.72L157.638 299.92L157.598 297.2C157.572 296.133 157.878 295.293 158.518 294.68C159.158 294.04 160.092 293.72 161.318 293.72C162.545 293.72 163.492 294.04 164.158 294.68C164.825 295.293 165.132 296.133 165.078 297.2L164.998 299.92L167.118 299.64C168.558 299.427 169.652 299.693 170.398 300.44C171.145 301.16 171.518 302.027 171.518 303.04C171.518 304.053 171.145 304.933 170.398 305.68C169.678 306.4 168.625 306.667 167.238 306.48L164.998 306.2V312.16C164.998 312.507 165.118 312.827 165.358 313.12C165.598 313.387 165.892 313.467 166.238 313.36C166.638 313.253 167.052 313.027 167.478 312.68C167.932 312.333 168.505 312.16 169.198 312.16C170.238 312.16 171.038 312.533 171.598 313.28C172.158 314.027 172.438 314.947 172.438 316.04C172.438 316.893 172.132 317.72 171.518 318.52C170.932 319.293 170.092 319.92 168.998 320.4C167.905 320.88 166.598 321.12 165.078 321.12ZM173.67 295.44C173.67 294.293 174.017 293.373 174.71 292.68C175.43 291.96 176.417 291.6 177.67 291.6C179.003 291.6 179.99 291.947 180.63 292.64C181.297 293.333 181.63 294.253 181.63 295.4C181.63 296.52 181.297 297.427 180.63 298.12C179.99 298.787 179.003 299.12 177.67 299.12C176.363 299.12 175.363 298.787 174.67 298.12C174.003 297.427 173.67 296.533 173.67 295.44ZM177.67 321C176.417 321 175.483 320.653 174.87 319.96C174.257 319.267 173.95 318.4 173.95 317.36V303.68C173.95 302.533 174.257 301.627 174.87 300.96C175.483 300.293 176.417 299.96 177.67 299.96C178.923 299.96 179.857 300.293 180.47 300.96C181.11 301.627 181.43 302.507 181.43 303.6V317.36C181.43 318.4 181.097 319.267 180.43 319.96C179.79 320.653 178.87 321 177.67 321ZM194.035 321C192.301 321 190.821 320.493 189.595 319.48C188.368 318.467 187.355 316.787 186.555 314.44L183.395 305.32C182.968 304.12 182.968 303.013 183.395 302C183.848 300.987 184.675 300.347 185.875 300.08C186.941 299.84 187.875 299.947 188.675 300.4C189.501 300.853 190.088 301.613 190.435 302.68L193.555 311.84C193.928 312.907 194.381 313.693 194.915 314.2C195.475 314.707 196.155 314.827 196.955 314.56C197.701 314.267 198.101 313.787 198.155 313.12C198.235 312.427 198.088 311.627 197.715 310.72C197.395 309.893 196.968 309.187 196.435 308.6C195.901 308.013 195.421 307.4 194.995 306.76C194.568 306.12 194.355 305.32 194.355 304.36C194.355 302.973 194.795 301.893 195.675 301.12C196.581 300.32 197.768 299.947 199.235 300C200.488 300.027 201.515 300.467 202.315 301.32C203.115 302.173 203.515 303.253 203.515 304.56C203.515 305.28 203.395 306.053 203.155 306.88C202.915 307.707 202.648 308.573 202.355 309.48L200.755 314.52C200.328 315.853 199.848 317.013 199.315 318C198.808 318.96 198.141 319.707 197.315 320.24C196.515 320.747 195.421 321 194.035 321ZM204.178 310.6C204.178 308.493 204.591 306.64 205.418 305.04C206.271 303.44 207.471 302.187 209.018 301.28C210.591 300.373 212.458 299.92 214.618 299.92C216.298 299.92 217.804 300.227 219.138 300.84C220.498 301.453 221.564 302.28 222.338 303.32C223.111 304.333 223.498 305.453 223.498 306.68C223.498 307.96 223.124 308.867 222.378 309.4C221.631 309.933 220.524 310.2 219.058 310.2H210.658C210.658 310.893 210.924 311.467 211.458 311.92C212.018 312.373 212.951 312.6 214.258 312.6C214.924 312.6 215.538 312.533 216.098 312.4C216.684 312.267 217.271 312.147 217.858 312.04C218.471 311.907 219.151 311.84 219.898 311.84C220.964 311.84 221.844 312.227 222.538 313C223.231 313.747 223.578 314.787 223.578 316.12C223.578 317.693 222.764 318.92 221.138 319.8C219.538 320.68 217.431 321.12 214.818 321.12C212.978 321.12 211.244 320.76 209.618 320.04C208.018 319.32 206.711 318.187 205.698 316.64C204.684 315.067 204.178 313.053 204.178 310.6ZM217.138 308.88C217.538 308.88 217.671 308.693 217.538 308.32C217.431 307.947 217.111 307.56 216.578 307.16C216.044 306.76 215.271 306.56 214.258 306.56C213.084 306.56 212.204 306.813 211.618 307.32C211.058 307.827 210.778 308.347 210.778 308.88H217.138ZM236.86 321C235.473 321 234.447 320.587 233.78 319.76C233.113 318.933 232.78 317.827 232.78 316.44V297.8C232.78 295.773 233.327 294.28 234.42 293.32C235.54 292.36 236.873 291.88 238.42 291.88C239.887 291.88 241.127 292.36 242.14 293.32C243.18 294.28 243.94 295.8 244.42 297.88L247.54 311.44H248.58L251.7 297.88C252.18 295.8 252.94 294.28 253.98 293.32C255.047 292.36 256.313 291.88 257.78 291.88C259.327 291.88 260.647 292.36 261.74 293.32C262.86 294.28 263.42 295.773 263.42 297.8V316.44C263.42 317.827 263.073 318.933 262.38 319.76C261.713 320.587 260.687 321 259.3 321C257.967 321 256.94 320.587 256.22 319.76C255.5 318.933 255.14 317.827 255.14 316.44V305.68C255.14 305.413 255.1 305.173 255.02 304.96C254.967 304.72 254.793 304.6 254.5 304.6C254.26 304.6 254.087 304.72 253.98 304.96C253.873 305.173 253.793 305.413 253.74 305.68L252.22 315.76C252.033 316.853 251.807 317.8 251.54 318.6C251.3 319.373 250.913 319.973 250.38 320.4C249.847 320.8 249.073 321 248.06 321C247.073 321 246.3 320.8 245.74 320.4C245.207 319.973 244.807 319.373 244.54 318.6C244.3 317.8 244.1 316.853 243.94 315.76L242.38 305.68C242.353 305.413 242.287 305.173 242.18 304.96C242.073 304.72 241.887 304.6 241.62 304.6C241.353 304.6 241.18 304.72 241.1 304.96C241.02 305.173 240.98 305.413 240.98 305.68V316.44C240.98 317.827 240.62 318.933 239.9 319.76C239.207 320.587 238.193 321 236.86 321ZM265.623 310.6C265.623 308.493 266.036 306.64 266.863 305.04C267.716 303.44 268.916 302.187 270.463 301.28C272.036 300.373 273.903 299.92 276.063 299.92C277.743 299.92 279.25 300.227 280.583 300.84C281.943 301.453 283.01 302.28 283.783 303.32C284.556 304.333 284.943 305.453 284.943 306.68C284.943 307.96 284.57 308.867 283.823 309.4C283.076 309.933 281.97 310.2 280.503 310.2H272.103C272.103 310.893 272.37 311.467 272.903 311.92C273.463 312.373 274.396 312.6 275.703 312.6C276.37 312.6 276.983 312.533 277.543 312.4C278.13 312.267 278.716 312.147 279.303 312.04C279.916 311.907 280.596 311.84 281.343 311.84C282.41 311.84 283.29 312.227 283.983 313C284.676 313.747 285.023 314.787 285.023 316.12C285.023 317.693 284.21 318.92 282.583 319.8C280.983 320.68 278.876 321.12 276.263 321.12C274.423 321.12 272.69 320.76 271.063 320.04C269.463 319.32 268.156 318.187 267.143 316.64C266.13 315.067 265.623 313.053 265.623 310.6ZM278.583 308.88C278.983 308.88 279.116 308.693 278.983 308.32C278.876 307.947 278.556 307.56 278.023 307.16C277.49 306.76 276.716 306.56 275.703 306.56C274.53 306.56 273.65 306.813 273.063 307.32C272.503 307.827 272.223 308.347 272.223 308.88H278.583ZM293.958 321C289.104 321 286.678 317.427 286.678 310.28C286.678 307.187 287.278 304.72 288.478 302.88C289.678 301.013 291.478 300.08 293.878 300.08C295.184 300.08 296.238 300.347 297.038 300.88C297.864 301.413 298.504 302.147 298.958 303.08C299.438 303.987 299.784 305.04 299.998 306.24L300.118 306.2V294.08C300.118 292.987 300.438 292.067 301.078 291.32C301.744 290.547 302.704 290.16 303.958 290.16C305.184 290.16 306.091 290.547 306.678 291.32C307.291 292.067 307.598 293.013 307.598 294.16V312.16C307.598 313.067 307.664 313.907 307.798 314.68C307.958 315.427 308.078 316.173 308.158 316.92C308.238 317.933 308.024 318.813 307.518 319.56C307.038 320.28 306.171 320.747 304.918 320.96C303.291 321.227 302.078 320.947 301.278 320.12C300.504 319.293 300.118 318.067 300.118 316.44V314.96H299.358C299.358 316.907 298.864 318.4 297.878 319.44C296.918 320.48 295.611 321 293.958 321ZM293.358 309.92C293.358 310.747 293.611 311.36 294.118 311.76C294.624 312.16 295.531 312.36 296.838 312.36C298.171 312.36 299.091 312.16 299.598 311.76C300.104 311.36 300.358 310.747 300.358 309.92C300.358 309.067 300.104 308.453 299.598 308.08C299.118 307.68 298.211 307.48 296.878 307.48C295.544 307.48 294.624 307.68 294.118 308.08C293.611 308.453 293.358 309.067 293.358 309.92ZM309.92 295.44C309.92 294.293 310.267 293.373 310.96 292.68C311.68 291.96 312.667 291.6 313.92 291.6C315.253 291.6 316.24 291.947 316.88 292.64C317.547 293.333 317.88 294.253 317.88 295.4C317.88 296.52 317.547 297.427 316.88 298.12C316.24 298.787 315.253 299.12 313.92 299.12C312.613 299.12 311.613 298.787 310.92 298.12C310.253 297.427 309.92 296.533 309.92 295.44ZM313.92 321C312.667 321 311.733 320.653 311.12 319.96C310.507 319.267 310.2 318.4 310.2 317.36V303.68C310.2 302.533 310.507 301.627 311.12 300.96C311.733 300.293 312.667 299.96 313.92 299.96C315.173 299.96 316.107 300.293 316.72 300.96C317.36 301.627 317.68 302.507 317.68 303.6V317.36C317.68 318.4 317.347 319.267 316.68 319.96C316.04 320.653 315.12 321 313.92 321ZM325.805 321C323.831 321 322.285 320.467 321.165 319.4C320.071 318.333 319.525 316.84 319.525 314.92C319.525 313 320.165 311.613 321.445 310.76C322.725 309.88 324.365 309.44 326.365 309.44C327.538 309.44 328.605 309.52 329.565 309.68C330.525 309.84 331.391 310.067 332.165 310.36H332.285V309.76C332.285 309.147 332.058 308.667 331.605 308.32C331.151 307.947 330.578 307.773 329.885 307.8C329.218 307.8 328.645 307.84 328.165 307.92C327.711 308 327.138 308.133 326.445 308.32C325.165 308.64 324.058 308.613 323.125 308.24C322.191 307.867 321.551 307.133 321.205 306.04C320.885 304.893 320.951 303.933 321.405 303.16C321.885 302.387 322.605 301.787 323.565 301.36C324.391 300.96 325.311 300.627 326.325 300.36C327.365 300.093 328.485 299.96 329.685 299.96C333.178 299.96 335.738 300.813 337.365 302.52C339.018 304.2 339.845 307.027 339.845 311V317.2C339.845 318.293 339.511 319.2 338.845 319.92C338.178 320.64 337.258 321 336.085 321C334.805 321 333.845 320.64 333.205 319.92C332.591 319.2 332.285 318.32 332.285 317.28V316.36H331.485C331.485 317.053 331.351 317.76 331.085 318.48C330.845 319.2 330.325 319.8 329.525 320.28C328.751 320.76 327.511 321 325.805 321ZM326.205 312.24C326.205 312.693 326.365 313.013 326.685 313.2C327.031 313.387 327.765 313.48 328.885 313.48C329.898 313.48 330.605 313.387 331.005 313.2C331.405 313.013 331.605 312.693 331.605 312.24C331.605 311.813 331.405 311.52 331.005 311.36C330.605 311.173 329.898 311.08 328.885 311.08C327.765 311.08 327.031 311.173 326.685 311.36C326.365 311.52 326.205 311.813 326.205 312.24ZM353.463 321.08C352.237 321.08 351.237 320.707 350.463 319.96C349.69 319.213 349.303 318.267 349.303 317.12V295.96C349.303 294.787 349.677 293.8 350.423 293C351.197 292.2 352.21 291.8 353.463 291.8C354.797 291.8 355.837 292.2 356.583 293C357.357 293.773 357.743 294.733 357.743 295.88V317.12C357.743 318.267 357.33 319.213 356.503 319.96C355.703 320.707 354.69 321.08 353.463 321.08ZM364.479 321.08C363.252 321.08 362.252 320.707 361.479 319.96C360.706 319.213 360.319 318.267 360.319 317.12V295.96C360.319 294.787 360.692 293.8 361.439 293C362.212 292.2 363.226 291.8 364.479 291.8C365.812 291.8 366.852 292.2 367.599 293C368.372 293.773 368.759 294.733 368.759 295.88V317.12C368.759 318.267 368.346 319.213 367.519 319.96C366.719 320.707 365.706 321.08 364.479 321.08ZM375.495 321.08C374.268 321.08 373.268 320.707 372.495 319.96C371.721 319.213 371.335 318.267 371.335 317.12V295.96C371.335 294.787 371.708 293.8 372.455 293C373.228 292.2 374.241 291.8 375.495 291.8C376.828 291.8 377.868 292.2 378.615 293C379.388 293.773 379.775 294.733 379.775 295.88V317.12C379.775 318.267 379.361 319.213 378.535 319.96C377.735 320.707 376.721 321.08 375.495 321.08Z" fill="#FDBB63"/>
</svg>
