<svg width="271" height="183" viewBox="0 0 271 183" fill="none" xmlns="http://www.w3.org/2000/svg">
<path d="M1.152 23.8H11.808L18.72 75.928H18.912L25.824 23.8H35.52L25.344 91H11.328L1.152 23.8ZM40.5923 23.8H51.1523V91H40.5923V23.8ZM73.941 91.96C68.885 91.96 65.013 90.52 62.325 87.64C59.701 84.76 58.389 80.696 58.389 75.448V39.352C58.389 34.104 59.701 30.04 62.325 27.16C65.013 24.28 68.885 22.84 73.941 22.84C78.997 22.84 82.837 24.28 85.461 27.16C88.149 30.04 89.493 34.104 89.493 39.352V46.456H79.509V38.68C79.509 34.52 77.749 32.44 74.229 32.44C70.709 32.44 68.949 34.52 68.949 38.68V76.216C68.949 80.312 70.709 82.36 74.229 82.36C77.749 82.36 79.509 80.312 79.509 76.216V65.944H89.493V75.448C89.493 80.696 88.149 84.76 85.461 87.64C82.837 90.52 78.997 91.96 73.941 91.96ZM95.811 23.8H106.371V52.12L119.811 23.8H130.371L117.795 48.472L130.563 91H119.523L110.595 61.048L106.371 69.592V91H95.811V23.8ZM145.257 62.392L132.489 23.8H143.721L150.921 48.472H151.113L158.313 23.8H168.585L155.817 62.392V91H145.257V62.392ZM188.717 23.8H199.277V81.4H216.653V91H188.717V23.8ZM221.717 23.8H232.277V91H221.717V23.8Z" fill="#B3473B"/>
<path d="M8.152 18.8H18.808L25.72 70.928H25.912L32.824 18.8H42.52L32.344 86H18.328L8.152 18.8ZM47.5923 18.8H58.1523V86H47.5923V18.8ZM80.941 86.96C75.885 86.96 72.013 85.52 69.325 82.64C66.701 79.76 65.389 75.696 65.389 70.448V34.352C65.389 29.104 66.701 25.04 69.325 22.16C72.013 19.28 75.885 17.84 80.941 17.84C85.997 17.84 89.837 19.28 92.461 22.16C95.149 25.04 96.493 29.104 96.493 34.352V41.456H86.509V33.68C86.509 29.52 84.749 27.44 81.229 27.44C77.709 27.44 75.949 29.52 75.949 33.68V71.216C75.949 75.312 77.709 77.36 81.229 77.36C84.749 77.36 86.509 75.312 86.509 71.216V60.944H96.493V70.448C96.493 75.696 95.149 79.76 92.461 82.64C89.837 85.52 85.997 86.96 80.941 86.96ZM102.811 18.8H113.371V47.12L126.811 18.8H137.371L124.795 43.472L137.563 86H126.523L117.595 56.048L113.371 64.592V86H102.811V18.8ZM152.257 57.392L139.489 18.8H150.721L157.921 43.472H158.113L165.313 18.8H175.585L162.817 57.392V86H152.257V57.392ZM195.717 18.8H206.277V76.4H223.653V86H195.717V18.8ZM228.717 18.8H239.277V86H228.717V18.8Z" fill="#F0782E"/>
<path d="M12.152 18.8H22.808L29.72 70.928H29.912L36.824 18.8H46.52L36.344 86H22.328L12.152 18.8ZM51.5923 18.8H62.1523V86H51.5923V18.8ZM84.941 86.96C79.885 86.96 76.013 85.52 73.325 82.64C70.701 79.76 69.389 75.696 69.389 70.448V34.352C69.389 29.104 70.701 25.04 73.325 22.16C76.013 19.28 79.885 17.84 84.941 17.84C89.997 17.84 93.837 19.28 96.461 22.16C99.149 25.04 100.493 29.104 100.493 34.352V41.456H90.509V33.68C90.509 29.52 88.749 27.44 85.229 27.44C81.709 27.44 79.949 29.52 79.949 33.68V71.216C79.949 75.312 81.709 77.36 85.229 77.36C88.749 77.36 90.509 75.312 90.509 71.216V60.944H100.493V70.448C100.493 75.696 99.149 79.76 96.461 82.64C93.837 85.52 89.997 86.96 84.941 86.96ZM106.811 18.8H117.371V47.12L130.811 18.8H141.371L128.795 43.472L141.563 86H130.523L121.595 56.048L117.371 64.592V86H106.811V18.8ZM156.257 57.392L143.489 18.8H154.721L161.921 43.472H162.113L169.313 18.8H179.585L166.817 57.392V86H156.257V57.392ZM199.717 18.8H210.277V76.4H227.653V86H199.717V18.8ZM232.717 18.8H243.277V86H232.717V18.8Z" fill="#FDBB63"/>
<path d="M11.032 123.528C12.936 123.528 14.488 123.888 15.688 124.608C16.904 125.312 17.8 126.32 18.376 127.632C18.968 128.928 19.264 130.472 19.264 132.264C19.264 135.272 18.616 137.48 17.32 138.888C16.024 140.296 14.04 141 11.368 141H10.312C9.528 141 8.8 140.92 8.128 140.76C7.456 140.6 6.864 140.312 6.352 139.896C5.84 139.464 5.44 138.864 5.152 138.096C4.864 137.328 4.72 136.336 4.72 135.12C4.72 133.984 4.872 133 5.176 132.168C5.496 131.336 5.872 130.672 6.304 130.176C6.736 129.68 7.128 129.376 7.48 129.264L7.36 128.808H6.952C6.216 128.808 5.632 128.576 5.2 128.112C4.784 127.632 4.568 126.992 4.552 126.192C4.536 125.392 4.744 124.752 5.176 124.272C5.624 123.776 6.216 123.528 6.952 123.528H11.032ZM9.304 134.808C9.304 135.144 9.376 135.376 9.52 135.504C9.68 135.632 9.912 135.696 10.216 135.696H11.512C12.328 135.696 12.96 135.52 13.408 135.168C13.856 134.816 14.168 134.368 14.344 133.824C14.536 133.264 14.632 132.672 14.632 132.048C14.632 131.424 14.536 130.824 14.344 130.248C14.168 129.672 13.856 129.2 13.408 128.832C12.96 128.464 12.328 128.28 11.512 128.28H10.216C9.912 128.28 9.68 128.352 9.52 128.496C9.376 128.624 9.304 128.864 9.304 129.216V134.808ZM26.4912 140.952C25.7072 140.952 24.9552 140.88 24.2352 140.736C23.5312 140.592 22.9072 140.32 22.3632 139.92C21.8352 139.504 21.4112 138.912 21.0912 138.144C20.7872 137.36 20.6352 136.336 20.6352 135.072C20.6352 133.936 20.7872 132.96 21.0912 132.144C21.3952 131.328 21.7552 130.68 22.1712 130.2C22.6032 129.72 22.9952 129.424 23.3472 129.312L23.2272 128.856H22.8192C22.0832 128.856 21.4992 128.624 21.0672 128.16C20.6512 127.68 20.4352 127.032 20.4192 126.216C20.4032 125.416 20.6112 124.776 21.0432 124.296C21.4912 123.816 22.0832 123.576 22.8192 123.576H31.4352C33.1472 123.576 34.0032 124.376 34.0032 125.976C34.0032 126.696 33.7952 127.272 33.3792 127.704C32.9632 128.136 32.3152 128.352 31.4352 128.352H26.4672C25.8752 128.352 25.5792 128.696 25.5792 129.384V131.184C26.3792 131.008 27.2112 130.8 28.0752 130.56C28.9552 130.32 29.7872 130.2 30.5712 130.2C31.3232 130.2 31.8832 130.368 32.2512 130.704C32.6352 131.024 32.8272 131.464 32.8272 132.024C32.8272 132.6 32.6352 133.056 32.2512 133.392C31.8832 133.712 31.3232 133.88 30.5712 133.896C29.7872 133.912 28.9552 133.8 28.0752 133.56C27.1952 133.32 26.3552 133.112 25.5552 132.936V136.08C25.5552 136.384 25.6352 136.6 25.7952 136.728C25.9712 136.84 26.2432 136.792 26.6112 136.584C27.4112 136.12 28.1952 135.752 28.9632 135.48C29.7312 135.192 30.4832 135.048 31.2192 135.048C32.2592 135.048 33.0432 135.32 33.5712 135.864C34.1152 136.408 34.3872 137.12 34.3872 138C34.3872 138.944 34.0992 139.672 33.5232 140.184C32.9632 140.696 32.0512 140.952 30.7872 140.952H26.4912ZM42.7694 141.072C41.8734 141.072 40.9694 140.984 40.0574 140.808C39.1614 140.616 38.3294 140.344 37.5614 139.992C36.8094 139.624 36.2014 139.184 35.7374 138.672C35.2734 138.144 35.0414 137.536 35.0414 136.848C35.0414 135.968 35.3214 135.264 35.8814 134.736C36.4414 134.208 37.0974 133.96 37.8494 133.992C38.4414 134.008 39.0334 134.136 39.6254 134.376C40.2174 134.6 40.8174 134.824 41.4254 135.048C42.0494 135.272 42.6734 135.384 43.2974 135.384C43.9214 135.384 44.3534 135.304 44.5934 135.144C44.8334 134.984 44.9534 134.768 44.9534 134.496C44.9534 134.176 44.7854 133.912 44.4494 133.704C44.1134 133.496 43.6894 133.336 43.1774 133.224L42.0014 132.936C40.7854 132.648 39.6974 132.328 38.7374 131.976C37.7774 131.608 37.0174 131.128 36.4574 130.536C35.9134 129.928 35.6414 129.12 35.6414 128.112C35.6414 127.008 35.9454 126.112 36.5534 125.424C37.1614 124.72 37.9854 124.208 39.0254 123.888C40.0654 123.568 41.2254 123.408 42.5054 123.408C43.8174 123.408 44.9694 123.544 45.9614 123.816C46.9534 124.088 47.7214 124.48 48.2654 124.992C48.8254 125.504 49.1054 126.128 49.1054 126.864C49.1054 127.648 48.8894 128.264 48.4574 128.712C48.0414 129.144 47.4814 129.36 46.7774 129.36C46.3134 129.36 45.8254 129.28 45.3134 129.12C44.8174 128.96 44.2894 128.808 43.7294 128.664C43.1854 128.504 42.6014 128.424 41.9774 128.424C41.4174 128.424 40.9934 128.512 40.7054 128.688C40.4174 128.848 40.2734 129.064 40.2734 129.336C40.2734 129.672 40.4654 129.92 40.8494 130.08C41.2334 130.24 41.8654 130.432 42.7454 130.656L44.0894 130.968C45.1934 131.24 46.1614 131.568 46.9934 131.952C47.8254 132.336 48.4734 132.84 48.9374 133.464C49.4014 134.088 49.6334 134.904 49.6334 135.912C49.6334 137.128 49.3454 138.12 48.7694 138.888C48.1934 139.64 47.3934 140.192 46.3694 140.544C45.3454 140.896 44.1454 141.072 42.7694 141.072ZM62.0472 141.048C61.2632 141.048 60.6552 140.808 60.2232 140.328C59.7912 139.848 59.5752 139.256 59.5752 138.552V129.96H59.0952C58.9832 130.328 58.7432 130.656 58.3752 130.944C58.0072 131.232 57.5432 131.376 56.9832 131.376C56.3752 131.376 55.8392 131.176 55.3752 130.776C54.9272 130.36 54.7032 129.784 54.7032 129.048C54.7032 128.488 54.8312 128.016 55.0872 127.632C55.3432 127.248 55.6712 126.872 56.0712 126.504L57.8232 124.944C58.4312 124.4 58.9992 124.008 59.5272 123.768C60.0552 123.512 60.6632 123.384 61.3512 123.384C61.9112 123.384 62.4312 123.504 62.9112 123.744C63.3912 123.984 63.7752 124.36 64.0632 124.872C64.3672 125.368 64.5192 126.024 64.5192 126.84V138.552C64.5192 139.256 64.3112 139.848 63.8952 140.328C63.4792 140.808 62.8632 141.048 62.0472 141.048ZM74.6418 130.584C75.6018 130.584 76.4498 130.728 77.1858 131.016C77.9378 131.304 78.5218 131.8 78.9378 132.504C79.3698 133.192 79.5858 134.168 79.5858 135.432C79.5858 136.536 79.3858 137.456 78.9858 138.192C78.6018 138.912 78.0738 139.48 77.4018 139.896C76.7458 140.296 76.0018 140.584 75.1698 140.76C74.3378 140.92 73.4738 141 72.5778 141C70.5458 141 68.9698 140.752 67.8498 140.256C66.7298 139.744 66.1698 138.872 66.1698 137.64C66.1698 136.776 66.4578 136.112 67.0338 135.648C67.6098 135.168 68.3538 134.984 69.2658 135.096C69.9698 135.176 70.7378 135.264 71.5698 135.36C72.4018 135.456 73.2818 135.496 74.2098 135.48C74.8338 135.48 75.2818 135.384 75.5538 135.192C75.8418 134.984 75.9858 134.688 75.9858 134.304C75.9858 133.84 75.8418 133.488 75.5538 133.248C75.2818 132.992 74.8338 132.864 74.2098 132.864H69.3858C68.5218 132.864 67.8578 132.704 67.3938 132.384C66.9298 132.064 66.6978 131.488 66.6978 130.656V126.696C66.6978 125.864 66.8258 125.224 67.0818 124.776C67.3538 124.328 67.7218 124.016 68.1858 123.84C68.6658 123.664 69.2098 123.576 69.8178 123.576H76.3218C77.3618 123.576 78.0898 123.808 78.5058 124.272C78.9218 124.736 79.1298 125.344 79.1298 126.096C79.1298 126.848 78.9218 127.472 78.5058 127.968C78.0898 128.448 77.3618 128.688 76.3218 128.688C75.4898 128.688 74.6578 128.504 73.8258 128.136C73.0098 127.768 72.3218 127.264 71.7617 126.624H71.2818V130.584H74.6418ZM90.4913 127.176C90.0433 127.448 89.4913 127.752 88.8353 128.088C88.1953 128.408 87.4353 128.688 86.5553 128.928C85.6753 129.168 84.6593 129.288 83.5073 129.288C82.5473 129.288 81.8273 129.024 81.3473 128.496C80.8673 127.952 80.6273 127.272 80.6273 126.456C80.6273 125.624 80.8673 124.936 81.3473 124.392C81.8273 123.848 82.5473 123.576 83.5073 123.576H90.5633C91.7473 123.576 92.6513 123.856 93.2753 124.416C93.9153 124.976 94.2353 125.84 94.2353 127.008C94.2353 127.6 94.1393 128.12 93.9473 128.568C93.7553 129.016 93.4993 129.44 93.1793 129.84C92.8593 130.24 92.5153 130.656 92.1473 131.088C91.7953 131.52 91.4513 132 91.1153 132.528C90.6193 133.312 90.2193 134.224 89.9153 135.264C89.6113 136.304 89.3953 137.384 89.2673 138.504C89.1713 139.352 88.8993 140 88.4513 140.448C88.0193 140.88 87.3793 141.104 86.5313 141.12C85.6673 141.136 84.9633 140.896 84.4193 140.4C83.8753 139.904 83.6113 139.208 83.6273 138.312C83.6593 136.76 83.8993 135.336 84.3473 134.04C84.8113 132.744 85.4353 131.696 86.2193 130.896C86.6833 130.416 87.1793 129.984 87.7073 129.6C88.2513 129.216 88.7633 128.888 89.2433 128.616C89.7233 128.328 90.1153 128.112 90.4193 127.968C90.7233 127.824 90.8753 127.752 90.8753 127.752L90.4913 127.176ZM100.608 140.976C99.8723 140.944 99.1843 140.84 98.5443 140.664C97.9203 140.488 97.3683 140.192 96.8883 139.776C96.4083 139.344 96.0323 138.752 95.7603 138C95.5043 137.248 95.3763 136.288 95.3763 135.12C95.3763 133.984 95.5283 133 95.8323 132.168C96.1523 131.336 96.5283 130.672 96.9603 130.176C97.3923 129.68 97.7843 129.376 98.1363 129.264L98.0163 128.808H97.6083C96.8723 128.808 96.2883 128.576 95.8563 128.112C95.4403 127.632 95.2243 126.992 95.2083 126.192C95.1923 125.392 95.4003 124.752 95.8323 124.272C96.2803 123.776 96.8723 123.528 97.6083 123.528H104.208C105.936 123.528 107.184 123.944 107.952 124.776C108.72 125.592 109.104 126.656 109.104 127.968C109.104 129.024 108.856 129.904 108.36 130.608C107.88 131.312 107.152 131.736 106.176 131.88V132.24C107.232 132.288 108.088 132.656 108.744 133.344C109.416 134.016 109.752 135.016 109.752 136.344C109.752 137.784 109.336 138.928 108.504 139.776C107.672 140.608 106.304 141.016 104.4 141L100.608 140.976ZM99.9603 130.2C99.9603 130.552 100.024 130.784 100.152 130.896C100.28 131.008 100.52 131.064 100.872 131.064H103.08C103.688 131.064 104.152 130.976 104.472 130.8C104.792 130.608 104.952 130.24 104.952 129.696C104.952 129.136 104.792 128.768 104.472 128.592C104.152 128.416 103.688 128.328 103.08 128.328H100.872C100.52 128.328 100.28 128.376 100.152 128.472C100.024 128.568 99.9603 128.8 99.9603 129.168V130.2ZM99.9603 135.024C99.9603 135.376 100.024 135.616 100.152 135.744C100.296 135.872 100.552 135.936 100.92 135.936H103.392C104.016 135.936 104.496 135.824 104.832 135.6C105.168 135.376 105.336 134.976 105.336 134.4C105.336 133.824 105.168 133.432 104.832 133.224C104.496 133 104.016 132.888 103.392 132.888H100.92C100.552 132.888 100.296 132.944 100.152 133.056C100.024 133.168 99.9603 133.4 99.9603 133.752V135.024ZM117.942 134.496C117.366 134.496 116.87 134.296 116.454 133.896C116.038 133.48 115.83 132.928 115.83 132.24C115.83 131.584 116.038 131.056 116.454 130.656C116.87 130.256 117.374 130.056 117.966 130.056H123.486C124.094 130.056 124.59 130.264 124.974 130.68C125.358 131.08 125.55 131.6 125.55 132.24C125.55 132.88 125.358 133.416 124.974 133.848C124.59 134.28 124.094 134.496 123.486 134.496H117.942ZM139.426 141.072C138.53 141.072 137.626 140.984 136.714 140.808C135.818 140.616 134.986 140.344 134.218 139.992C133.466 139.624 132.858 139.184 132.394 138.672C131.93 138.144 131.698 137.536 131.698 136.848C131.698 135.968 131.978 135.264 132.538 134.736C133.098 134.208 133.754 133.96 134.506 133.992C135.098 134.008 135.69 134.136 136.282 134.376C136.874 134.6 137.474 134.824 138.082 135.048C138.706 135.272 139.33 135.384 139.954 135.384C140.578 135.384 141.01 135.304 141.25 135.144C141.49 134.984 141.61 134.768 141.61 134.496C141.61 134.176 141.442 133.912 141.106 133.704C140.77 133.496 140.346 133.336 139.834 133.224L138.658 132.936C137.442 132.648 136.354 132.328 135.394 131.976C134.434 131.608 133.674 131.128 133.114 130.536C132.57 129.928 132.298 129.12 132.298 128.112C132.298 127.008 132.602 126.112 133.21 125.424C133.818 124.72 134.642 124.208 135.682 123.888C136.722 123.568 137.882 123.408 139.162 123.408C140.474 123.408 141.626 123.544 142.618 123.816C143.61 124.088 144.378 124.48 144.922 124.992C145.482 125.504 145.762 126.128 145.762 126.864C145.762 127.648 145.546 128.264 145.114 128.712C144.698 129.144 144.138 129.36 143.434 129.36C142.97 129.36 142.482 129.28 141.97 129.12C141.474 128.96 140.946 128.808 140.386 128.664C139.842 128.504 139.258 128.424 138.634 128.424C138.074 128.424 137.65 128.512 137.362 128.688C137.074 128.848 136.93 129.064 136.93 129.336C136.93 129.672 137.122 129.92 137.506 130.08C137.89 130.24 138.522 130.432 139.402 130.656L140.746 130.968C141.85 131.24 142.818 131.568 143.65 131.952C144.482 132.336 145.13 132.84 145.594 133.464C146.058 134.088 146.29 134.904 146.29 135.912C146.29 137.128 146.002 138.12 145.426 138.888C144.85 139.64 144.05 140.192 143.026 140.544C142.002 140.896 140.802 141.072 139.426 141.072ZM155.714 141C154.834 141 154.098 140.728 153.506 140.184C152.93 139.64 152.562 138.936 152.402 138.072H151.97V143.592C151.97 144.248 151.786 144.8 151.418 145.248C151.05 145.712 150.49 145.944 149.738 145.944C149.018 145.944 148.458 145.712 148.058 145.248C147.674 144.8 147.482 144.232 147.482 143.544V134.568C147.482 133.768 147.45 133.096 147.386 132.552C147.338 131.992 147.29 131.488 147.242 131.04C147.178 130.368 147.314 129.8 147.65 129.336C147.986 128.856 148.53 128.568 149.282 128.472C150.258 128.344 150.946 128.52 151.346 129C151.762 129.464 151.97 130.192 151.97 131.184V132.336L152.066 132.36C152.146 131.736 152.33 131.128 152.618 130.536C152.922 129.928 153.346 129.432 153.89 129.048C154.434 128.648 155.122 128.448 155.954 128.448C157.346 128.448 158.378 129.008 159.05 130.128C159.738 131.232 160.082 132.712 160.082 134.568C160.082 138.856 158.626 141 155.714 141ZM151.874 134.52C151.874 134.776 151.906 134.976 151.97 135.12C152.066 135.424 152.266 135.648 152.57 135.792C152.89 135.92 153.362 135.984 153.986 135.984C154.786 135.984 155.33 135.864 155.618 135.624C155.922 135.384 156.074 135.016 156.074 134.52C156.074 134.008 155.93 133.64 155.642 133.416C155.354 133.176 154.81 133.056 154.01 133.056C153.37 133.056 152.89 133.128 152.57 133.272C152.266 133.4 152.066 133.616 151.97 133.92C151.906 134.064 151.874 134.264 151.874 134.52ZM163.657 141C162.905 141 162.321 140.784 161.905 140.352C161.489 139.92 161.281 139.376 161.281 138.72V130.848C161.281 130.16 161.489 129.592 161.905 129.144C162.321 128.68 162.905 128.448 163.657 128.448C164.409 128.448 164.985 128.68 165.385 129.144C165.785 129.592 165.985 130.144 165.985 130.8V131.304H166.441C166.505 130.456 166.825 129.76 167.401 129.216C167.977 128.672 168.657 128.4 169.441 128.4C170.225 128.4 170.841 128.64 171.289 129.12C171.753 129.6 171.985 130.24 171.985 131.04C171.985 131.792 171.769 132.416 171.337 132.912C170.905 133.408 170.353 133.656 169.681 133.656C169.121 133.656 168.649 133.528 168.265 133.272C167.897 133 167.625 132.688 167.449 132.336C166.937 132.272 166.561 132.328 166.321 132.504C166.097 132.664 165.985 132.992 165.985 133.488V138.72C165.985 139.376 165.785 139.92 165.385 140.352C164.985 140.784 164.409 141 163.657 141ZM172.763 125.664C172.763 124.976 172.971 124.424 173.387 124.008C173.819 123.576 174.411 123.36 175.163 123.36C175.963 123.36 176.555 123.568 176.939 123.984C177.339 124.4 177.539 124.952 177.539 125.64C177.539 126.312 177.339 126.856 176.939 127.272C176.555 127.672 175.963 127.872 175.163 127.872C174.379 127.872 173.779 127.672 173.363 127.272C172.963 126.856 172.763 126.32 172.763 125.664ZM175.163 141C174.411 141 173.851 140.792 173.483 140.376C173.115 139.96 172.931 139.44 172.931 138.816V130.608C172.931 129.92 173.115 129.376 173.483 128.976C173.851 128.576 174.411 128.376 175.163 128.376C175.915 128.376 176.475 128.576 176.843 128.976C177.227 129.376 177.419 129.904 177.419 130.56V138.816C177.419 139.44 177.219 139.96 176.819 140.376C176.435 140.792 175.883 141 175.163 141ZM181.07 141C180.366 141 179.798 140.792 179.366 140.376C178.95 139.944 178.742 139.416 178.742 138.792V130.848C178.742 130.176 178.942 129.608 179.342 129.144C179.742 128.68 180.318 128.448 181.07 128.448C181.806 128.448 182.366 128.68 182.75 129.144C183.134 129.608 183.326 130.192 183.326 130.896V132.096H183.758C183.758 131.184 183.918 130.464 184.238 129.936C184.574 129.408 184.998 129.032 185.51 128.808C186.022 128.568 186.534 128.448 187.046 128.448C188.278 128.448 189.182 128.896 189.758 129.792C190.334 130.672 190.622 131.928 190.622 133.56V138.792C190.622 139.416 190.414 139.944 189.998 140.376C189.582 140.792 189.022 141 188.318 141C187.598 141 187.022 140.792 186.59 140.376C186.174 139.944 185.966 139.416 185.966 138.792V134.544C185.966 133.968 185.854 133.52 185.63 133.2C185.422 132.88 185.11 132.72 184.694 132.72C184.214 132.72 183.862 132.896 183.638 133.248C183.43 133.6 183.326 134.048 183.326 134.592V138.792C183.326 139.416 183.126 139.944 182.726 140.376C182.326 140.792 181.774 141 181.07 141ZM197.459 145.944C196.483 145.944 195.651 145.84 194.963 145.632C194.291 145.424 193.643 145.104 193.019 144.672C192.475 144.288 192.091 143.752 191.867 143.064C191.643 142.376 191.755 141.68 192.203 140.976C192.491 140.544 192.811 140.248 193.163 140.088C193.531 139.928 193.883 139.864 194.219 139.896C194.571 139.912 194.875 139.984 195.131 140.112C195.691 140.384 196.123 140.584 196.427 140.712C196.747 140.824 197.107 140.88 197.507 140.88C198.099 140.88 198.595 140.672 198.995 140.256C199.411 139.84 199.619 139.256 199.619 138.504V136.56H199.187C199.075 137.408 198.747 138.08 198.203 138.576C197.675 139.056 196.947 139.296 196.019 139.296C195.315 139.296 194.627 139.12 193.955 138.768C193.283 138.416 192.731 137.856 192.299 137.088C191.867 136.32 191.651 135.304 191.651 134.04C191.651 132.184 192.059 130.8 192.875 129.888C193.691 128.976 194.747 128.52 196.043 128.52C196.939 128.52 197.707 128.824 198.347 129.432C198.987 130.024 199.307 130.856 199.307 131.928L199.379 131.904V130.56C199.379 130 199.555 129.512 199.907 129.096C200.275 128.664 200.843 128.448 201.611 128.448C202.427 128.448 203.011 128.664 203.363 129.096C203.731 129.512 203.915 130 203.915 130.56L203.939 138.12C203.955 139.784 203.747 141.2 203.315 142.368C202.899 143.536 202.211 144.424 201.251 145.032C200.307 145.64 199.043 145.944 197.459 145.944ZM195.683 133.632C195.683 134.496 196.259 134.928 197.411 134.928C198.163 134.928 198.691 134.824 198.995 134.616C199.299 134.408 199.451 134.08 199.451 133.632C199.451 133.168 199.291 132.848 198.971 132.672C198.667 132.496 198.139 132.408 197.387 132.408C196.843 132.408 196.419 132.496 196.115 132.672C195.827 132.848 195.683 133.168 195.683 133.632ZM213.5 141C212.78 141 212.108 140.92 211.484 140.76C210.876 140.6 210.38 140.296 209.996 139.848C209.612 139.4 209.42 138.736 209.42 137.856C209.42 137.12 209.588 136.504 209.924 136.008C210.26 135.512 210.676 135.088 211.172 134.736C211.668 134.384 212.148 134.064 212.612 133.776L216.332 131.448C216.94 131.064 217.34 130.744 217.532 130.488C217.724 130.232 217.82 129.952 217.82 129.648C217.82 129.376 217.732 129.144 217.556 128.952C217.396 128.76 217.012 128.664 216.404 128.664C215.812 128.664 215.188 128.728 214.532 128.856C213.876 128.984 213.244 129.048 212.636 129.048C211.756 129.048 211.036 128.84 210.476 128.424C209.932 127.992 209.66 127.36 209.66 126.528C209.66 125.728 209.948 125.104 210.524 124.656C211.1 124.192 211.876 123.864 212.852 123.672C213.844 123.48 214.948 123.384 216.164 123.384C218.132 123.384 219.652 123.752 220.724 124.488C221.812 125.224 222.356 126.368 222.356 127.92C222.356 128.992 222.044 129.904 221.42 130.656C220.812 131.408 219.964 132.144 218.876 132.864L214.436 135.792H219.932C220.828 135.792 221.532 136.016 222.044 136.464C222.572 136.896 222.836 137.544 222.836 138.408C222.836 139.272 222.572 139.92 222.044 140.352C221.532 140.784 220.828 141 219.932 141H213.5ZM231.167 141.072C229.567 141.072 228.263 140.712 227.255 139.992C226.247 139.272 225.503 138.248 225.023 136.92C224.559 135.592 224.327 134.032 224.327 132.24C224.327 130.448 224.575 128.896 225.071 127.584C225.583 126.256 226.343 125.224 227.351 124.488C228.359 123.752 229.631 123.384 231.167 123.384C232.703 123.384 233.975 123.752 234.983 124.488C236.007 125.224 236.767 126.256 237.263 127.584C237.775 128.896 238.031 130.448 238.031 132.24C238.031 134.032 237.791 135.592 237.311 136.92C236.847 138.248 236.111 139.272 235.103 139.992C234.095 140.712 232.783 141.072 231.167 141.072ZM227.015 131.904C227.015 132.4 227.119 132.872 227.327 133.32C227.551 133.752 227.959 134.104 228.551 134.376C229.159 134.632 230.031 134.76 231.167 134.76C232.319 134.76 233.191 134.632 233.783 134.376C234.391 134.104 234.799 133.752 235.007 133.32C235.231 132.872 235.343 132.4 235.343 131.904C235.343 131.392 235.231 130.936 235.007 130.536C234.799 130.12 234.391 129.792 233.783 129.552C233.191 129.296 232.319 129.168 231.167 129.168C230.031 129.168 229.159 129.296 228.551 129.552C227.959 129.792 227.551 130.12 227.327 130.536C227.119 130.936 227.015 131.392 227.015 131.904ZM243.313 141C242.593 141 241.921 140.92 241.297 140.76C240.689 140.6 240.193 140.296 239.809 139.848C239.425 139.4 239.233 138.736 239.233 137.856C239.233 137.12 239.401 136.504 239.737 136.008C240.073 135.512 240.489 135.088 240.985 134.736C241.481 134.384 241.961 134.064 242.425 133.776L246.145 131.448C246.753 131.064 247.153 130.744 247.345 130.488C247.537 130.232 247.633 129.952 247.633 129.648C247.633 129.376 247.545 129.144 247.369 128.952C247.209 128.76 246.825 128.664 246.217 128.664C245.625 128.664 245.001 128.728 244.345 128.856C243.689 128.984 243.057 129.048 242.449 129.048C241.569 129.048 240.849 128.84 240.289 128.424C239.745 127.992 239.473 127.36 239.473 126.528C239.473 125.728 239.761 125.104 240.337 124.656C240.913 124.192 241.689 123.864 242.665 123.672C243.657 123.48 244.761 123.384 245.977 123.384C247.945 123.384 249.465 123.752 250.537 124.488C251.625 125.224 252.169 126.368 252.169 127.92C252.169 128.992 251.857 129.904 251.233 130.656C250.625 131.408 249.777 132.144 248.689 132.864L244.249 135.792H249.745C250.641 135.792 251.345 136.016 251.857 136.464C252.385 136.896 252.649 137.544 252.649 138.408C252.649 139.272 252.385 139.92 251.857 140.352C251.345 140.784 250.641 141 249.745 141H243.313ZM257.523 131.256C257.523 131.256 257.843 131.168 258.483 130.992C259.139 130.816 260.003 130.728 261.075 130.728C262.227 130.728 263.259 130.848 264.171 131.088C265.099 131.312 265.835 131.752 266.379 132.408C266.923 133.064 267.195 134.016 267.195 135.264C267.195 137.024 266.707 138.424 265.731 139.464C264.755 140.488 263.187 141 261.027 141C259.587 141 258.339 140.736 257.283 140.208C256.243 139.68 255.435 138.832 254.859 137.664C254.299 136.48 254.019 134.92 254.019 132.984C254.019 131.08 254.283 129.408 254.811 127.968C255.339 126.528 256.147 125.408 257.235 124.608C258.323 123.792 259.707 123.384 261.387 123.384C263.243 123.384 264.595 123.648 265.443 124.176C266.307 124.688 266.739 125.416 266.739 126.36C266.739 127.112 266.539 127.712 266.139 128.16C265.755 128.608 265.243 128.832 264.603 128.832C264.059 128.832 263.483 128.76 262.875 128.616C262.267 128.472 261.635 128.4 260.979 128.4C260.179 128.4 259.523 128.544 259.011 128.832C258.499 129.12 258.123 129.48 257.883 129.912C257.643 130.344 257.523 130.792 257.523 131.256ZM257.787 134.184C257.787 134.632 258.003 134.952 258.435 135.144C258.883 135.336 259.715 135.432 260.931 135.432C262.163 135.432 262.987 135.336 263.403 135.144C263.835 134.952 264.051 134.632 264.051 134.184C264.051 133.752 263.835 133.448 263.403 133.272C262.987 133.096 262.163 133.008 260.931 133.008C259.715 133.008 258.883 133.096 258.435 133.272C258.003 133.448 257.787 133.752 257.787 134.184ZM7.264 176.048C6.528 176.048 5.928 175.824 5.464 175.376C5 174.928 4.768 174.36 4.768 173.672V160.976C4.768 160.272 4.992 159.68 5.44 159.2C5.904 158.72 6.512 158.48 7.264 158.48C8.064 158.48 8.688 158.72 9.136 159.2C9.6 159.664 9.832 160.24 9.832 160.928V173.672C9.832 174.36 9.584 174.928 9.088 175.376C8.608 175.824 8 176.048 7.264 176.048ZM13.5854 176C12.8814 176 12.3134 175.792 11.8814 175.376C11.4654 174.944 11.2574 174.416 11.2574 173.792V165.848C11.2574 165.176 11.4574 164.608 11.8574 164.144C12.2574 163.68 12.8334 163.448 13.5854 163.448C14.3214 163.448 14.8814 163.68 15.2654 164.144C15.6494 164.608 15.8414 165.192 15.8414 165.896V167.096H16.2734C16.2734 166.184 16.4334 165.464 16.7534 164.936C17.0894 164.408 17.5134 164.032 18.0254 163.808C18.5374 163.568 19.0494 163.448 19.5614 163.448C20.7934 163.448 21.6974 163.896 22.2734 164.792C22.8494 165.672 23.1374 166.928 23.1374 168.56V173.792C23.1374 174.416 22.9294 174.944 22.5134 175.376C22.0974 175.792 21.5374 176 20.8334 176C20.1134 176 19.5374 175.792 19.1054 175.376C18.6894 174.944 18.4814 174.416 18.4814 173.792V169.544C18.4814 168.968 18.3694 168.52 18.1454 168.2C17.9374 167.88 17.6254 167.72 17.2094 167.72C16.7294 167.72 16.3774 167.896 16.1534 168.248C15.9454 168.6 15.8414 169.048 15.8414 169.592V173.792C15.8414 174.416 15.6414 174.944 15.2414 175.376C14.8414 175.792 14.2894 176 13.5854 176ZM30.8736 176.072C30.0256 176.072 29.2576 175.88 28.5696 175.496C27.8976 175.112 27.3696 174.568 26.9856 173.864C26.6016 173.144 26.4096 172.304 26.4096 171.344V167.12L25.5216 167.24C25.0416 167.304 24.6176 167.136 24.2496 166.736C23.8816 166.336 23.6976 165.832 23.6976 165.224C23.6976 164.616 23.8816 164.12 24.2496 163.736C24.6176 163.336 25.0416 163.168 25.5216 163.232L26.4096 163.352L26.3856 161.72C26.3696 161.08 26.5536 160.576 26.9376 160.208C27.3216 159.824 27.8816 159.632 28.6176 159.632C29.3536 159.632 29.9216 159.824 30.3216 160.208C30.7216 160.576 30.9056 161.08 30.8736 161.72L30.8256 163.352L32.0976 163.184C32.9616 163.056 33.6176 163.216 34.0656 163.664C34.5136 164.096 34.7376 164.616 34.7376 165.224C34.7376 165.832 34.5136 166.36 34.0656 166.808C33.6336 167.24 33.0016 167.4 32.1696 167.288L30.8256 167.12V170.696C30.8256 170.904 30.8976 171.096 31.0416 171.272C31.1856 171.432 31.3616 171.48 31.5696 171.416C31.8096 171.352 32.0576 171.216 32.3136 171.008C32.5856 170.8 32.9296 170.696 33.3456 170.696C33.9696 170.696 34.4496 170.92 34.7856 171.368C35.1216 171.816 35.2896 172.368 35.2896 173.024C35.2896 173.536 35.1056 174.032 34.7376 174.512C34.3856 174.976 33.8816 175.352 33.2256 175.64C32.5696 175.928 31.7856 176.072 30.8736 176.072ZM35.7239 169.76C35.7239 168.496 35.9719 167.384 36.4679 166.424C36.9799 165.464 37.6999 164.712 38.6279 164.168C39.5719 163.624 40.6919 163.352 41.9879 163.352C42.9959 163.352 43.8999 163.536 44.6999 163.904C45.5159 164.272 46.1559 164.768 46.6199 165.392C47.0839 166 47.3159 166.672 47.3159 167.408C47.3159 168.176 47.0919 168.72 46.6439 169.04C46.1959 169.36 45.5319 169.52 44.6519 169.52H39.6119C39.6119 169.936 39.7719 170.28 40.0919 170.552C40.4279 170.824 40.9879 170.96 41.7719 170.96C42.1719 170.96 42.5399 170.92 42.8759 170.84C43.2279 170.76 43.5799 170.688 43.9319 170.624C44.2999 170.544 44.7079 170.504 45.1559 170.504C45.7959 170.504 46.3239 170.736 46.7399 171.2C47.1559 171.648 47.3639 172.272 47.3639 173.072C47.3639 174.016 46.8759 174.752 45.8999 175.28C44.9399 175.808 43.6759 176.072 42.1079 176.072C41.0039 176.072 39.9639 175.856 38.9879 175.424C38.0279 174.992 37.2439 174.312 36.6359 173.384C36.0279 172.44 35.7239 171.232 35.7239 169.76ZM43.4999 168.728C43.7399 168.728 43.8199 168.616 43.7399 168.392C43.6759 168.168 43.4839 167.936 43.1639 167.696C42.8439 167.456 42.3799 167.336 41.7719 167.336C41.0679 167.336 40.5399 167.488 40.1879 167.792C39.8519 168.096 39.6839 168.408 39.6839 168.728H43.4999ZM51.0396 176C50.2876 176 49.7036 175.784 49.2876 175.352C48.8716 174.92 48.6636 174.376 48.6636 173.72V165.848C48.6636 165.16 48.8716 164.592 49.2876 164.144C49.7036 163.68 50.2876 163.448 51.0396 163.448C51.7916 163.448 52.3676 163.68 52.7676 164.144C53.1676 164.592 53.3676 165.144 53.3676 165.8V166.304H53.8236C53.8876 165.456 54.2076 164.76 54.7836 164.216C55.3596 163.672 56.0396 163.4 56.8236 163.4C57.6076 163.4 58.2236 163.64 58.6716 164.12C59.1356 164.6 59.3676 165.24 59.3676 166.04C59.3676 166.792 59.1516 167.416 58.7196 167.912C58.2876 168.408 57.7356 168.656 57.0636 168.656C56.5036 168.656 56.0316 168.528 55.6476 168.272C55.2796 168 55.0076 167.688 54.8316 167.336C54.3196 167.272 53.9436 167.328 53.7036 167.504C53.4796 167.664 53.3676 167.992 53.3676 168.488V173.72C53.3676 174.376 53.1676 174.92 52.7676 175.352C52.3676 175.784 51.7916 176 51.0396 176ZM63.0672 176C61.8832 176 60.9552 175.68 60.2832 175.04C59.6272 174.4 59.2992 173.504 59.2992 172.352C59.2992 171.2 59.6832 170.368 60.4512 169.856C61.2192 169.328 62.2032 169.064 63.4032 169.064C64.1072 169.064 64.7472 169.112 65.3232 169.208C65.8992 169.304 66.4192 169.44 66.8832 169.616H66.9552V169.256C66.9552 168.888 66.8192 168.6 66.5472 168.392C66.2752 168.168 65.9312 168.064 65.5152 168.08C65.1152 168.08 64.7712 168.104 64.4832 168.152C64.2112 168.2 63.8672 168.28 63.4512 168.392C62.6832 168.584 62.0192 168.568 61.4592 168.344C60.8992 168.12 60.5152 167.68 60.3072 167.024C60.1152 166.336 60.1552 165.76 60.4272 165.296C60.7152 164.832 61.1472 164.472 61.7232 164.216C62.2192 163.976 62.7712 163.776 63.3792 163.616C64.0032 163.456 64.6752 163.376 65.3952 163.376C67.4912 163.376 69.0272 163.888 70.0032 164.912C70.9952 165.92 71.4912 167.616 71.4912 170V173.72C71.4912 174.376 71.2912 174.92 70.8912 175.352C70.4912 175.784 69.9392 176 69.2352 176C68.4672 176 67.8912 175.784 67.5072 175.352C67.1392 174.92 66.9552 174.392 66.9552 173.768V173.216H66.4752C66.4752 173.632 66.3952 174.056 66.2352 174.488C66.0912 174.92 65.7792 175.28 65.2992 175.568C64.8352 175.856 64.0912 176 63.0672 176ZM63.3072 170.744C63.3072 171.016 63.4032 171.208 63.5952 171.32C63.8032 171.432 64.2432 171.488 64.9152 171.488C65.5232 171.488 65.9472 171.432 66.1872 171.32C66.4272 171.208 66.5472 171.016 66.5472 170.744C66.5472 170.488 66.4272 170.312 66.1872 170.216C65.9472 170.104 65.5232 170.048 64.9152 170.048C64.2432 170.048 63.8032 170.104 63.5952 170.216C63.4032 170.312 63.3072 170.488 63.3072 170.744ZM78.6676 176.072C77.4196 176.072 76.3156 175.816 75.3556 175.304C74.3956 174.776 73.6436 174.032 73.0996 173.072C72.5556 172.112 72.2836 170.984 72.2836 169.688C72.2836 168.392 72.5556 167.264 73.0996 166.304C73.6436 165.344 74.3956 164.6 75.3556 164.072C76.3316 163.544 77.4516 163.28 78.7156 163.28C79.7076 163.28 80.5796 163.384 81.3316 163.592C82.0996 163.8 82.6996 164.112 83.1316 164.528C83.5796 164.944 83.8036 165.464 83.8036 166.088C83.8036 166.84 83.6116 167.432 83.2276 167.864C82.8436 168.28 82.2916 168.488 81.5716 168.488C81.0916 168.488 80.6116 168.416 80.1316 168.272C79.6676 168.128 79.0676 168.056 78.3316 168.056C77.7236 168.056 77.2116 168.152 76.7956 168.344C76.3796 168.536 76.1716 168.888 76.1716 169.4C76.1716 169.928 76.3796 170.312 76.7956 170.552C77.2116 170.776 77.7236 170.888 78.3316 170.888C78.8276 170.888 79.2436 170.84 79.5796 170.744C79.9156 170.648 80.2356 170.552 80.5396 170.456C80.8436 170.36 81.1876 170.312 81.5716 170.312C82.3876 170.312 82.9876 170.552 83.3716 171.032C83.7716 171.496 83.9716 172.096 83.9716 172.832C83.9716 173.456 83.7396 174.016 83.2756 174.512C82.8116 174.992 82.1796 175.376 81.3796 175.664C80.5796 175.936 79.6756 176.072 78.6676 176.072ZM91.6471 176.072C90.7991 176.072 90.0311 175.88 89.3431 175.496C88.6711 175.112 88.1431 174.568 87.7591 173.864C87.3751 173.144 87.1831 172.304 87.1831 171.344V167.12L86.2951 167.24C85.8151 167.304 85.3911 167.136 85.0231 166.736C84.6551 166.336 84.4711 165.832 84.4711 165.224C84.4711 164.616 84.6551 164.12 85.0231 163.736C85.3911 163.336 85.8151 163.168 86.2951 163.232L87.1831 163.352L87.1591 161.72C87.1431 161.08 87.3271 160.576 87.7111 160.208C88.0951 159.824 88.6551 159.632 89.3911 159.632C90.1271 159.632 90.6951 159.824 91.0951 160.208C91.4951 160.576 91.6791 161.08 91.6471 161.72L91.5991 163.352L92.8711 163.184C93.7351 163.056 94.3911 163.216 94.8391 163.664C95.2871 164.096 95.5111 164.616 95.5111 165.224C95.5111 165.832 95.2871 166.36 94.8391 166.808C94.4071 167.24 93.7751 167.4 92.9431 167.288L91.5991 167.12V170.696C91.5991 170.904 91.6711 171.096 91.8151 171.272C91.9591 171.432 92.1351 171.48 92.3431 171.416C92.5831 171.352 92.8311 171.216 93.0871 171.008C93.3591 170.8 93.7031 170.696 94.1191 170.696C94.7431 170.696 95.2231 170.92 95.5591 171.368C95.8951 171.816 96.0631 172.368 96.0631 173.024C96.0631 173.536 95.8791 174.032 95.5111 174.512C95.1591 174.976 94.6551 175.352 93.9991 175.64C93.3431 175.928 92.5591 176.072 91.6471 176.072ZM96.802 160.664C96.802 159.976 97.01 159.424 97.426 159.008C97.858 158.576 98.45 158.36 99.202 158.36C100.002 158.36 100.594 158.568 100.978 158.984C101.378 159.4 101.578 159.952 101.578 160.64C101.578 161.312 101.378 161.856 100.978 162.272C100.594 162.672 100.002 162.872 99.202 162.872C98.418 162.872 97.818 162.672 97.402 162.272C97.002 161.856 96.802 161.32 96.802 160.664ZM99.202 176C98.45 176 97.89 175.792 97.522 175.376C97.154 174.96 96.97 174.44 96.97 173.816V165.608C96.97 164.92 97.154 164.376 97.522 163.976C97.89 163.576 98.45 163.376 99.202 163.376C99.954 163.376 100.514 163.576 100.882 163.976C101.266 164.376 101.458 164.904 101.458 165.56V173.816C101.458 174.44 101.258 174.96 100.858 175.376C100.474 175.792 99.922 176 99.202 176ZM109.021 176C107.981 176 107.093 175.696 106.357 175.088C105.621 174.48 105.013 173.472 104.533 172.064L102.637 166.592C102.381 165.872 102.381 165.208 102.637 164.6C102.909 163.992 103.405 163.608 104.125 163.448C104.765 163.304 105.325 163.368 105.805 163.64C106.301 163.912 106.653 164.368 106.861 165.008L108.733 170.504C108.957 171.144 109.229 171.616 109.549 171.92C109.885 172.224 110.293 172.296 110.773 172.136C111.221 171.96 111.461 171.672 111.493 171.272C111.541 170.856 111.453 170.376 111.229 169.832C111.037 169.336 110.781 168.912 110.461 168.56C110.141 168.208 109.853 167.84 109.597 167.456C109.341 167.072 109.213 166.592 109.213 166.016C109.213 165.184 109.477 164.536 110.005 164.072C110.549 163.592 111.261 163.368 112.141 163.4C112.893 163.416 113.509 163.68 113.989 164.192C114.469 164.704 114.709 165.352 114.709 166.136C114.709 166.568 114.637 167.032 114.493 167.528C114.349 168.024 114.189 168.544 114.013 169.088L113.053 172.112C112.797 172.912 112.509 173.608 112.189 174.2C111.885 174.776 111.485 175.224 110.989 175.544C110.509 175.848 109.853 176 109.021 176ZM115.107 169.76C115.107 168.496 115.355 167.384 115.851 166.424C116.363 165.464 117.083 164.712 118.011 164.168C118.955 163.624 120.075 163.352 121.371 163.352C122.379 163.352 123.283 163.536 124.083 163.904C124.899 164.272 125.539 164.768 126.003 165.392C126.467 166 126.699 166.672 126.699 167.408C126.699 168.176 126.475 168.72 126.027 169.04C125.579 169.36 124.915 169.52 124.035 169.52H118.995C118.995 169.936 119.155 170.28 119.475 170.552C119.811 170.824 120.371 170.96 121.155 170.96C121.555 170.96 121.923 170.92 122.259 170.84C122.611 170.76 122.963 170.688 123.315 170.624C123.683 170.544 124.091 170.504 124.539 170.504C125.179 170.504 125.707 170.736 126.123 171.2C126.539 171.648 126.747 172.272 126.747 173.072C126.747 174.016 126.259 174.752 125.283 175.28C124.323 175.808 123.059 176.072 121.491 176.072C120.387 176.072 119.347 175.856 118.371 175.424C117.411 174.992 116.627 174.312 116.019 173.384C115.411 172.44 115.107 171.232 115.107 169.76ZM122.883 168.728C123.123 168.728 123.203 168.616 123.123 168.392C123.059 168.168 122.867 167.936 122.547 167.696C122.227 167.456 121.763 167.336 121.155 167.336C120.451 167.336 119.923 167.488 119.571 167.792C119.235 168.096 119.067 168.408 119.067 168.728H122.883ZM134.716 176C133.884 176 133.268 175.752 132.868 175.256C132.468 174.76 132.268 174.096 132.268 173.264V162.08C132.268 160.864 132.596 159.968 133.252 159.392C133.924 158.816 134.724 158.528 135.652 158.528C136.532 158.528 137.276 158.816 137.884 159.392C138.508 159.968 138.964 160.88 139.252 162.128L141.124 170.264H141.748L143.62 162.128C143.908 160.88 144.364 159.968 144.988 159.392C145.628 158.816 146.388 158.528 147.268 158.528C148.196 158.528 148.988 158.816 149.644 159.392C150.316 159.968 150.652 160.864 150.652 162.08V173.264C150.652 174.096 150.444 174.76 150.028 175.256C149.628 175.752 149.012 176 148.18 176C147.38 176 146.764 175.752 146.332 175.256C145.9 174.76 145.684 174.096 145.684 173.264V166.808C145.684 166.648 145.66 166.504 145.612 166.376C145.58 166.232 145.476 166.16 145.3 166.16C145.156 166.16 145.052 166.232 144.988 166.376C144.924 166.504 144.876 166.648 144.844 166.808L143.932 172.856C143.82 173.512 143.684 174.08 143.524 174.56C143.38 175.024 143.148 175.384 142.828 175.64C142.508 175.88 142.044 176 141.436 176C140.844 176 140.38 175.88 140.044 175.64C139.724 175.384 139.484 175.024 139.324 174.56C139.18 174.08 139.06 173.512 138.964 172.856L138.028 166.808C138.012 166.648 137.972 166.504 137.908 166.376C137.844 166.232 137.732 166.16 137.572 166.16C137.412 166.16 137.308 166.232 137.26 166.376C137.212 166.504 137.188 166.648 137.188 166.808V173.264C137.188 174.096 136.972 174.76 136.54 175.256C136.124 175.752 135.516 176 134.716 176ZM151.974 169.76C151.974 168.496 152.222 167.384 152.718 166.424C153.23 165.464 153.95 164.712 154.878 164.168C155.822 163.624 156.942 163.352 158.238 163.352C159.246 163.352 160.15 163.536 160.95 163.904C161.766 164.272 162.406 164.768 162.87 165.392C163.334 166 163.566 166.672 163.566 167.408C163.566 168.176 163.342 168.72 162.894 169.04C162.446 169.36 161.782 169.52 160.902 169.52H155.862C155.862 169.936 156.022 170.28 156.342 170.552C156.678 170.824 157.238 170.96 158.022 170.96C158.422 170.96 158.79 170.92 159.126 170.84C159.478 170.76 159.83 170.688 160.182 170.624C160.55 170.544 160.958 170.504 161.406 170.504C162.046 170.504 162.574 170.736 162.99 171.2C163.406 171.648 163.614 172.272 163.614 173.072C163.614 174.016 163.126 174.752 162.15 175.28C161.19 175.808 159.926 176.072 158.358 176.072C157.254 176.072 156.214 175.856 155.238 175.424C154.278 174.992 153.494 174.312 152.886 173.384C152.278 172.44 151.974 171.232 151.974 169.76ZM159.75 168.728C159.99 168.728 160.07 168.616 159.99 168.392C159.926 168.168 159.734 167.936 159.414 167.696C159.094 167.456 158.63 167.336 158.022 167.336C157.318 167.336 156.79 167.488 156.438 167.792C156.102 168.096 155.934 168.408 155.934 168.728H159.75ZM168.975 176C166.063 176 164.607 173.856 164.607 169.568C164.607 167.712 164.967 166.232 165.687 165.128C166.407 164.008 167.487 163.448 168.927 163.448C169.711 163.448 170.343 163.608 170.823 163.928C171.319 164.248 171.703 164.688 171.975 165.248C172.263 165.792 172.471 166.424 172.599 167.144L172.671 167.12V159.848C172.671 159.192 172.863 158.64 173.247 158.192C173.647 157.728 174.223 157.496 174.975 157.496C175.711 157.496 176.255 157.728 176.607 158.192C176.975 158.64 177.159 159.208 177.159 159.896V170.696C177.159 171.24 177.199 171.744 177.279 172.208C177.375 172.656 177.447 173.104 177.495 173.552C177.543 174.16 177.415 174.688 177.111 175.136C176.823 175.568 176.303 175.848 175.551 175.976C174.575 176.136 173.847 175.968 173.367 175.472C172.903 174.976 172.671 174.24 172.671 173.264V172.376H172.215C172.215 173.544 171.919 174.44 171.327 175.064C170.751 175.688 169.967 176 168.975 176ZM168.615 169.352C168.615 169.848 168.767 170.216 169.071 170.456C169.375 170.696 169.919 170.816 170.703 170.816C171.503 170.816 172.055 170.696 172.359 170.456C172.663 170.216 172.815 169.848 172.815 169.352C172.815 168.84 172.663 168.472 172.359 168.248C172.071 168.008 171.527 167.888 170.727 167.888C169.927 167.888 169.375 168.008 169.071 168.248C168.767 168.472 168.615 168.84 168.615 169.352ZM178.552 160.664C178.552 159.976 178.76 159.424 179.176 159.008C179.608 158.576 180.2 158.36 180.952 158.36C181.752 158.36 182.344 158.568 182.728 158.984C183.128 159.4 183.328 159.952 183.328 160.64C183.328 161.312 183.128 161.856 182.728 162.272C182.344 162.672 181.752 162.872 180.952 162.872C180.168 162.872 179.568 162.672 179.152 162.272C178.752 161.856 178.552 161.32 178.552 160.664ZM180.952 176C180.2 176 179.64 175.792 179.272 175.376C178.904 174.96 178.72 174.44 178.72 173.816V165.608C178.72 164.92 178.904 164.376 179.272 163.976C179.64 163.576 180.2 163.376 180.952 163.376C181.704 163.376 182.264 163.576 182.632 163.976C183.016 164.376 183.208 164.904 183.208 165.56V173.816C183.208 174.44 183.008 174.96 182.608 175.376C182.224 175.792 181.672 176 180.952 176ZM188.083 176C186.899 176 185.971 175.68 185.299 175.04C184.643 174.4 184.315 173.504 184.315 172.352C184.315 171.2 184.699 170.368 185.467 169.856C186.235 169.328 187.219 169.064 188.419 169.064C189.123 169.064 189.763 169.112 190.339 169.208C190.915 169.304 191.435 169.44 191.899 169.616H191.971V169.256C191.971 168.888 191.835 168.6 191.563 168.392C191.291 168.168 190.947 168.064 190.531 168.08C190.131 168.08 189.787 168.104 189.499 168.152C189.227 168.2 188.883 168.28 188.467 168.392C187.699 168.584 187.035 168.568 186.475 168.344C185.915 168.12 185.531 167.68 185.323 167.024C185.131 166.336 185.171 165.76 185.443 165.296C185.731 164.832 186.163 164.472 186.739 164.216C187.235 163.976 187.787 163.776 188.395 163.616C189.019 163.456 189.691 163.376 190.411 163.376C192.507 163.376 194.043 163.888 195.019 164.912C196.011 165.92 196.507 167.616 196.507 170V173.72C196.507 174.376 196.307 174.92 195.907 175.352C195.507 175.784 194.955 176 194.251 176C193.483 176 192.907 175.784 192.523 175.352C192.155 174.92 191.971 174.392 191.971 173.768V173.216H191.491C191.491 173.632 191.411 174.056 191.251 174.488C191.107 174.92 190.795 175.28 190.315 175.568C189.851 175.856 189.107 176 188.083 176ZM188.323 170.744C188.323 171.016 188.419 171.208 188.611 171.32C188.819 171.432 189.259 171.488 189.931 171.488C190.539 171.488 190.963 171.432 191.203 171.32C191.443 171.208 191.563 171.016 191.563 170.744C191.563 170.488 191.443 170.312 191.203 170.216C190.963 170.104 190.539 170.048 189.931 170.048C189.259 170.048 188.819 170.104 188.611 170.216C188.419 170.312 188.323 170.488 188.323 170.744ZM204.678 176.048C203.942 176.048 203.342 175.824 202.878 175.376C202.414 174.928 202.182 174.36 202.182 173.672V160.976C202.182 160.272 202.406 159.68 202.854 159.2C203.318 158.72 203.926 158.48 204.678 158.48C205.478 158.48 206.102 158.72 206.55 159.2C207.014 159.664 207.246 160.24 207.246 160.928V173.672C207.246 174.36 206.998 174.928 206.502 175.376C206.022 175.824 205.414 176.048 204.678 176.048ZM211.287 176.048C210.551 176.048 209.951 175.824 209.487 175.376C209.023 174.928 208.791 174.36 208.791 173.672V160.976C208.791 160.272 209.015 159.68 209.463 159.2C209.927 158.72 210.535 158.48 211.287 158.48C212.087 158.48 212.711 158.72 213.159 159.2C213.623 159.664 213.855 160.24 213.855 160.928V173.672C213.855 174.36 213.607 174.928 213.111 175.376C212.631 175.824 212.023 176.048 211.287 176.048ZM217.897 176.048C217.161 176.048 216.561 175.824 216.097 175.376C215.633 174.928 215.401 174.36 215.401 173.672V160.976C215.401 160.272 215.625 159.68 216.073 159.2C216.537 158.72 217.145 158.48 217.897 158.48C218.697 158.48 219.321 158.72 219.769 159.2C220.233 159.664 220.465 160.24 220.465 160.928V173.672C220.465 174.36 220.217 174.928 219.721 175.376C219.241 175.824 218.633 176.048 217.897 176.048Z" fill="#D55C10"/>
<path d="M14.032 121.528C15.936 121.528 17.488 121.888 18.688 122.608C19.904 123.312 20.8 124.32 21.376 125.632C21.968 126.928 22.264 128.472 22.264 130.264C22.264 133.272 21.616 135.48 20.32 136.888C19.024 138.296 17.04 139 14.368 139H13.312C12.528 139 11.8 138.92 11.128 138.76C10.456 138.6 9.864 138.312 9.352 137.896C8.84 137.464 8.44 136.864 8.152 136.096C7.864 135.328 7.72 134.336 7.72 133.12C7.72 131.984 7.872 131 8.176 130.168C8.496 129.336 8.872 128.672 9.304 128.176C9.736 127.68 10.128 127.376 10.48 127.264L10.36 126.808H9.952C9.216 126.808 8.632 126.576 8.2 126.112C7.784 125.632 7.568 124.992 7.552 124.192C7.536 123.392 7.744 122.752 8.176 122.272C8.624 121.776 9.216 121.528 9.952 121.528H14.032ZM12.304 132.808C12.304 133.144 12.376 133.376 12.52 133.504C12.68 133.632 12.912 133.696 13.216 133.696H14.512C15.328 133.696 15.96 133.52 16.408 133.168C16.856 132.816 17.168 132.368 17.344 131.824C17.536 131.264 17.632 130.672 17.632 130.048C17.632 129.424 17.536 128.824 17.344 128.248C17.168 127.672 16.856 127.2 16.408 126.832C15.96 126.464 15.328 126.28 14.512 126.28H13.216C12.912 126.28 12.68 126.352 12.52 126.496C12.376 126.624 12.304 126.864 12.304 127.216V132.808ZM29.4912 138.952C28.7072 138.952 27.9552 138.88 27.2352 138.736C26.5312 138.592 25.9072 138.32 25.3632 137.92C24.8352 137.504 24.4112 136.912 24.0912 136.144C23.7872 135.36 23.6352 134.336 23.6352 133.072C23.6352 131.936 23.7872 130.96 24.0912 130.144C24.3952 129.328 24.7552 128.68 25.1712 128.2C25.6032 127.72 25.9952 127.424 26.3472 127.312L26.2272 126.856H25.8192C25.0832 126.856 24.4992 126.624 24.0672 126.16C23.6512 125.68 23.4352 125.032 23.4192 124.216C23.4032 123.416 23.6112 122.776 24.0432 122.296C24.4912 121.816 25.0832 121.576 25.8192 121.576H34.4352C36.1472 121.576 37.0032 122.376 37.0032 123.976C37.0032 124.696 36.7952 125.272 36.3792 125.704C35.9632 126.136 35.3152 126.352 34.4352 126.352H29.4672C28.8752 126.352 28.5792 126.696 28.5792 127.384V129.184C29.3792 129.008 30.2112 128.8 31.0752 128.56C31.9552 128.32 32.7872 128.2 33.5712 128.2C34.3232 128.2 34.8832 128.368 35.2512 128.704C35.6352 129.024 35.8272 129.464 35.8272 130.024C35.8272 130.6 35.6352 131.056 35.2512 131.392C34.8832 131.712 34.3232 131.88 33.5712 131.896C32.7872 131.912 31.9552 131.8 31.0752 131.56C30.1952 131.32 29.3552 131.112 28.5552 130.936V134.08C28.5552 134.384 28.6352 134.6 28.7952 134.728C28.9712 134.84 29.2432 134.792 29.6112 134.584C30.4112 134.12 31.1952 133.752 31.9632 133.48C32.7312 133.192 33.4832 133.048 34.2192 133.048C35.2592 133.048 36.0432 133.32 36.5712 133.864C37.1152 134.408 37.3872 135.12 37.3872 136C37.3872 136.944 37.0992 137.672 36.5232 138.184C35.9632 138.696 35.0512 138.952 33.7872 138.952H29.4912ZM45.7694 139.072C44.8734 139.072 43.9694 138.984 43.0574 138.808C42.1614 138.616 41.3294 138.344 40.5614 137.992C39.8094 137.624 39.2014 137.184 38.7374 136.672C38.2734 136.144 38.0414 135.536 38.0414 134.848C38.0414 133.968 38.3214 133.264 38.8814 132.736C39.4414 132.208 40.0974 131.96 40.8494 131.992C41.4414 132.008 42.0334 132.136 42.6254 132.376C43.2174 132.6 43.8174 132.824 44.4254 133.048C45.0494 133.272 45.6734 133.384 46.2974 133.384C46.9214 133.384 47.3534 133.304 47.5934 133.144C47.8334 132.984 47.9534 132.768 47.9534 132.496C47.9534 132.176 47.7854 131.912 47.4494 131.704C47.1134 131.496 46.6894 131.336 46.1774 131.224L45.0014 130.936C43.7854 130.648 42.6974 130.328 41.7374 129.976C40.7774 129.608 40.0174 129.128 39.4574 128.536C38.9134 127.928 38.6414 127.12 38.6414 126.112C38.6414 125.008 38.9454 124.112 39.5534 123.424C40.1614 122.72 40.9854 122.208 42.0254 121.888C43.0654 121.568 44.2254 121.408 45.5054 121.408C46.8174 121.408 47.9694 121.544 48.9614 121.816C49.9534 122.088 50.7214 122.48 51.2654 122.992C51.8254 123.504 52.1054 124.128 52.1054 124.864C52.1054 125.648 51.8894 126.264 51.4574 126.712C51.0414 127.144 50.4814 127.36 49.7774 127.36C49.3134 127.36 48.8254 127.28 48.3134 127.12C47.8174 126.96 47.2894 126.808 46.7294 126.664C46.1854 126.504 45.6014 126.424 44.9774 126.424C44.4174 126.424 43.9934 126.512 43.7054 126.688C43.4174 126.848 43.2734 127.064 43.2734 127.336C43.2734 127.672 43.4654 127.92 43.8494 128.08C44.2334 128.24 44.8654 128.432 45.7454 128.656L47.0894 128.968C48.1934 129.24 49.1614 129.568 49.9934 129.952C50.8254 130.336 51.4734 130.84 51.9374 131.464C52.4014 132.088 52.6334 132.904 52.6334 133.912C52.6334 135.128 52.3454 136.12 51.7694 136.888C51.1934 137.64 50.3934 138.192 49.3694 138.544C48.3454 138.896 47.1454 139.072 45.7694 139.072ZM65.0472 139.048C64.2632 139.048 63.6552 138.808 63.2232 138.328C62.7912 137.848 62.5752 137.256 62.5752 136.552V127.96H62.0952C61.9832 128.328 61.7432 128.656 61.3752 128.944C61.0072 129.232 60.5432 129.376 59.9832 129.376C59.3752 129.376 58.8392 129.176 58.3752 128.776C57.9272 128.36 57.7032 127.784 57.7032 127.048C57.7032 126.488 57.8312 126.016 58.0872 125.632C58.3432 125.248 58.6712 124.872 59.0712 124.504L60.8232 122.944C61.4312 122.4 61.9992 122.008 62.5272 121.768C63.0552 121.512 63.6632 121.384 64.3512 121.384C64.9112 121.384 65.4312 121.504 65.9112 121.744C66.3912 121.984 66.7752 122.36 67.0632 122.872C67.3672 123.368 67.5192 124.024 67.5192 124.84V136.552C67.5192 137.256 67.3112 137.848 66.8952 138.328C66.4792 138.808 65.8632 139.048 65.0472 139.048ZM77.6418 128.584C78.6018 128.584 79.4498 128.728 80.1858 129.016C80.9378 129.304 81.5218 129.8 81.9378 130.504C82.3698 131.192 82.5858 132.168 82.5858 133.432C82.5858 134.536 82.3858 135.456 81.9858 136.192C81.6018 136.912 81.0738 137.48 80.4018 137.896C79.7458 138.296 79.0018 138.584 78.1698 138.76C77.3378 138.92 76.4738 139 75.5778 139C73.5458 139 71.9698 138.752 70.8498 138.256C69.7298 137.744 69.1698 136.872 69.1698 135.64C69.1698 134.776 69.4578 134.112 70.0338 133.648C70.6098 133.168 71.3538 132.984 72.2658 133.096C72.9698 133.176 73.7378 133.264 74.5698 133.36C75.4018 133.456 76.2818 133.496 77.2098 133.48C77.8338 133.48 78.2818 133.384 78.5538 133.192C78.8418 132.984 78.9858 132.688 78.9858 132.304C78.9858 131.84 78.8418 131.488 78.5538 131.248C78.2818 130.992 77.8338 130.864 77.2098 130.864H72.3858C71.5218 130.864 70.8578 130.704 70.3938 130.384C69.9298 130.064 69.6978 129.488 69.6978 128.656V124.696C69.6978 123.864 69.8258 123.224 70.0818 122.776C70.3538 122.328 70.7218 122.016 71.1858 121.84C71.6658 121.664 72.2098 121.576 72.8178 121.576H79.3218C80.3618 121.576 81.0898 121.808 81.5058 122.272C81.9218 122.736 82.1298 123.344 82.1298 124.096C82.1298 124.848 81.9218 125.472 81.5058 125.968C81.0898 126.448 80.3618 126.688 79.3218 126.688C78.4898 126.688 77.6578 126.504 76.8258 126.136C76.0098 125.768 75.3218 125.264 74.7617 124.624H74.2818V128.584H77.6418ZM93.4913 125.176C93.0433 125.448 92.4913 125.752 91.8353 126.088C91.1953 126.408 90.4353 126.688 89.5553 126.928C88.6753 127.168 87.6593 127.288 86.5073 127.288C85.5473 127.288 84.8273 127.024 84.3473 126.496C83.8673 125.952 83.6273 125.272 83.6273 124.456C83.6273 123.624 83.8673 122.936 84.3473 122.392C84.8273 121.848 85.5473 121.576 86.5073 121.576H93.5633C94.7473 121.576 95.6513 121.856 96.2753 122.416C96.9153 122.976 97.2353 123.84 97.2353 125.008C97.2353 125.6 97.1393 126.12 96.9473 126.568C96.7553 127.016 96.4993 127.44 96.1793 127.84C95.8593 128.24 95.5153 128.656 95.1473 129.088C94.7953 129.52 94.4513 130 94.1153 130.528C93.6193 131.312 93.2193 132.224 92.9153 133.264C92.6113 134.304 92.3953 135.384 92.2673 136.504C92.1713 137.352 91.8993 138 91.4513 138.448C91.0193 138.88 90.3793 139.104 89.5313 139.12C88.6673 139.136 87.9633 138.896 87.4193 138.4C86.8753 137.904 86.6113 137.208 86.6273 136.312C86.6593 134.76 86.8993 133.336 87.3473 132.04C87.8113 130.744 88.4353 129.696 89.2193 128.896C89.6833 128.416 90.1793 127.984 90.7073 127.6C91.2513 127.216 91.7633 126.888 92.2433 126.616C92.7233 126.328 93.1153 126.112 93.4193 125.968C93.7233 125.824 93.8753 125.752 93.8753 125.752L93.4913 125.176ZM103.608 138.976C102.872 138.944 102.184 138.84 101.544 138.664C100.92 138.488 100.368 138.192 99.8883 137.776C99.4083 137.344 99.0323 136.752 98.7603 136C98.5043 135.248 98.3763 134.288 98.3763 133.12C98.3763 131.984 98.5283 131 98.8323 130.168C99.1523 129.336 99.5283 128.672 99.9603 128.176C100.392 127.68 100.784 127.376 101.136 127.264L101.016 126.808H100.608C99.8723 126.808 99.2883 126.576 98.8563 126.112C98.4403 125.632 98.2243 124.992 98.2083 124.192C98.1923 123.392 98.4003 122.752 98.8323 122.272C99.2803 121.776 99.8723 121.528 100.608 121.528H107.208C108.936 121.528 110.184 121.944 110.952 122.776C111.72 123.592 112.104 124.656 112.104 125.968C112.104 127.024 111.856 127.904 111.36 128.608C110.88 129.312 110.152 129.736 109.176 129.88V130.24C110.232 130.288 111.088 130.656 111.744 131.344C112.416 132.016 112.752 133.016 112.752 134.344C112.752 135.784 112.336 136.928 111.504 137.776C110.672 138.608 109.304 139.016 107.4 139L103.608 138.976ZM102.96 128.2C102.96 128.552 103.024 128.784 103.152 128.896C103.28 129.008 103.52 129.064 103.872 129.064H106.08C106.688 129.064 107.152 128.976 107.472 128.8C107.792 128.608 107.952 128.24 107.952 127.696C107.952 127.136 107.792 126.768 107.472 126.592C107.152 126.416 106.688 126.328 106.08 126.328H103.872C103.52 126.328 103.28 126.376 103.152 126.472C103.024 126.568 102.96 126.8 102.96 127.168V128.2ZM102.96 133.024C102.96 133.376 103.024 133.616 103.152 133.744C103.296 133.872 103.552 133.936 103.92 133.936H106.392C107.016 133.936 107.496 133.824 107.832 133.6C108.168 133.376 108.336 132.976 108.336 132.4C108.336 131.824 108.168 131.432 107.832 131.224C107.496 131 107.016 130.888 106.392 130.888H103.92C103.552 130.888 103.296 130.944 103.152 131.056C103.024 131.168 102.96 131.4 102.96 131.752V133.024ZM120.942 132.496C120.366 132.496 119.87 132.296 119.454 131.896C119.038 131.48 118.83 130.928 118.83 130.24C118.83 129.584 119.038 129.056 119.454 128.656C119.87 128.256 120.374 128.056 120.966 128.056H126.486C127.094 128.056 127.59 128.264 127.974 128.68C128.358 129.08 128.55 129.6 128.55 130.24C128.55 130.88 128.358 131.416 127.974 131.848C127.59 132.28 127.094 132.496 126.486 132.496H120.942ZM142.426 139.072C141.53 139.072 140.626 138.984 139.714 138.808C138.818 138.616 137.986 138.344 137.218 137.992C136.466 137.624 135.858 137.184 135.394 136.672C134.93 136.144 134.698 135.536 134.698 134.848C134.698 133.968 134.978 133.264 135.538 132.736C136.098 132.208 136.754 131.96 137.506 131.992C138.098 132.008 138.69 132.136 139.282 132.376C139.874 132.6 140.474 132.824 141.082 133.048C141.706 133.272 142.33 133.384 142.954 133.384C143.578 133.384 144.01 133.304 144.25 133.144C144.49 132.984 144.61 132.768 144.61 132.496C144.61 132.176 144.442 131.912 144.106 131.704C143.77 131.496 143.346 131.336 142.834 131.224L141.658 130.936C140.442 130.648 139.354 130.328 138.394 129.976C137.434 129.608 136.674 129.128 136.114 128.536C135.57 127.928 135.298 127.12 135.298 126.112C135.298 125.008 135.602 124.112 136.21 123.424C136.818 122.72 137.642 122.208 138.682 121.888C139.722 121.568 140.882 121.408 142.162 121.408C143.474 121.408 144.626 121.544 145.618 121.816C146.61 122.088 147.378 122.48 147.922 122.992C148.482 123.504 148.762 124.128 148.762 124.864C148.762 125.648 148.546 126.264 148.114 126.712C147.698 127.144 147.138 127.36 146.434 127.36C145.97 127.36 145.482 127.28 144.97 127.12C144.474 126.96 143.946 126.808 143.386 126.664C142.842 126.504 142.258 126.424 141.634 126.424C141.074 126.424 140.65 126.512 140.362 126.688C140.074 126.848 139.93 127.064 139.93 127.336C139.93 127.672 140.122 127.92 140.506 128.08C140.89 128.24 141.522 128.432 142.402 128.656L143.746 128.968C144.85 129.24 145.818 129.568 146.65 129.952C147.482 130.336 148.13 130.84 148.594 131.464C149.058 132.088 149.29 132.904 149.29 133.912C149.29 135.128 149.002 136.12 148.426 136.888C147.85 137.64 147.05 138.192 146.026 138.544C145.002 138.896 143.802 139.072 142.426 139.072ZM158.714 139C157.834 139 157.098 138.728 156.506 138.184C155.93 137.64 155.562 136.936 155.402 136.072H154.97V141.592C154.97 142.248 154.786 142.8 154.418 143.248C154.05 143.712 153.49 143.944 152.738 143.944C152.018 143.944 151.458 143.712 151.058 143.248C150.674 142.8 150.482 142.232 150.482 141.544V132.568C150.482 131.768 150.45 131.096 150.386 130.552C150.338 129.992 150.29 129.488 150.242 129.04C150.178 128.368 150.314 127.8 150.65 127.336C150.986 126.856 151.53 126.568 152.282 126.472C153.258 126.344 153.946 126.52 154.346 127C154.762 127.464 154.97 128.192 154.97 129.184V130.336L155.066 130.36C155.146 129.736 155.33 129.128 155.618 128.536C155.922 127.928 156.346 127.432 156.89 127.048C157.434 126.648 158.122 126.448 158.954 126.448C160.346 126.448 161.378 127.008 162.05 128.128C162.738 129.232 163.082 130.712 163.082 132.568C163.082 136.856 161.626 139 158.714 139ZM154.874 132.52C154.874 132.776 154.906 132.976 154.97 133.12C155.066 133.424 155.266 133.648 155.57 133.792C155.89 133.92 156.362 133.984 156.986 133.984C157.786 133.984 158.33 133.864 158.618 133.624C158.922 133.384 159.074 133.016 159.074 132.52C159.074 132.008 158.93 131.64 158.642 131.416C158.354 131.176 157.81 131.056 157.01 131.056C156.37 131.056 155.89 131.128 155.57 131.272C155.266 131.4 155.066 131.616 154.97 131.92C154.906 132.064 154.874 132.264 154.874 132.52ZM166.657 139C165.905 139 165.321 138.784 164.905 138.352C164.489 137.92 164.281 137.376 164.281 136.72V128.848C164.281 128.16 164.489 127.592 164.905 127.144C165.321 126.68 165.905 126.448 166.657 126.448C167.409 126.448 167.985 126.68 168.385 127.144C168.785 127.592 168.985 128.144 168.985 128.8V129.304H169.441C169.505 128.456 169.825 127.76 170.401 127.216C170.977 126.672 171.657 126.4 172.441 126.4C173.225 126.4 173.841 126.64 174.289 127.12C174.753 127.6 174.985 128.24 174.985 129.04C174.985 129.792 174.769 130.416 174.337 130.912C173.905 131.408 173.353 131.656 172.681 131.656C172.121 131.656 171.649 131.528 171.265 131.272C170.897 131 170.625 130.688 170.449 130.336C169.937 130.272 169.561 130.328 169.321 130.504C169.097 130.664 168.985 130.992 168.985 131.488V136.72C168.985 137.376 168.785 137.92 168.385 138.352C167.985 138.784 167.409 139 166.657 139ZM175.763 123.664C175.763 122.976 175.971 122.424 176.387 122.008C176.819 121.576 177.411 121.36 178.163 121.36C178.963 121.36 179.555 121.568 179.939 121.984C180.339 122.4 180.539 122.952 180.539 123.64C180.539 124.312 180.339 124.856 179.939 125.272C179.555 125.672 178.963 125.872 178.163 125.872C177.379 125.872 176.779 125.672 176.363 125.272C175.963 124.856 175.763 124.32 175.763 123.664ZM178.163 139C177.411 139 176.851 138.792 176.483 138.376C176.115 137.96 175.931 137.44 175.931 136.816V128.608C175.931 127.92 176.115 127.376 176.483 126.976C176.851 126.576 177.411 126.376 178.163 126.376C178.915 126.376 179.475 126.576 179.843 126.976C180.227 127.376 180.419 127.904 180.419 128.56V136.816C180.419 137.44 180.219 137.96 179.819 138.376C179.435 138.792 178.883 139 178.163 139ZM184.07 139C183.366 139 182.798 138.792 182.366 138.376C181.95 137.944 181.742 137.416 181.742 136.792V128.848C181.742 128.176 181.942 127.608 182.342 127.144C182.742 126.68 183.318 126.448 184.07 126.448C184.806 126.448 185.366 126.68 185.75 127.144C186.134 127.608 186.326 128.192 186.326 128.896V130.096H186.758C186.758 129.184 186.918 128.464 187.238 127.936C187.574 127.408 187.998 127.032 188.51 126.808C189.022 126.568 189.534 126.448 190.046 126.448C191.278 126.448 192.182 126.896 192.758 127.792C193.334 128.672 193.622 129.928 193.622 131.56V136.792C193.622 137.416 193.414 137.944 192.998 138.376C192.582 138.792 192.022 139 191.318 139C190.598 139 190.022 138.792 189.59 138.376C189.174 137.944 188.966 137.416 188.966 136.792V132.544C188.966 131.968 188.854 131.52 188.63 131.2C188.422 130.88 188.11 130.72 187.694 130.72C187.214 130.72 186.862 130.896 186.638 131.248C186.43 131.6 186.326 132.048 186.326 132.592V136.792C186.326 137.416 186.126 137.944 185.726 138.376C185.326 138.792 184.774 139 184.07 139ZM200.459 143.944C199.483 143.944 198.651 143.84 197.963 143.632C197.291 143.424 196.643 143.104 196.019 142.672C195.475 142.288 195.091 141.752 194.867 141.064C194.643 140.376 194.755 139.68 195.203 138.976C195.491 138.544 195.811 138.248 196.163 138.088C196.531 137.928 196.883 137.864 197.219 137.896C197.571 137.912 197.875 137.984 198.131 138.112C198.691 138.384 199.123 138.584 199.427 138.712C199.747 138.824 200.107 138.88 200.507 138.88C201.099 138.88 201.595 138.672 201.995 138.256C202.411 137.84 202.619 137.256 202.619 136.504V134.56H202.187C202.075 135.408 201.747 136.08 201.203 136.576C200.675 137.056 199.947 137.296 199.019 137.296C198.315 137.296 197.627 137.12 196.955 136.768C196.283 136.416 195.731 135.856 195.299 135.088C194.867 134.32 194.651 133.304 194.651 132.04C194.651 130.184 195.059 128.8 195.875 127.888C196.691 126.976 197.747 126.52 199.043 126.52C199.939 126.52 200.707 126.824 201.347 127.432C201.987 128.024 202.307 128.856 202.307 129.928L202.379 129.904V128.56C202.379 128 202.555 127.512 202.907 127.096C203.275 126.664 203.843 126.448 204.611 126.448C205.427 126.448 206.011 126.664 206.363 127.096C206.731 127.512 206.915 128 206.915 128.56L206.939 136.12C206.955 137.784 206.747 139.2 206.315 140.368C205.899 141.536 205.211 142.424 204.251 143.032C203.307 143.64 202.043 143.944 200.459 143.944ZM198.683 131.632C198.683 132.496 199.259 132.928 200.411 132.928C201.163 132.928 201.691 132.824 201.995 132.616C202.299 132.408 202.451 132.08 202.451 131.632C202.451 131.168 202.291 130.848 201.971 130.672C201.667 130.496 201.139 130.408 200.387 130.408C199.843 130.408 199.419 130.496 199.115 130.672C198.827 130.848 198.683 131.168 198.683 131.632ZM216.5 139C215.78 139 215.108 138.92 214.484 138.76C213.876 138.6 213.38 138.296 212.996 137.848C212.612 137.4 212.42 136.736 212.42 135.856C212.42 135.12 212.588 134.504 212.924 134.008C213.26 133.512 213.676 133.088 214.172 132.736C214.668 132.384 215.148 132.064 215.612 131.776L219.332 129.448C219.94 129.064 220.34 128.744 220.532 128.488C220.724 128.232 220.82 127.952 220.82 127.648C220.82 127.376 220.732 127.144 220.556 126.952C220.396 126.76 220.012 126.664 219.404 126.664C218.812 126.664 218.188 126.728 217.532 126.856C216.876 126.984 216.244 127.048 215.636 127.048C214.756 127.048 214.036 126.84 213.476 126.424C212.932 125.992 212.66 125.36 212.66 124.528C212.66 123.728 212.948 123.104 213.524 122.656C214.1 122.192 214.876 121.864 215.852 121.672C216.844 121.48 217.948 121.384 219.164 121.384C221.132 121.384 222.652 121.752 223.724 122.488C224.812 123.224 225.356 124.368 225.356 125.92C225.356 126.992 225.044 127.904 224.42 128.656C223.812 129.408 222.964 130.144 221.876 130.864L217.436 133.792H222.932C223.828 133.792 224.532 134.016 225.044 134.464C225.572 134.896 225.836 135.544 225.836 136.408C225.836 137.272 225.572 137.92 225.044 138.352C224.532 138.784 223.828 139 222.932 139H216.5ZM234.167 139.072C232.567 139.072 231.263 138.712 230.255 137.992C229.247 137.272 228.503 136.248 228.023 134.92C227.559 133.592 227.327 132.032 227.327 130.24C227.327 128.448 227.575 126.896 228.071 125.584C228.583 124.256 229.343 123.224 230.351 122.488C231.359 121.752 232.631 121.384 234.167 121.384C235.703 121.384 236.975 121.752 237.983 122.488C239.007 123.224 239.767 124.256 240.263 125.584C240.775 126.896 241.031 128.448 241.031 130.24C241.031 132.032 240.791 133.592 240.311 134.92C239.847 136.248 239.111 137.272 238.103 137.992C237.095 138.712 235.783 139.072 234.167 139.072ZM230.015 129.904C230.015 130.4 230.119 130.872 230.327 131.32C230.551 131.752 230.959 132.104 231.551 132.376C232.159 132.632 233.031 132.76 234.167 132.76C235.319 132.76 236.191 132.632 236.783 132.376C237.391 132.104 237.799 131.752 238.007 131.32C238.231 130.872 238.343 130.4 238.343 129.904C238.343 129.392 238.231 128.936 238.007 128.536C237.799 128.12 237.391 127.792 236.783 127.552C236.191 127.296 235.319 127.168 234.167 127.168C233.031 127.168 232.159 127.296 231.551 127.552C230.959 127.792 230.551 128.12 230.327 128.536C230.119 128.936 230.015 129.392 230.015 129.904ZM246.313 139C245.593 139 244.921 138.92 244.297 138.76C243.689 138.6 243.193 138.296 242.809 137.848C242.425 137.4 242.233 136.736 242.233 135.856C242.233 135.12 242.401 134.504 242.737 134.008C243.073 133.512 243.489 133.088 243.985 132.736C244.481 132.384 244.961 132.064 245.425 131.776L249.145 129.448C249.753 129.064 250.153 128.744 250.345 128.488C250.537 128.232 250.633 127.952 250.633 127.648C250.633 127.376 250.545 127.144 250.369 126.952C250.209 126.76 249.825 126.664 249.217 126.664C248.625 126.664 248.001 126.728 247.345 126.856C246.689 126.984 246.057 127.048 245.449 127.048C244.569 127.048 243.849 126.84 243.289 126.424C242.745 125.992 242.473 125.36 242.473 124.528C242.473 123.728 242.761 123.104 243.337 122.656C243.913 122.192 244.689 121.864 245.665 121.672C246.657 121.48 247.761 121.384 248.977 121.384C250.945 121.384 252.465 121.752 253.537 122.488C254.625 123.224 255.169 124.368 255.169 125.92C255.169 126.992 254.857 127.904 254.233 128.656C253.625 129.408 252.777 130.144 251.689 130.864L247.249 133.792H252.745C253.641 133.792 254.345 134.016 254.857 134.464C255.385 134.896 255.649 135.544 255.649 136.408C255.649 137.272 255.385 137.92 254.857 138.352C254.345 138.784 253.641 139 252.745 139H246.313ZM260.523 129.256C260.523 129.256 260.843 129.168 261.483 128.992C262.139 128.816 263.003 128.728 264.075 128.728C265.227 128.728 266.259 128.848 267.171 129.088C268.099 129.312 268.835 129.752 269.379 130.408C269.923 131.064 270.195 132.016 270.195 133.264C270.195 135.024 269.707 136.424 268.731 137.464C267.755 138.488 266.187 139 264.027 139C262.587 139 261.339 138.736 260.283 138.208C259.243 137.68 258.435 136.832 257.859 135.664C257.299 134.48 257.019 132.92 257.019 130.984C257.019 129.08 257.283 127.408 257.811 125.968C258.339 124.528 259.147 123.408 260.235 122.608C261.323 121.792 262.707 121.384 264.387 121.384C266.243 121.384 267.595 121.648 268.443 122.176C269.307 122.688 269.739 123.416 269.739 124.36C269.739 125.112 269.539 125.712 269.139 126.16C268.755 126.608 268.243 126.832 267.603 126.832C267.059 126.832 266.483 126.76 265.875 126.616C265.267 126.472 264.635 126.4 263.979 126.4C263.179 126.4 262.523 126.544 262.011 126.832C261.499 127.12 261.123 127.48 260.883 127.912C260.643 128.344 260.523 128.792 260.523 129.256ZM260.787 132.184C260.787 132.632 261.003 132.952 261.435 133.144C261.883 133.336 262.715 133.432 263.931 133.432C265.163 133.432 265.987 133.336 266.403 133.144C266.835 132.952 267.051 132.632 267.051 132.184C267.051 131.752 266.835 131.448 266.403 131.272C265.987 131.096 265.163 131.008 263.931 131.008C262.715 131.008 261.883 131.096 261.435 131.272C261.003 131.448 260.787 131.752 260.787 132.184ZM10.264 174.048C9.528 174.048 8.928 173.824 8.464 173.376C8 172.928 7.768 172.36 7.768 171.672V158.976C7.768 158.272 7.992 157.68 8.44 157.2C8.904 156.72 9.512 156.48 10.264 156.48C11.064 156.48 11.688 156.72 12.136 157.2C12.6 157.664 12.832 158.24 12.832 158.928V171.672C12.832 172.36 12.584 172.928 12.088 173.376C11.608 173.824 11 174.048 10.264 174.048ZM16.5854 174C15.8814 174 15.3134 173.792 14.8814 173.376C14.4654 172.944 14.2574 172.416 14.2574 171.792V163.848C14.2574 163.176 14.4574 162.608 14.8574 162.144C15.2574 161.68 15.8334 161.448 16.5854 161.448C17.3214 161.448 17.8814 161.68 18.2654 162.144C18.6494 162.608 18.8414 163.192 18.8414 163.896V165.096H19.2734C19.2734 164.184 19.4334 163.464 19.7534 162.936C20.0894 162.408 20.5134 162.032 21.0254 161.808C21.5374 161.568 22.0494 161.448 22.5614 161.448C23.7934 161.448 24.6974 161.896 25.2734 162.792C25.8494 163.672 26.1374 164.928 26.1374 166.56V171.792C26.1374 172.416 25.9294 172.944 25.5134 173.376C25.0974 173.792 24.5374 174 23.8334 174C23.1134 174 22.5374 173.792 22.1054 173.376C21.6894 172.944 21.4814 172.416 21.4814 171.792V167.544C21.4814 166.968 21.3694 166.52 21.1454 166.2C20.9374 165.88 20.6254 165.72 20.2094 165.72C19.7294 165.72 19.3774 165.896 19.1534 166.248C18.9454 166.6 18.8414 167.048 18.8414 167.592V171.792C18.8414 172.416 18.6414 172.944 18.2414 173.376C17.8414 173.792 17.2894 174 16.5854 174ZM33.8736 174.072C33.0256 174.072 32.2576 173.88 31.5696 173.496C30.8976 173.112 30.3696 172.568 29.9856 171.864C29.6016 171.144 29.4096 170.304 29.4096 169.344V165.12L28.5216 165.24C28.0416 165.304 27.6176 165.136 27.2496 164.736C26.8816 164.336 26.6976 163.832 26.6976 163.224C26.6976 162.616 26.8816 162.12 27.2496 161.736C27.6176 161.336 28.0416 161.168 28.5216 161.232L29.4096 161.352L29.3856 159.72C29.3696 159.08 29.5536 158.576 29.9376 158.208C30.3216 157.824 30.8816 157.632 31.6176 157.632C32.3536 157.632 32.9216 157.824 33.3216 158.208C33.7216 158.576 33.9056 159.08 33.8736 159.72L33.8256 161.352L35.0976 161.184C35.9616 161.056 36.6176 161.216 37.0656 161.664C37.5136 162.096 37.7376 162.616 37.7376 163.224C37.7376 163.832 37.5136 164.36 37.0656 164.808C36.6336 165.24 36.0016 165.4 35.1696 165.288L33.8256 165.12V168.696C33.8256 168.904 33.8976 169.096 34.0416 169.272C34.1856 169.432 34.3616 169.48 34.5696 169.416C34.8096 169.352 35.0576 169.216 35.3136 169.008C35.5856 168.8 35.9296 168.696 36.3456 168.696C36.9696 168.696 37.4496 168.92 37.7856 169.368C38.1216 169.816 38.2896 170.368 38.2896 171.024C38.2896 171.536 38.1056 172.032 37.7376 172.512C37.3856 172.976 36.8816 173.352 36.2256 173.64C35.5696 173.928 34.7856 174.072 33.8736 174.072ZM38.7239 167.76C38.7239 166.496 38.9719 165.384 39.4679 164.424C39.9799 163.464 40.6999 162.712 41.6279 162.168C42.5719 161.624 43.6919 161.352 44.9879 161.352C45.9959 161.352 46.8999 161.536 47.6999 161.904C48.5159 162.272 49.1559 162.768 49.6199 163.392C50.0839 164 50.3159 164.672 50.3159 165.408C50.3159 166.176 50.0919 166.72 49.6439 167.04C49.1959 167.36 48.5319 167.52 47.6519 167.52H42.6119C42.6119 167.936 42.7719 168.28 43.0919 168.552C43.4279 168.824 43.9879 168.96 44.7719 168.96C45.1719 168.96 45.5399 168.92 45.8759 168.84C46.2279 168.76 46.5799 168.688 46.9319 168.624C47.2999 168.544 47.7079 168.504 48.1559 168.504C48.7959 168.504 49.3239 168.736 49.7399 169.2C50.1559 169.648 50.3639 170.272 50.3639 171.072C50.3639 172.016 49.8759 172.752 48.8999 173.28C47.9399 173.808 46.6759 174.072 45.1079 174.072C44.0039 174.072 42.9639 173.856 41.9879 173.424C41.0279 172.992 40.2439 172.312 39.6359 171.384C39.0279 170.44 38.7239 169.232 38.7239 167.76ZM46.4999 166.728C46.7399 166.728 46.8199 166.616 46.7399 166.392C46.6759 166.168 46.4839 165.936 46.1639 165.696C45.8439 165.456 45.3799 165.336 44.7719 165.336C44.0679 165.336 43.5399 165.488 43.1879 165.792C42.8519 166.096 42.6839 166.408 42.6839 166.728H46.4999ZM54.0396 174C53.2876 174 52.7036 173.784 52.2876 173.352C51.8716 172.92 51.6636 172.376 51.6636 171.72V163.848C51.6636 163.16 51.8716 162.592 52.2876 162.144C52.7036 161.68 53.2876 161.448 54.0396 161.448C54.7916 161.448 55.3676 161.68 55.7676 162.144C56.1676 162.592 56.3676 163.144 56.3676 163.8V164.304H56.8236C56.8876 163.456 57.2076 162.76 57.7836 162.216C58.3596 161.672 59.0396 161.4 59.8236 161.4C60.6076 161.4 61.2236 161.64 61.6716 162.12C62.1356 162.6 62.3676 163.24 62.3676 164.04C62.3676 164.792 62.1516 165.416 61.7196 165.912C61.2876 166.408 60.7356 166.656 60.0636 166.656C59.5036 166.656 59.0316 166.528 58.6476 166.272C58.2796 166 58.0076 165.688 57.8316 165.336C57.3196 165.272 56.9436 165.328 56.7036 165.504C56.4796 165.664 56.3676 165.992 56.3676 166.488V171.72C56.3676 172.376 56.1676 172.92 55.7676 173.352C55.3676 173.784 54.7916 174 54.0396 174ZM66.0672 174C64.8832 174 63.9552 173.68 63.2832 173.04C62.6272 172.4 62.2992 171.504 62.2992 170.352C62.2992 169.2 62.6832 168.368 63.4512 167.856C64.2192 167.328 65.2032 167.064 66.4032 167.064C67.1072 167.064 67.7472 167.112 68.3232 167.208C68.8992 167.304 69.4192 167.44 69.8832 167.616H69.9552V167.256C69.9552 166.888 69.8192 166.6 69.5472 166.392C69.2752 166.168 68.9312 166.064 68.5152 166.08C68.1152 166.08 67.7712 166.104 67.4832 166.152C67.2112 166.2 66.8672 166.28 66.4512 166.392C65.6832 166.584 65.0192 166.568 64.4592 166.344C63.8992 166.12 63.5152 165.68 63.3072 165.024C63.1152 164.336 63.1552 163.76 63.4272 163.296C63.7152 162.832 64.1472 162.472 64.7232 162.216C65.2192 161.976 65.7712 161.776 66.3792 161.616C67.0032 161.456 67.6752 161.376 68.3952 161.376C70.4912 161.376 72.0272 161.888 73.0032 162.912C73.9952 163.92 74.4912 165.616 74.4912 168V171.72C74.4912 172.376 74.2912 172.92 73.8912 173.352C73.4912 173.784 72.9392 174 72.2352 174C71.4672 174 70.8912 173.784 70.5072 173.352C70.1392 172.92 69.9552 172.392 69.9552 171.768V171.216H69.4752C69.4752 171.632 69.3952 172.056 69.2352 172.488C69.0912 172.92 68.7792 173.28 68.2992 173.568C67.8352 173.856 67.0912 174 66.0672 174ZM66.3072 168.744C66.3072 169.016 66.4032 169.208 66.5952 169.32C66.8032 169.432 67.2432 169.488 67.9152 169.488C68.5232 169.488 68.9472 169.432 69.1872 169.32C69.4272 169.208 69.5472 169.016 69.5472 168.744C69.5472 168.488 69.4272 168.312 69.1872 168.216C68.9472 168.104 68.5232 168.048 67.9152 168.048C67.2432 168.048 66.8032 168.104 66.5952 168.216C66.4032 168.312 66.3072 168.488 66.3072 168.744ZM81.6676 174.072C80.4196 174.072 79.3156 173.816 78.3556 173.304C77.3956 172.776 76.6436 172.032 76.0996 171.072C75.5556 170.112 75.2836 168.984 75.2836 167.688C75.2836 166.392 75.5556 165.264 76.0996 164.304C76.6436 163.344 77.3956 162.6 78.3556 162.072C79.3316 161.544 80.4516 161.28 81.7156 161.28C82.7076 161.28 83.5796 161.384 84.3316 161.592C85.0996 161.8 85.6996 162.112 86.1316 162.528C86.5796 162.944 86.8036 163.464 86.8036 164.088C86.8036 164.84 86.6116 165.432 86.2276 165.864C85.8436 166.28 85.2916 166.488 84.5716 166.488C84.0916 166.488 83.6116 166.416 83.1316 166.272C82.6676 166.128 82.0676 166.056 81.3316 166.056C80.7236 166.056 80.2116 166.152 79.7956 166.344C79.3796 166.536 79.1716 166.888 79.1716 167.4C79.1716 167.928 79.3796 168.312 79.7956 168.552C80.2116 168.776 80.7236 168.888 81.3316 168.888C81.8276 168.888 82.2436 168.84 82.5796 168.744C82.9156 168.648 83.2356 168.552 83.5396 168.456C83.8436 168.36 84.1876 168.312 84.5716 168.312C85.3876 168.312 85.9876 168.552 86.3716 169.032C86.7716 169.496 86.9716 170.096 86.9716 170.832C86.9716 171.456 86.7396 172.016 86.2756 172.512C85.8116 172.992 85.1796 173.376 84.3796 173.664C83.5796 173.936 82.6756 174.072 81.6676 174.072ZM94.6471 174.072C93.7991 174.072 93.0311 173.88 92.3431 173.496C91.6711 173.112 91.1431 172.568 90.7591 171.864C90.3751 171.144 90.1831 170.304 90.1831 169.344V165.12L89.2951 165.24C88.8151 165.304 88.3911 165.136 88.0231 164.736C87.6551 164.336 87.4711 163.832 87.4711 163.224C87.4711 162.616 87.6551 162.12 88.0231 161.736C88.3911 161.336 88.8151 161.168 89.2951 161.232L90.1831 161.352L90.1591 159.72C90.1431 159.08 90.3271 158.576 90.7111 158.208C91.0951 157.824 91.6551 157.632 92.3911 157.632C93.1271 157.632 93.6951 157.824 94.0951 158.208C94.4951 158.576 94.6791 159.08 94.6471 159.72L94.5991 161.352L95.8711 161.184C96.7351 161.056 97.3911 161.216 97.8391 161.664C98.2871 162.096 98.5111 162.616 98.5111 163.224C98.5111 163.832 98.2871 164.36 97.8391 164.808C97.4071 165.24 96.7751 165.4 95.9431 165.288L94.5991 165.12V168.696C94.5991 168.904 94.6711 169.096 94.8151 169.272C94.9591 169.432 95.1351 169.48 95.3431 169.416C95.5831 169.352 95.8311 169.216 96.0871 169.008C96.3591 168.8 96.7031 168.696 97.1191 168.696C97.7431 168.696 98.2231 168.92 98.5591 169.368C98.8951 169.816 99.0631 170.368 99.0631 171.024C99.0631 171.536 98.8791 172.032 98.5111 172.512C98.1591 172.976 97.6551 173.352 96.9991 173.64C96.3431 173.928 95.5591 174.072 94.6471 174.072ZM99.802 158.664C99.802 157.976 100.01 157.424 100.426 157.008C100.858 156.576 101.45 156.36 102.202 156.36C103.002 156.36 103.594 156.568 103.978 156.984C104.378 157.4 104.578 157.952 104.578 158.64C104.578 159.312 104.378 159.856 103.978 160.272C103.594 160.672 103.002 160.872 102.202 160.872C101.418 160.872 100.818 160.672 100.402 160.272C100.002 159.856 99.802 159.32 99.802 158.664ZM102.202 174C101.45 174 100.89 173.792 100.522 173.376C100.154 172.96 99.97 172.44 99.97 171.816V163.608C99.97 162.92 100.154 162.376 100.522 161.976C100.89 161.576 101.45 161.376 102.202 161.376C102.954 161.376 103.514 161.576 103.882 161.976C104.266 162.376 104.458 162.904 104.458 163.56V171.816C104.458 172.44 104.258 172.96 103.858 173.376C103.474 173.792 102.922 174 102.202 174ZM112.021 174C110.981 174 110.093 173.696 109.357 173.088C108.621 172.48 108.013 171.472 107.533 170.064L105.637 164.592C105.381 163.872 105.381 163.208 105.637 162.6C105.909 161.992 106.405 161.608 107.125 161.448C107.765 161.304 108.325 161.368 108.805 161.64C109.301 161.912 109.653 162.368 109.861 163.008L111.733 168.504C111.957 169.144 112.229 169.616 112.549 169.92C112.885 170.224 113.293 170.296 113.773 170.136C114.221 169.96 114.461 169.672 114.493 169.272C114.541 168.856 114.453 168.376 114.229 167.832C114.037 167.336 113.781 166.912 113.461 166.56C113.141 166.208 112.853 165.84 112.597 165.456C112.341 165.072 112.213 164.592 112.213 164.016C112.213 163.184 112.477 162.536 113.005 162.072C113.549 161.592 114.261 161.368 115.141 161.4C115.893 161.416 116.509 161.68 116.989 162.192C117.469 162.704 117.709 163.352 117.709 164.136C117.709 164.568 117.637 165.032 117.493 165.528C117.349 166.024 117.189 166.544 117.013 167.088L116.053 170.112C115.797 170.912 115.509 171.608 115.189 172.2C114.885 172.776 114.485 173.224 113.989 173.544C113.509 173.848 112.853 174 112.021 174ZM118.107 167.76C118.107 166.496 118.355 165.384 118.851 164.424C119.363 163.464 120.083 162.712 121.011 162.168C121.955 161.624 123.075 161.352 124.371 161.352C125.379 161.352 126.283 161.536 127.083 161.904C127.899 162.272 128.539 162.768 129.003 163.392C129.467 164 129.699 164.672 129.699 165.408C129.699 166.176 129.475 166.72 129.027 167.04C128.579 167.36 127.915 167.52 127.035 167.52H121.995C121.995 167.936 122.155 168.28 122.475 168.552C122.811 168.824 123.371 168.96 124.155 168.96C124.555 168.96 124.923 168.92 125.259 168.84C125.611 168.76 125.963 168.688 126.315 168.624C126.683 168.544 127.091 168.504 127.539 168.504C128.179 168.504 128.707 168.736 129.123 169.2C129.539 169.648 129.747 170.272 129.747 171.072C129.747 172.016 129.259 172.752 128.283 173.28C127.323 173.808 126.059 174.072 124.491 174.072C123.387 174.072 122.347 173.856 121.371 173.424C120.411 172.992 119.627 172.312 119.019 171.384C118.411 170.44 118.107 169.232 118.107 167.76ZM125.883 166.728C126.123 166.728 126.203 166.616 126.123 166.392C126.059 166.168 125.867 165.936 125.547 165.696C125.227 165.456 124.763 165.336 124.155 165.336C123.451 165.336 122.923 165.488 122.571 165.792C122.235 166.096 122.067 166.408 122.067 166.728H125.883ZM137.716 174C136.884 174 136.268 173.752 135.868 173.256C135.468 172.76 135.268 172.096 135.268 171.264V160.08C135.268 158.864 135.596 157.968 136.252 157.392C136.924 156.816 137.724 156.528 138.652 156.528C139.532 156.528 140.276 156.816 140.884 157.392C141.508 157.968 141.964 158.88 142.252 160.128L144.124 168.264H144.748L146.62 160.128C146.908 158.88 147.364 157.968 147.988 157.392C148.628 156.816 149.388 156.528 150.268 156.528C151.196 156.528 151.988 156.816 152.644 157.392C153.316 157.968 153.652 158.864 153.652 160.08V171.264C153.652 172.096 153.444 172.76 153.028 173.256C152.628 173.752 152.012 174 151.18 174C150.38 174 149.764 173.752 149.332 173.256C148.9 172.76 148.684 172.096 148.684 171.264V164.808C148.684 164.648 148.66 164.504 148.612 164.376C148.58 164.232 148.476 164.16 148.3 164.16C148.156 164.16 148.052 164.232 147.988 164.376C147.924 164.504 147.876 164.648 147.844 164.808L146.932 170.856C146.82 171.512 146.684 172.08 146.524 172.56C146.38 173.024 146.148 173.384 145.828 173.64C145.508 173.88 145.044 174 144.436 174C143.844 174 143.38 173.88 143.044 173.64C142.724 173.384 142.484 173.024 142.324 172.56C142.18 172.08 142.06 171.512 141.964 170.856L141.028 164.808C141.012 164.648 140.972 164.504 140.908 164.376C140.844 164.232 140.732 164.16 140.572 164.16C140.412 164.16 140.308 164.232 140.26 164.376C140.212 164.504 140.188 164.648 140.188 164.808V171.264C140.188 172.096 139.972 172.76 139.54 173.256C139.124 173.752 138.516 174 137.716 174ZM154.974 167.76C154.974 166.496 155.222 165.384 155.718 164.424C156.23 163.464 156.95 162.712 157.878 162.168C158.822 161.624 159.942 161.352 161.238 161.352C162.246 161.352 163.15 161.536 163.95 161.904C164.766 162.272 165.406 162.768 165.87 163.392C166.334 164 166.566 164.672 166.566 165.408C166.566 166.176 166.342 166.72 165.894 167.04C165.446 167.36 164.782 167.52 163.902 167.52H158.862C158.862 167.936 159.022 168.28 159.342 168.552C159.678 168.824 160.238 168.96 161.022 168.96C161.422 168.96 161.79 168.92 162.126 168.84C162.478 168.76 162.83 168.688 163.182 168.624C163.55 168.544 163.958 168.504 164.406 168.504C165.046 168.504 165.574 168.736 165.99 169.2C166.406 169.648 166.614 170.272 166.614 171.072C166.614 172.016 166.126 172.752 165.15 173.28C164.19 173.808 162.926 174.072 161.358 174.072C160.254 174.072 159.214 173.856 158.238 173.424C157.278 172.992 156.494 172.312 155.886 171.384C155.278 170.44 154.974 169.232 154.974 167.76ZM162.75 166.728C162.99 166.728 163.07 166.616 162.99 166.392C162.926 166.168 162.734 165.936 162.414 165.696C162.094 165.456 161.63 165.336 161.022 165.336C160.318 165.336 159.79 165.488 159.438 165.792C159.102 166.096 158.934 166.408 158.934 166.728H162.75ZM171.975 174C169.063 174 167.607 171.856 167.607 167.568C167.607 165.712 167.967 164.232 168.687 163.128C169.407 162.008 170.487 161.448 171.927 161.448C172.711 161.448 173.343 161.608 173.823 161.928C174.319 162.248 174.703 162.688 174.975 163.248C175.263 163.792 175.471 164.424 175.599 165.144L175.671 165.12V157.848C175.671 157.192 175.863 156.64 176.247 156.192C176.647 155.728 177.223 155.496 177.975 155.496C178.711 155.496 179.255 155.728 179.607 156.192C179.975 156.64 180.159 157.208 180.159 157.896V168.696C180.159 169.24 180.199 169.744 180.279 170.208C180.375 170.656 180.447 171.104 180.495 171.552C180.543 172.16 180.415 172.688 180.111 173.136C179.823 173.568 179.303 173.848 178.551 173.976C177.575 174.136 176.847 173.968 176.367 173.472C175.903 172.976 175.671 172.24 175.671 171.264V170.376H175.215C175.215 171.544 174.919 172.44 174.327 173.064C173.751 173.688 172.967 174 171.975 174ZM171.615 167.352C171.615 167.848 171.767 168.216 172.071 168.456C172.375 168.696 172.919 168.816 173.703 168.816C174.503 168.816 175.055 168.696 175.359 168.456C175.663 168.216 175.815 167.848 175.815 167.352C175.815 166.84 175.663 166.472 175.359 166.248C175.071 166.008 174.527 165.888 173.727 165.888C172.927 165.888 172.375 166.008 172.071 166.248C171.767 166.472 171.615 166.84 171.615 167.352ZM181.552 158.664C181.552 157.976 181.76 157.424 182.176 157.008C182.608 156.576 183.2 156.36 183.952 156.36C184.752 156.36 185.344 156.568 185.728 156.984C186.128 157.4 186.328 157.952 186.328 158.64C186.328 159.312 186.128 159.856 185.728 160.272C185.344 160.672 184.752 160.872 183.952 160.872C183.168 160.872 182.568 160.672 182.152 160.272C181.752 159.856 181.552 159.32 181.552 158.664ZM183.952 174C183.2 174 182.64 173.792 182.272 173.376C181.904 172.96 181.72 172.44 181.72 171.816V163.608C181.72 162.92 181.904 162.376 182.272 161.976C182.64 161.576 183.2 161.376 183.952 161.376C184.704 161.376 185.264 161.576 185.632 161.976C186.016 162.376 186.208 162.904 186.208 163.56V171.816C186.208 172.44 186.008 172.96 185.608 173.376C185.224 173.792 184.672 174 183.952 174ZM191.083 174C189.899 174 188.971 173.68 188.299 173.04C187.643 172.4 187.315 171.504 187.315 170.352C187.315 169.2 187.699 168.368 188.467 167.856C189.235 167.328 190.219 167.064 191.419 167.064C192.123 167.064 192.763 167.112 193.339 167.208C193.915 167.304 194.435 167.44 194.899 167.616H194.971V167.256C194.971 166.888 194.835 166.6 194.563 166.392C194.291 166.168 193.947 166.064 193.531 166.08C193.131 166.08 192.787 166.104 192.499 166.152C192.227 166.2 191.883 166.28 191.467 166.392C190.699 166.584 190.035 166.568 189.475 166.344C188.915 166.12 188.531 165.68 188.323 165.024C188.131 164.336 188.171 163.76 188.443 163.296C188.731 162.832 189.163 162.472 189.739 162.216C190.235 161.976 190.787 161.776 191.395 161.616C192.019 161.456 192.691 161.376 193.411 161.376C195.507 161.376 197.043 161.888 198.019 162.912C199.011 163.92 199.507 165.616 199.507 168V171.72C199.507 172.376 199.307 172.92 198.907 173.352C198.507 173.784 197.955 174 197.251 174C196.483 174 195.907 173.784 195.523 173.352C195.155 172.92 194.971 172.392 194.971 171.768V171.216H194.491C194.491 171.632 194.411 172.056 194.251 172.488C194.107 172.92 193.795 173.28 193.315 173.568C192.851 173.856 192.107 174 191.083 174ZM191.323 168.744C191.323 169.016 191.419 169.208 191.611 169.32C191.819 169.432 192.259 169.488 192.931 169.488C193.539 169.488 193.963 169.432 194.203 169.32C194.443 169.208 194.563 169.016 194.563 168.744C194.563 168.488 194.443 168.312 194.203 168.216C193.963 168.104 193.539 168.048 192.931 168.048C192.259 168.048 191.819 168.104 191.611 168.216C191.419 168.312 191.323 168.488 191.323 168.744ZM207.678 174.048C206.942 174.048 206.342 173.824 205.878 173.376C205.414 172.928 205.182 172.36 205.182 171.672V158.976C205.182 158.272 205.406 157.68 205.854 157.2C206.318 156.72 206.926 156.48 207.678 156.48C208.478 156.48 209.102 156.72 209.55 157.2C210.014 157.664 210.246 158.24 210.246 158.928V171.672C210.246 172.36 209.998 172.928 209.502 173.376C209.022 173.824 208.414 174.048 207.678 174.048ZM214.287 174.048C213.551 174.048 212.951 173.824 212.487 173.376C212.023 172.928 211.791 172.36 211.791 171.672V158.976C211.791 158.272 212.015 157.68 212.463 157.2C212.927 156.72 213.535 156.48 214.287 156.48C215.087 156.48 215.711 156.72 216.159 157.2C216.623 157.664 216.855 158.24 216.855 158.928V171.672C216.855 172.36 216.607 172.928 216.111 173.376C215.631 173.824 215.023 174.048 214.287 174.048ZM220.897 174.048C220.161 174.048 219.561 173.824 219.097 173.376C218.633 172.928 218.401 172.36 218.401 171.672V158.976C218.401 158.272 218.625 157.68 219.073 157.2C219.537 156.72 220.145 156.48 220.897 156.48C221.697 156.48 222.321 156.72 222.769 157.2C223.233 157.664 223.465 158.24 223.465 158.928V171.672C223.465 172.36 223.217 172.928 222.721 173.376C222.241 173.824 221.633 174.048 220.897 174.048Z" fill="#FDBB63"/>
</svg>
